<svg id="financial_statement" data-name="financial statement" xmlns="http://www.w3.org/2000/svg" xmlns:xlink="http://www.w3.org/1999/xlink" viewBox="0 0 754 928"><defs><symbol id="Income_Box" data-name="Income Box" viewBox="0 0 276 175.12"><rect width="276" height="175.12" fill="#fff"/></symbol></defs><title>financial statement</title><rect x="41" y="37.08" width="672" height="853.84" fill="#f2f2f2"/><g id="liability"><use id="box" width="276" height="175.12" transform="translate(563 545) rotate(90)" xlink:href="#Income_Box"/><g id="text"><path d="M394.54,557.45a.43.43,0,0,1,.31-.09,2.48,2.48,0,0,1,.69.11c.24.08.37.15.39.22s0,.35.13.91a1.06,1.06,0,0,0,0,.15,1.21,1.21,0,0,1,0,.18,2.67,2.67,0,0,1-.18,1.05,13.54,13.54,0,0,0-.37,2.22c-.07.9-.2,2-.37,3.26q-.27,1.51-.36,2.4c0,.14-.05.42-.12.81l-.12.79a2.22,2.22,0,0,0-.09.58c0,.25.18.47.53.68a1.65,1.65,0,0,0,.66.2,3,3,0,0,0,1-.31,14.45,14.45,0,0,1,3.82-1.23.26.26,0,0,1,.18,0,.15.15,0,0,1,0,.11c0,.37-.79.93-2.38,1.69a9.38,9.38,0,0,1-3.49,1.15l-.26,0a2.08,2.08,0,0,1-1.13-.72,2.58,2.58,0,0,1-.33-1.46,15,15,0,0,1,.25-2.31c.24-1.41.48-3.07.7-5s.33-3.22.33-3.91A5.94,5.94,0,0,1,394.54,557.45Z"/><path d="M402,559a.68.68,0,0,1,.63-.46.76.76,0,0,1,.58.31c.16.22.25,2,.28,5.21a32.35,32.35,0,0,0,.4,6.45,7.64,7.64,0,0,1,.26,1.45c0,.25-.09.38-.26.38a.55.55,0,0,1-.25-.05c-.68-.28-1.12-2.54-1.29-6.77a42.9,42.9,0,0,0-.38-5,3.63,3.63,0,0,1-.08-.84A1.4,1.4,0,0,1,402,559Z"/><path d="M410.86,558.24a1.31,1.31,0,0,1,.14-.7.55.55,0,0,1,.5-.2l.33,0a.58.58,0,0,1,.52.29,8.7,8.7,0,0,1,.21,1.45,9.45,9.45,0,0,0,.53,2.75c.2.54.6,1.83,1.18,3.85s.94,3.26,1,3.7a11.18,11.18,0,0,0,.5,1.65,5.14,5.14,0,0,0,.57,1.23.52.52,0,0,1,.12.33,1,1,0,0,1-.24.64.64.64,0,0,1-.51.3c-.22,0-.57-.24-1.06-.74s-.73-.86-.73-1.08-.51-1-1.55-2.11a8.46,8.46,0,0,0-2.16-1.94,1.55,1.55,0,0,1-.66-.43,1,1,0,0,1-.16-.63v-.7l1.71.17,1.7.14-.13-1a6.91,6.91,0,0,0-.5-1.58,6.54,6.54,0,0,1-.51-1.63c-.12-.57-.24-.86-.37-.86s-.25.17-.36.51a19.07,19.07,0,0,1-.94,2.22,39.17,39.17,0,0,0-2.14,5.14,5.5,5.5,0,0,1-.78,1.85c-.4.66-.74,1-1,1.13a3.54,3.54,0,0,1-.44.08c-.32,0-.48-.15-.48-.46a1.94,1.94,0,0,1,.52-1.12,12.3,12.3,0,0,0,1.1-1.87,7,7,0,0,0,.73-1.65,2.86,2.86,0,0,1,.35-.92C409.87,561.59,410.86,559,410.86,558.24Zm2.49,9c-.12-.25-.23-.37-.33-.37a.91.91,0,0,0-.46.2c-.15.1-.22.19-.22.26a.82.82,0,0,0,.17.33c.24.28.45.42.64.42s.31-.13.31-.37A1.47,1.47,0,0,0,413.35,567.26Z"/><path d="M418.56,557.36h.22a11.1,11.1,0,0,1,1.13.11,3.13,3.13,0,0,1,1,.43c.29.2.78.61,1.47,1.22a2.67,2.67,0,0,1,.46,1.61,4.85,4.85,0,0,1,.07.77,2.67,2.67,0,0,1-.44,1.45l-.51.86,1.08.88a5.7,5.7,0,0,0,1.23.88q.19,0,1.38,1.32a8.73,8.73,0,0,1,1.28,1.63,1.19,1.19,0,0,1,.05.28,3,3,0,0,1-1.39,2.14,7.52,7.52,0,0,1-3.17,1.47,17.2,17.2,0,0,1-2.64.44,2.16,2.16,0,0,1-.74-.15,1.8,1.8,0,0,1-1.3-1.81,2.73,2.73,0,0,1,.42-1.41c.26-.45.47-.68.63-.68s.16.11.16.33a2.18,2.18,0,0,1-.07.49,3.85,3.85,0,0,0-.06.66c0,.58.14.87.41.87a.28.28,0,0,0,.14,0c.23-.07.35,0,.35.14s.12.15.37.15a4.19,4.19,0,0,0,.68-.07,12.79,12.79,0,0,0,2-.43c.62-.18.93-.31.93-.4s.17-.17.52-.2a2,2,0,0,0,1.05-.61c.43-.38.65-.68.65-.89s-.52-.72-1.54-1.64a31.33,31.33,0,0,0-2.82-2.25c-1-.63-1.45-1.15-1.45-1.56s.22-.42.66-.47a1.14,1.14,0,0,0,.84-.54,2,2,0,0,0,.35-1.13,2.18,2.18,0,0,0-.5-1.25,3.16,3.16,0,0,0-2.1-1.28c-.29,0-.49.19-.59.56a9.93,9.93,0,0,0-.18,2,24.41,24.41,0,0,1-.44,5.59.55.55,0,0,1-.55.41.64.64,0,0,1-.43-.17.9.9,0,0,1-.29-.49,6.05,6.05,0,0,1-.05-.92c0-1.1.05-2.29.16-3.56s.2-2.4.3-3a3.06,3.06,0,0,1,.44-1.28A1.31,1.31,0,0,1,418.56,557.36Z"/><path d="M428.18,559a.69.69,0,0,1,.63-.46.76.76,0,0,1,.58.31c.16.22.25,2,.28,5.21a32.35,32.35,0,0,0,.4,6.45,6.88,6.88,0,0,1,.26,1.45c0,.25-.08.38-.26.38a.54.54,0,0,1-.24-.05q-1-.42-1.3-6.77a43.78,43.78,0,0,0-.37-5,3.61,3.61,0,0,1-.09-.84A1.4,1.4,0,0,1,428.18,559Z"/><path d="M433.41,557.34a1,1,0,0,1,.8-.29c.38,0,.61.1.7.29a.51.51,0,0,1,0,.16,7.08,7.08,0,0,1-.3,1.56,7.43,7.43,0,0,1-.54,1.56,2,2,0,0,0-.26,1.06c0,.42-.09.66-.26.7s-.43.61-.65,1.61a12.44,12.44,0,0,0-.34,2.81,5.75,5.75,0,0,0,.12,1.41,1.79,1.79,0,0,0,.51.79,1.6,1.6,0,0,0,1.06.64l.55,0a10.14,10.14,0,0,0,2.53-.28,7.28,7.28,0,0,1,2-.25c.82,0,1.23.1,1.23.29s-.86.56-2.59,1.12a14.23,14.23,0,0,1-3.5.84,2.53,2.53,0,0,1-1.67-.65,4.47,4.47,0,0,1-1.2-1.77,6,6,0,0,1-.3-2.11,18.35,18.35,0,0,1,.72-4.65c.33-1.17.6-2.26.84-3.27A6.07,6.07,0,0,1,433.41,557.34Z"/><path d="M442,558.46a1.61,1.61,0,0,1,.55,0,.77.77,0,0,1,.75.55,4.54,4.54,0,0,1,.15,1.36,2.52,2.52,0,0,1-.2,1.28,14.92,14.92,0,0,0-.22,3V565c0,1,.07,2.22.21,3.62a9.67,9.67,0,0,0,.39,2.39,1.08,1.08,0,0,1,.18.5c0,.18-.1.27-.29.27a.8.8,0,0,1-.31-.07c-.32-.13-.61-.58-.86-1.36a11.18,11.18,0,0,1-.46-2.77c-.07-1.62-.11-3.1-.11-4.47A26.24,26.24,0,0,1,442,558.46Z"/><path d="M444.88,558.66c.05-.19.22-.28.5-.28a1.83,1.83,0,0,1,.44,0c1.1.22,1.91.37,2.44.46a2.27,2.27,0,0,1,.73.22,22.34,22.34,0,0,0,2.4.42,26.29,26.29,0,0,1,4,.86,15.84,15.84,0,0,0,2.18.59.8.8,0,0,1,.52.13.29.29,0,0,1,.11.2c0,.12-.17.18-.53.18a16.84,16.84,0,0,1-2-.2c-1.4-.22-2.66-.37-3.78-.46l-1.45-.13-.09,3.65c-.06,2.26-.09,4-.09,5.23v.8c0,1.56-.1,2.39-.31,2.46a.33.33,0,0,1-.48-.15,48.41,48.41,0,0,1-.2-6c0-2.76-.06-4.47-.13-5.14s-.29-1-.64-1l-.37.05c-.29.06-.44,0-.44-.16s-.18-.22-.53-.13a.94.94,0,0,1-.26,0,3.08,3.08,0,0,1-1.21-.29c-.44-.2-.71-.41-.79-.63a.93.93,0,0,1-.05-.37A1.07,1.07,0,0,1,444.88,558.66Z"/><path d="M458.49,558.07a.39.39,0,0,1,.38-.18,1.05,1.05,0,0,1,.6.23,1.09,1.09,0,0,1,.41.54,16.69,16.69,0,0,0,1,3.41,1.93,1.93,0,0,1,.24.84,2.15,2.15,0,0,0,.44.9c.3.42.55.64.75.64a.23.23,0,0,0,.18-.07,1,1,0,0,1,.72-.28c.33,0,.49.1.49.3s0,.14.09.14.33-.18.61-.54a5,5,0,0,0,.68-1.16c.55-1.25.9-2.12,1.06-2.62a5.26,5.26,0,0,0,.26-1.51c0-.56.17-.84.4-.84s.34.19.51.57a1.42,1.42,0,0,1,.06.44,7.15,7.15,0,0,1-.75,2.64,16.69,16.69,0,0,1-1.71,3c-.65.89-1.17,1.34-1.56,1.34-.11,0-.23.08-.37.25a2.28,2.28,0,0,0-.34.59,13.42,13.42,0,0,0-1,4.35,1.68,1.68,0,0,0,.38,1.3c.19.18.28.32.28.42s-.1.22-.31.22a1.21,1.21,0,0,1-.72-.29,1.4,1.4,0,0,1-.54-.65,4.54,4.54,0,0,1-.14-1.26,11.84,11.84,0,0,1,.57-3.32l.55-1.9-.57-.5a4,4,0,0,1-.81-1.17q-.31-.68-1.17-3.21a11.26,11.26,0,0,1-.73-2.6l0,0Z"/></g></g><g id="asset"><rect x="192" y="545" width="175" height="276" fill="#fff"/><g id="text-2" data-name="text"><path d="M209.73,557.34a.63.63,0,0,1,.12-.46.78.78,0,0,1,.48-.11c.42,0,.67.13.75.4a4.77,4.77,0,0,0,.3.79,5,5,0,0,1,.38,1.43,14.64,14.64,0,0,0,.48,2.15c.71,2.47,1.09,4,1.17,4.54a13.23,13.23,0,0,0,.77,3.27,3.63,3.63,0,0,1,.31,1.35,1.56,1.56,0,0,1-.22.88c-.11.14-.19.21-.25.21a1.53,1.53,0,0,1-.71-.43l-2.17-1.92a16.62,16.62,0,0,0-3-2.31c-.53-.22-.79-.52-.79-.9a.79.79,0,0,1,.46-.83,7.08,7.08,0,0,1,2-.18l1.94,0-.09-.66c-.06-.43-.15-.64-.28-.64s-.19-.18-.22-.55a9,9,0,0,0-.2-1.56c-.12-.51-.23-.77-.33-.77s-.22-.12-.22-.35a.31.31,0,0,0-.35-.35.63.63,0,0,0-.53.28,17.48,17.48,0,0,0-1.65,3.17,11.35,11.35,0,0,1-1.07,1.77,7.88,7.88,0,0,1-1.18,1.46,4.6,4.6,0,0,0-.52.84,30.12,30.12,0,0,1-1.82,3.09c-.61.89-1,1.38-1.31,1.46a1.25,1.25,0,0,1-.26.05.64.64,0,0,1-.42-.15.42.42,0,0,1-.18-.34.39.39,0,0,1,.09-.26c.15-.18.68-1,1.61-2.35s1.46-2.18,1.6-2.36a6.67,6.67,0,0,0,.8-1.32,9.72,9.72,0,0,1,1.16-1.76,20,20,0,0,0,2.06-3.48A11,11,0,0,0,209.73,557.34Zm2.56,9.26q-.28-.72-.42-.72a6.1,6.1,0,0,0-1,.35,3.93,3.93,0,0,0-.81.39.22.22,0,0,0-.06.14c0,.23.57.82,1.71,1.76l1.17,1-.18-1.08A8.71,8.71,0,0,0,212.29,566.6Z"/><path d="M217.08,558.84a4.19,4.19,0,0,1,.95-.18,1.28,1.28,0,0,1,.77.29.53.53,0,0,1,.26.39c0,.25-.24.38-.72.38a2.3,2.3,0,0,0-1.21.39,1.52,1.52,0,0,0-.75.84.69.69,0,0,0,0,.24,2,2,0,0,0,.5,1.15,23.86,23.86,0,0,0,1.83,2,26,26,0,0,1,2.8,3.12,3.77,3.77,0,0,1,.87,2c0,.68-.45,1.28-1.36,1.81a3.22,3.22,0,0,1-.87.37,5.51,5.51,0,0,1-1.16.09l-1.16,0a11.62,11.62,0,0,1-2.33-.23c-.47-.13-.71-.33-.71-.61s.3-.78.9-1.43a7.16,7.16,0,0,1,1.51-1.19,3.15,3.15,0,0,1,1.35-.57.22.22,0,0,1,.16.05c.07.1,0,.19-.2.26a4.54,4.54,0,0,0-1.3,1.07c-.59.61-.88,1-.88,1.2a.37.37,0,0,0,.28.36,3.79,3.79,0,0,0,1,.1l1.3-.05a3.83,3.83,0,0,0,1.8-.35,1.33,1.33,0,0,0,.55-1.12v-.26a2.23,2.23,0,0,0-.55-1.37c-.5-.61-1-1.17-1.44-1.66s-.73-.74-.82-.74a5.92,5.92,0,0,1-1.32-1.23,15.31,15.31,0,0,1-1.54-1.8,2.06,2.06,0,0,1-.35-1.15,2,2,0,0,1,.49-1.29A2.69,2.69,0,0,1,217.08,558.84Z"/><path d="M226.81,559.19l.81-.15a5.35,5.35,0,0,1,1.08.33q.9.39.9.9a.42.42,0,0,1-.24.44,4.91,4.91,0,0,1-1.21.08H226.7l.15.91c.18,1.08,1.42,2.72,3.74,4.9a13.51,13.51,0,0,1,1.35,1.42,1.58,1.58,0,0,1,.28,1v.13a2.08,2.08,0,0,1-.75,1.59,4,4,0,0,1-1.84.9,19.43,19.43,0,0,1-3.42.22,22.35,22.35,0,0,1-2.28-.08,1.35,1.35,0,0,1-.84-.32c-.28-.25-.42-.42-.42-.53a5,5,0,0,1,.86-1.15c.57-.67.9-1,1-1s.2.28.26.83l.07.84,2.35,0a6.6,6.6,0,0,0,3-.44q.66-.5.66-.66a10.88,10.88,0,0,0-1.74-2,25.33,25.33,0,0,1-3.08-3.72c-.49-.72-.81-1.24-1-1.56a1.87,1.87,0,0,1-.25-.86,1.77,1.77,0,0,1,0-.33,1.9,1.9,0,0,1,.65-1.06A2.75,2.75,0,0,1,226.81,559.19Z"/><path d="M234.48,558.55a4.84,4.84,0,0,1,.84-.06c.54,0,1.81.09,3.81.28,1.11.1,1.67.27,1.67.51a.33.33,0,0,1-.31.37l-.81.11a18,18,0,0,1-2.27.13,4.8,4.8,0,0,0-2.37.41,2,2,0,0,0-.53,1.68v.71a.93.93,0,0,0,.14.47.7.7,0,0,0,.28.32,5.66,5.66,0,0,0,.62.18,6.17,6.17,0,0,0,.92.13l1.45.09c1.05.07,1.74.14,2.07.2s.5.19.5.37-.13.26-.39.36a9.3,9.3,0,0,1-1.48.34,16.48,16.48,0,0,1-2.82.31h-.13l-1-.07.16,1.94c.1,1.41.24,2.11.41,2.11s.14-.07.25-.22a.47.47,0,0,1,.44-.18,2,2,0,0,1,.33.05,28.15,28.15,0,0,0,4.22.26c1.44.06,2.39.12,2.87.18s.72.16.72.31-.06.35-.18.35a16.85,16.85,0,0,0-1.72.26,28.83,28.83,0,0,1-4.15.35l-2.64.09-.07.77a1.73,1.73,0,0,1-.13.6.33.33,0,0,1-.31.15h-.2c-.38-.06-.57-.19-.57-.4a2.4,2.4,0,0,0-.07-.38,3,3,0,0,1-.06-.52v-.2a.66.66,0,0,1,0-.11.86.86,0,0,0,0-.15,16.15,16.15,0,0,0-.29-2.49,5.84,5.84,0,0,0-.46-1.82A2.1,2.1,0,0,1,233,565a11,11,0,0,0-.29-2.16,7.92,7.92,0,0,1-.22-1.69,2.55,2.55,0,0,1,.69-1.87A2.19,2.19,0,0,1,234.48,558.55Z"/><path d="M244.41,558.66c.05-.19.22-.28.5-.28a1.83,1.83,0,0,1,.44,0c1.1.22,1.92.37,2.44.46a2.27,2.27,0,0,1,.73.22,22.34,22.34,0,0,0,2.4.42,26.29,26.29,0,0,1,4,.86,15.84,15.84,0,0,0,2.18.59.78.78,0,0,1,.52.13.29.29,0,0,1,.11.2c0,.12-.17.18-.52.18a16.46,16.46,0,0,1-2-.2c-1.41-.22-2.67-.37-3.79-.46l-1.45-.13-.09,3.65c-.06,2.26-.09,4-.09,5.23v.8c0,1.56-.1,2.39-.3,2.46a.35.35,0,0,1-.49-.15,48.41,48.41,0,0,1-.2-6c0-2.76-.06-4.47-.13-5.14s-.28-1-.64-1l-.37.05c-.29.06-.44,0-.44-.16s-.18-.22-.53-.13a.94.94,0,0,1-.26,0,3.08,3.08,0,0,1-1.21-.29c-.44-.2-.71-.41-.79-.63a.93.93,0,0,1,0-.37A1.07,1.07,0,0,1,244.41,558.66Z"/></g></g><g id="expense"><use id="box-2" data-name="box" width="276" height="175.12" transform="translate(240 308)" xlink:href="#Income_Box"/><g id="text-3" data-name="text"><path d="M258.75,320a2.43,2.43,0,0,1,.42,0A16.69,16.69,0,0,1,262.8,321q1.47.56,1.47.84c0,.13-.26.2-.79.2a16.16,16.16,0,0,1-2.11-.2,9.87,9.87,0,0,0-1.17-.11.85.85,0,0,0-.33,0,7.18,7.18,0,0,0-.29,2.53l-.06,2.34,2.57-.09c.25,0,.58,0,1,0,1.16,0,1.74.09,1.74.28s-.34.29-1,.49a20,20,0,0,0-3.41,1.14,1.31,1.31,0,0,0-.35.92c0,1.68.25,2.51.74,2.51a28.46,28.46,0,0,0,5.26-1.3,13,13,0,0,1,1.65-.44c.09,0,.13.06.13.18v.11c0,.19-.28.44-.85.74a3.27,3.27,0,0,1-1.39.45,1,1,0,0,0-.79.39,5.68,5.68,0,0,1-1.63,1,5.59,5.59,0,0,1-1.78.65c-.25,0-.46.21-.64.62a.77.77,0,0,1-.7.57h-.11c-.43-.06-.77-.75-1-2.07a49.76,49.76,0,0,1-.6-6.25c-.1-1.8-.16-3.22-.16-4.26a7.22,7.22,0,0,1,.14-1.73C258.37,320.2,258.53,320,258.75,320Z"/><path d="M274.83,327.9c0,.09.13.28.38.58s.39.5.39.61.12.3.37.46a1.11,1.11,0,0,1,.51.81,6.81,6.81,0,0,0,1.09,1.74,5.69,5.69,0,0,0,1.33,1.48c.15,0,.22.24.22.59s-.12.46-.37.46a2.55,2.55,0,0,1-1.46-.88,5.57,5.57,0,0,0-1.49-1.12,5.83,5.83,0,0,1-1-.48,7.18,7.18,0,0,0-3-1.17,1.16,1.16,0,0,0-.84.29,2.64,2.64,0,0,1-1.82.7c-.5,0-.82-.13-1-.4a.66.66,0,0,1-.11-.35.75.75,0,0,1,.29-.59.94.94,0,0,1,.68-.27c.31,0,.46-.08.46-.24a.29.29,0,0,1,.05-.17.14.14,0,0,1,.15-.05h.13a2.89,2.89,0,0,0,1.22-.39c.51-.27.79-.5.85-.71a1,1,0,0,1,.11-.23.38.38,0,0,1,.12-.13s.06,0,.08,0h0a.89.89,0,0,0,.55-.33,1.06,1.06,0,0,0,.33-.77c0-.34-.13-.51-.4-.51s-.16-.08-.08-.24,0-.34-.25-.42-.26-.13-.27-.17.05-.11.19-.2a.92.92,0,0,0,.16-.13s0-.05,0-.07a1,1,0,0,0-.23,0,.48.48,0,0,1-.34-.19,1.28,1.28,0,0,1-.3-.43,10.83,10.83,0,0,0-2.27-3.1c-.52-.56-.79-1-.79-1.25s.13-.33.38-.42a2.09,2.09,0,0,1,.79-.15c.31,0,.46.05.46.17a.17.17,0,0,1,0,.09s0,0,0,.07a3.64,3.64,0,0,0,.81,1.51,29.41,29.41,0,0,1,1.67,2.45,8.75,8.75,0,0,0,1.19,1.69l.53.57,1.25-1.21a20.23,20.23,0,0,0,2.25-2.59,6.44,6.44,0,0,0,1.25-2.07,1.9,1.9,0,0,1,.55-1c.35-.44.56-.66.62-.66s0,0,0,.09,0,.12,0,.33a10,10,0,0,1-1.35,2.91,22.86,22.86,0,0,1-2.37,3.38A13.25,13.25,0,0,0,274.83,327.9Zm-.24,1.8a1.44,1.44,0,0,0-.31-.63.39.39,0,0,0-.29-.2c-.11,0-.37.22-.77.66s-.61.76-.61.92.54.42,1.61.77a15.17,15.17,0,0,0,1.8.53s.06,0,.06,0a4.36,4.36,0,0,0-.74-1C274.84,330.19,274.59,329.84,274.59,329.7Z"/><path d="M284.49,320.13a.65.65,0,0,1,.48-.3c.35,0,1,.55,2,1.65,1.84,2,2.75,3.75,2.75,5.1a4.28,4.28,0,0,1-.83,2.42,3.59,3.59,0,0,1-2.82,1.85,1.62,1.62,0,0,1-.81-.2.94.94,0,0,0-.38-.15q-.15,0-.18.3a13.36,13.36,0,0,0,0,1.39,8.34,8.34,0,0,1-.14,1.94c-.09.33-.28.5-.56.5h0q-.69,0-.84-1.05-.81-4.14-1-6.21a23.22,23.22,0,0,0-.59-2.86,11.72,11.72,0,0,0-.73-2.29,1.11,1.11,0,0,1-.13-.52.83.83,0,0,1,.18-.55.62.62,0,0,1,.5-.22h.13c.32,0,.59.47.8,1.28s.49,2.46.83,4.92l.37,2.77.16-4c.08-2,.19-3.35.3-4.11A3.66,3.66,0,0,1,284.49,320.13Zm1.91,1.94a6.52,6.52,0,0,0-.67-.63,1.15,1.15,0,0,0-.45-.27c-.34,0-.59,1.41-.77,4.22-.07,1-.11,1.64-.11,1.94a1.85,1.85,0,0,0,.13.83,3.34,3.34,0,0,0,.53.64,2,2,0,0,0,1.08.66,3,3,0,0,0,.86-.24,2.64,2.64,0,0,0,1.26-1.17,3.28,3.28,0,0,0,.58-1.76,4.36,4.36,0,0,0-.72-1.93A12.14,12.14,0,0,0,286.4,322.07Z"/><path d="M291.66,320.88a1.29,1.29,0,0,1,.81-.26.44.44,0,0,1,.18,0,19.7,19.7,0,0,0,2.77.29,10.61,10.61,0,0,1,2.36.22.05.05,0,0,1,0,0c0,.12-.35.26-1,.42a19.07,19.07,0,0,1-2.35.37,12.85,12.85,0,0,0-2.35.38q-.27.15-.27,1.62a11.7,11.7,0,0,0,.2,2.18c.12.46.2.68.24.68s0,0,0-.08q0-.33.6-.33l.64,0c1.34.09,2.28.14,2.81.15a6.29,6.29,0,0,1,2.2.27.36.36,0,0,1,0,.11,1.93,1.93,0,0,1-.83.35,9.93,9.93,0,0,1-1.46.29l-2.07.24A7.81,7.81,0,0,1,293,328a.74.74,0,0,1-.72-.36c-.08-.13-.13-.19-.16-.19s-.11.3-.13.9.05,1.37.16,2.7l.17,1.54h1.37a11.76,11.76,0,0,0,3.8-.9c1-.37,2-.72,3.09-1.07a13.39,13.39,0,0,1,1.93-.53s0,.06,0,.19-1.25.79-3.76,1.83a10,10,0,0,0-1.52.73,5.08,5.08,0,0,1-1.35.59,12.56,12.56,0,0,1-1.9.53l-.44,0a4.16,4.16,0,0,1-1.46-.22l-1-.35-.17-3c-.17-2.78-.29-4.63-.38-5.57a8.31,8.31,0,0,0-.33-1.91,4,4,0,0,1-.24-1.32c0-.36.09-.53.26-.53a1,1,0,0,1,.31,0,.82.82,0,0,0,.24,0A1.46,1.46,0,0,0,291.66,320.88Z"/><path d="M310.71,319.65c.12-.18.24-.26.35-.26.41,0,.82.77,1.21,2.31a19.16,19.16,0,0,1,.6,4.84c0,.08,0,.21,0,.37s0,.28,0,.35a14.87,14.87,0,0,1-.25,2.4,7.2,7.2,0,0,1-.74,1.72,7.32,7.32,0,0,1-1.24,1.82,1.44,1.44,0,0,1-.88.33q-2.08,0-5.19-7.3c-.25-.6-.42-.9-.5-.9a24.79,24.79,0,0,0-.27,4,22.54,22.54,0,0,1-.35,3.68c-.15.55-.43.83-.84.83s-.61-.13-.61-.38a2.64,2.64,0,0,1,.24-.83,6.12,6.12,0,0,0,.45-1.84c.08-.74.19-2.21.32-4.41,0-.77,0-1.32,0-1.67a8.8,8.8,0,0,0-.15-2.12,3.17,3.17,0,0,1-.11-.63.55.55,0,0,1,.22-.49.5.5,0,0,1,.26-.11c.25,0,.51.18.76.55a3.38,3.38,0,0,1,.54,1.3,23.89,23.89,0,0,0,1.7,4.71,16.45,16.45,0,0,0,1.55,2.7c.72,1.09,1.2,1.68,1.44,1.76a.67.67,0,0,0,.31.07c.35,0,.75-.35,1.21-1a6.78,6.78,0,0,0,.84-2.08,13.69,13.69,0,0,0,.26-2.92,15.59,15.59,0,0,0-1.08-5.76,2.1,2.1,0,0,1-.13-.71A.39.39,0,0,1,310.71,319.65Z"/><path d="M317.66,321.19l.82-.15a5.77,5.77,0,0,1,1.08.33q.9.39.9.9a.42.42,0,0,1-.24.44,4.78,4.78,0,0,1-1.21.09h-1.46l.16.9c.17,1.08,1.42,2.72,3.74,4.9A13.51,13.51,0,0,1,322.8,330a1.65,1.65,0,0,1,.28,1v.13a2.08,2.08,0,0,1-.75,1.59,4,4,0,0,1-1.84.9,19.43,19.43,0,0,1-3.42.22,22.35,22.35,0,0,1-2.28-.08,1.32,1.32,0,0,1-.84-.32c-.28-.25-.42-.42-.42-.53a4.63,4.63,0,0,1,.86-1.15c.57-.67.9-1,1-1s.2.28.26.83l.07.84,2.35,0a6.55,6.55,0,0,0,3-.44q.66-.49.66-.66a11,11,0,0,0-1.73-2,24.82,24.82,0,0,1-3.08-3.72,16.24,16.24,0,0,1-1-1.56,1.9,1.9,0,0,1-.26-.86,2,2,0,0,1,.05-.33,1.9,1.9,0,0,1,.65-1.06A2.76,2.76,0,0,1,317.66,321.19Z"/><path d="M324.22,320.62a2.48,2.48,0,0,1,1.25-.24,5.13,5.13,0,0,1,2.4.81c.95.54,1.43,1,1.43,1.36,0,.21-.09.31-.28.31a3.67,3.67,0,0,1-1.06-.31,9.09,9.09,0,0,0-1.74-.52,3.73,3.73,0,0,0-.61-.07c-.15,0-.24,0-.28.1a1,1,0,0,0-.05.43c0,.44.08.69.24.77s.26.66.26,1.78.07,1.63.2,1.65a22,22,0,0,1,3.08.43c1,.21,1.5.4,1.5.56s-.15.3-.44.37a16,16,0,0,1-2.07.25,5.9,5.9,0,0,0-2.36.44,5.19,5.19,0,0,0-.11,1.51v.69a6.72,6.72,0,0,0,.16,1.62c.07.19.25.3.55.33h.15a11.47,11.47,0,0,0,2.22-.28,17.93,17.93,0,0,1,3.46-.53c.39,0,.59.06.59.18s-.19.31-.57.46c-.69.28-1.45.62-2.27,1a5.49,5.49,0,0,0-1.32.76q-.19.24-2.13.24l-.68,0c-.31,0-.46-.18-.46-.53a.44.44,0,0,0-.49-.5c-.34,0-.54-.08-.61-.22a52.63,52.63,0,0,1-.27-6.41c0-1.13,0-2.41,0-3.85a16.63,16.63,0,0,1,.07-2A.93.93,0,0,1,324.22,320.62Z"/></g></g><g id="income"><use id="box-3" data-name="box" width="276" height="175.12" transform="translate(239 107.11)" xlink:href="#Income_Box"/><g id="text-4" data-name="text"><path d="M259,121.1c.06-.1.23-.15.5-.15h.27a.7.7,0,0,1,.61.33,6.41,6.41,0,0,1,.38,1.52,55.31,55.31,0,0,1,.28,7.26,41.27,41.27,0,0,1-.15,4.59c-.09.55-.27.82-.55.82s-.34-.15-.51-.44a5.25,5.25,0,0,1-.24-2c0-.15,0-1.34.05-3.57v-.33a37.48,37.48,0,0,0-.36-5.21,18.59,18.59,0,0,1-.28-2.73Z"/><path d="M270,122.13a.56.56,0,0,1,.48-.28c.49,0,.94.42,1.37,1.27a5.56,5.56,0,0,1,.42,2.42,27.12,27.12,0,0,1-1.35,7.44,17.32,17.32,0,0,1-.91,2.57c-.24.49-.49.73-.76.73a.67.67,0,0,1-.39-.13,3.62,3.62,0,0,1-1.09-1.44c-.36-.73-.86-2-1.51-3.75-.79-2.2-1.22-3.33-1.28-3.39a7.12,7.12,0,0,0-.41,2.24q-.62,4.69-1.13,5.28a1,1,0,0,1-.7.42.53.53,0,0,1-.41-.2.75.75,0,0,1-.16-.5,1.54,1.54,0,0,1,.2-.71,14.83,14.83,0,0,0,.9-3.52,35,35,0,0,0,.53-4.66,7.81,7.81,0,0,1,.37-3,.65.65,0,0,1,.46-.17,1,1,0,0,1,.66.23.65.65,0,0,1,.31.54,2.29,2.29,0,0,0,.29,1.1,4.77,4.77,0,0,1,.39,1.76,23.66,23.66,0,0,0,1,3.89,18.43,18.43,0,0,0,1.4,3.52q.33.51.6.51l.06,0a13.75,13.75,0,0,0,.82-3.24,44,44,0,0,0,.68-4.55c0-.44,0-.74,0-.88a4.5,4.5,0,0,0-.48-2,3.32,3.32,0,0,1-.44-1.34A.33.33,0,0,1,270,122.13Z"/><path d="M278.55,121.65a2.8,2.8,0,0,1,.86-.18.93.93,0,0,1,.88.52,3.89,3.89,0,0,1,.26,1.64,2.71,2.71,0,0,1-.2,1.14c-.13.28-.28.42-.46.42s-.54-.37-.64-1.12c0-.43-.21-.64-.5-.64a6.36,6.36,0,0,0-2.15,1.45,9.18,9.18,0,0,0-2,2A5.87,5.87,0,0,0,274,129a3.19,3.19,0,0,0,.2,1.06,6.82,6.82,0,0,0,1.89,3,4,4,0,0,0,2.71,1.11l.37,0a14.85,14.85,0,0,0,3.53-1.35,13,13,0,0,0,3.16-1.82c.25-.25.43-.37.55-.37s.18.09.18.26a1.54,1.54,0,0,1-.14.53,6.82,6.82,0,0,1-1.77,1.7,5.55,5.55,0,0,1-1.94,1.23,2.59,2.59,0,0,0-1.06.35,8.16,8.16,0,0,1-3.39,1.08,4.08,4.08,0,0,1-2.53-1,10.84,10.84,0,0,1-3.12-5.28,4,4,0,0,1-.05-.7,4.08,4.08,0,0,1,1.41-3.34c.47-.37,1.24-1.08,2.31-2.12A7.1,7.1,0,0,1,278.55,121.65Z"/><path d="M289,123.34a2.49,2.49,0,0,1,1.6-.81,2.71,2.71,0,0,1,1.55.43,1.29,1.29,0,0,1,.68,1c0,.29-.16.44-.47.44a1.09,1.09,0,0,1-.77-.37,1.22,1.22,0,0,0-.74-.46c-.28,0-.74.34-1.37,1a5.49,5.49,0,0,0-1.65,4,7.11,7.11,0,0,0,.4,2.31,6.24,6.24,0,0,0,1.17,2c.6.72,1,1.09,1.34,1.09a.37.37,0,0,1,.39.24c.06.2.4.31,1,.31a4.24,4.24,0,0,0,2.25-.51,4.57,4.57,0,0,0,1.36-1.16,3.11,3.11,0,0,0,.51-1.44,1.9,1.9,0,0,0,0-.3,5.76,5.76,0,0,0-.54-2.23,6.4,6.4,0,0,0-1.29-2,1.43,1.43,0,0,1-.52-.83c0-.17.08-.25.26-.25a1.49,1.49,0,0,1,.75.31,5.32,5.32,0,0,1,1.75,2.11,6.3,6.3,0,0,1,.69,2.78,3.69,3.69,0,0,1-.33,1.58,4.42,4.42,0,0,1-2,2.27,4.67,4.67,0,0,1-2.44.74,4.84,4.84,0,0,1-3.61-1.82,8.9,8.9,0,0,1-1.56-2.32,7.4,7.4,0,0,1-.57-2.65c0-.5-.05-.82-.05-1a5.56,5.56,0,0,1,.62-2.31A8.53,8.53,0,0,1,289,123.34Z"/><path d="M298.06,121.65a.58.58,0,0,1,.62-.37q.38,0,.54.57c.11.38.32,1.57.65,3.56a17.93,17.93,0,0,0,1.44,4.9c.63,1.31,1.24,2,1.81,2a.85.85,0,0,0,.71-.49,18.28,18.28,0,0,0,1.39-3.68,28.62,28.62,0,0,0,1.09-4.48c.12-.87.38-1.3.77-1.3a.56.56,0,0,1,.38.16q.33.29.33,3v.19a33,33,0,0,0,1.38,9.86,4.27,4.27,0,0,1,.24,1.06c0,.17-.05.26-.15.26s-.32-.18-.62-.53a9.44,9.44,0,0,1-1.12-3.2,37.83,37.83,0,0,1-.83-5.22l-.11-1.19-.69,2a24,24,0,0,1-1.32,3.52,2,2,0,0,1-1.16,1,2.51,2.51,0,0,1-.68.13,1.59,1.59,0,0,1-.77-.26,5.74,5.74,0,0,1-1.25-1.74,5.54,5.54,0,0,1-.82-1.94c0-.19-.08-.28-.24-.28s-.24.66-.27,2a11.63,11.63,0,0,1-.3,2.83c-.18.71-.42,1.09-.73,1.15l-.27,0c-.28,0-.41-.13-.41-.37a1.54,1.54,0,0,1,.22-.69,8.25,8.25,0,0,0,.49-2.56c.12-1.33.19-2.75.19-4.26a17.71,17.71,0,0,0-.38-4.53,2.67,2.67,0,0,1-.15-.88A1.1,1.1,0,0,1,298.06,121.65Zm1.59,7.19a.1.1,0,0,0-.11-.11c-.09,0-.14,0-.14.11s.05.11.14.11A.1.1,0,0,0,299.65,128.84Z"/><path d="M313,123.48a10.06,10.06,0,0,1,2.48-.27,4.36,4.36,0,0,1,2.27.38c.18.14.27.23.27.26s-.42.12-1.26.13a13.8,13.8,0,0,0-3.36.49l-1.9.48-.08,1.41-.07,1.41h1.08a15.88,15.88,0,0,0,3.1-.44,9.9,9.9,0,0,1,2-.31q.84,0,.84.42s-.13.14-.39.25a4.47,4.47,0,0,1-.89.27l-1.44.38c-.84.22-1.49.39-1.94.53l-2.12.59.2,1.65a24,24,0,0,0,.33,2.46,4.84,4.84,0,0,1,.13,1.06q0,1.23-.66,1.23a.65.65,0,0,1-.37-.12.33.33,0,0,1-.18-.27c0-.4-.06-.61-.06-.64-.06-.22-.16-1-.29-2.41s-.23-2.58-.29-3.58a12.34,12.34,0,0,0-.5-3.34,4.53,4.53,0,0,1-.22-1.14c0-.58.31-.86.92-.86a5.18,5.18,0,0,1,.53,0,3.56,3.56,0,0,0,.7,0A4.55,4.55,0,0,0,313,123.48Zm5.52,9.17a11.66,11.66,0,0,1,2.29-.81h0q.15,0,.15.06c0,.24-.77.79-2.32,1.65a20.81,20.81,0,0,1-3.86,1.78,3.39,3.39,0,0,1-1,.2c-.51,0-.77-.28-.77-.83a.57.57,0,0,1,.29-.57,8.73,8.73,0,0,1,1.53-.38A15,15,0,0,0,318.52,132.65Z"/></g></g><path id="asset_1" data-name="asset 1" d="M136.07,312.74A315.39,315.39,0,0,1,241,199.67l5.08,7.94L261,182l-30.7,1,5.3,8.27A325.56,325.56,0,0,0,127.3,307.93,339.53,339.53,0,0,0,86,453.71c-2.17,44,4.7,87.43,19.87,125.57,15.65,39.31,39.24,72,70.12,97.27a18.49,18.49,0,1,0,5.68-8.27c-29.23-24.11-51.61-55.26-66.51-92.7C100.53,538.76,93.89,496.79,96,454.2A329.48,329.48,0,0,1,136.07,312.74ZM193.5,674a8.5,8.5,0,1,1-8.5,8.5A8.51,8.51,0,0,1,193.5,674Z"/><path id="asset_2" data-name="asset 2" d="M436.36,301.29c-15-41-38.57-75.19-70.15-101.67l-6.42,7.66C390,232.62,412.61,265.41,427,304.73c13.6,37.21,19,79.36,15.72,121.87a329.64,329.64,0,0,1-44.08,140.27,315.5,315.5,0,0,1-108.09,110l-4.86-8.07L270,694l30.72-.11-5.06-8.42A325.53,325.53,0,0,0,407.24,571.92a339.68,339.68,0,0,0,45.42-144.54C456.08,383.45,450.45,339.85,436.36,301.29Z"/><path id="middle_class" data-name="middle class" d="M660,395l-24-14.62V390H519.48a9.49,9.49,0,0,0-9.48,9.48V696.85L244.68,195.05A9.45,9.45,0,0,0,236.3,190H75v10H236L502.14,703.38a9.33,9.33,0,0,0,8.3,5.06,9.61,9.61,0,0,0,2.36-.3,9.33,9.33,0,0,0,7.2-9.2V400H636v9.62Z"/><polygon id="job" points="660 395 636 380.38 636 390 516.62 390 240.62 190 75 190 75 200 237.38 200 513.38 400 636 400 636 409.62 660 395"/></svg>