<svg id="financial_statement" data-name="financial statement" xmlns="http://www.w3.org/2000/svg" viewBox="0 0 754 928"><defs><style>.cls-1{fill:#f2f2f2;}.cls-2{fill:#fff;}.cls-3{fill:none;stroke:#000;stroke-miterlimit:10;stroke-width:10px;}.cls-4{fill:#48c774;}</style></defs><title>financial statement</title><g id="background"><rect class="cls-1" x="41" y="37.08" width="672" height="853.84"/></g><g id="liability-box"><rect class="cls-2" x="388" y="545" width="175" height="276"/></g><g id="liability-text"><path d="M394.54,557.45a.43.43,0,0,1,.31-.09,2.48,2.48,0,0,1,.69.11c.24.08.37.15.39.22s0,.35.13.91a1.06,1.06,0,0,0,0,.15,1.21,1.21,0,0,1,0,.18,2.67,2.67,0,0,1-.18,1.05,13.54,13.54,0,0,0-.37,2.22c-.07.9-.2,2-.37,3.26q-.27,1.51-.36,2.4c0,.14-.05.42-.12.81l-.12.79a2.22,2.22,0,0,0-.09.58c0,.25.18.47.53.68a1.65,1.65,0,0,0,.66.2,3,3,0,0,0,1-.31,14.45,14.45,0,0,1,3.82-1.23.26.26,0,0,1,.18,0,.15.15,0,0,1,0,.11c0,.37-.79.93-2.38,1.69a9.38,9.38,0,0,1-3.49,1.15l-.26,0a2.08,2.08,0,0,1-1.13-.72,2.58,2.58,0,0,1-.33-1.46,15,15,0,0,1,.25-2.31c.24-1.41.48-3.07.7-5s.33-3.22.33-3.91A5.94,5.94,0,0,1,394.54,557.45Z"/><path d="M402,559a.68.68,0,0,1,.63-.46.76.76,0,0,1,.58.31c.16.22.25,2,.28,5.21a32.35,32.35,0,0,0,.4,6.45,7.64,7.64,0,0,1,.26,1.45c0,.25-.09.38-.26.38a.55.55,0,0,1-.25-.05c-.68-.28-1.12-2.54-1.29-6.77a42.9,42.9,0,0,0-.38-5,3.63,3.63,0,0,1-.08-.84A1.4,1.4,0,0,1,402,559Z"/><path d="M410.86,558.24a1.31,1.31,0,0,1,.14-.7.55.55,0,0,1,.5-.2l.33,0a.58.58,0,0,1,.52.29,8.7,8.7,0,0,1,.21,1.45,9.45,9.45,0,0,0,.53,2.75c.2.54.6,1.83,1.18,3.85s.94,3.26,1,3.7a11.18,11.18,0,0,0,.5,1.65,5.14,5.14,0,0,0,.57,1.23.52.52,0,0,1,.12.33,1,1,0,0,1-.24.64.64.64,0,0,1-.51.3c-.22,0-.57-.24-1.06-.74s-.73-.86-.73-1.08-.51-1-1.55-2.11a8.46,8.46,0,0,0-2.16-1.94,1.55,1.55,0,0,1-.66-.43,1,1,0,0,1-.16-.63v-.7l1.71.17,1.7.14-.13-1a6.91,6.91,0,0,0-.5-1.58,6.54,6.54,0,0,1-.51-1.63c-.12-.57-.24-.86-.37-.86s-.25.17-.36.51a19.07,19.07,0,0,1-.94,2.22,39.17,39.17,0,0,0-2.14,5.14,5.5,5.5,0,0,1-.78,1.85c-.4.66-.74,1-1,1.13a3.54,3.54,0,0,1-.44.08c-.32,0-.48-.15-.48-.46a1.94,1.94,0,0,1,.52-1.12,12.3,12.3,0,0,0,1.1-1.87,7,7,0,0,0,.73-1.65,2.86,2.86,0,0,1,.35-.92C409.87,561.59,410.86,559,410.86,558.24Zm2.49,9c-.12-.25-.23-.37-.33-.37a.91.91,0,0,0-.46.2c-.15.1-.22.19-.22.26a.82.82,0,0,0,.17.33c.24.28.45.42.64.42s.31-.13.31-.37A1.47,1.47,0,0,0,413.35,567.26Z"/><path d="M418.56,557.36h.22a11.1,11.1,0,0,1,1.13.11,3.13,3.13,0,0,1,1,.43c.29.2.78.61,1.47,1.22a2.67,2.67,0,0,1,.46,1.61,4.85,4.85,0,0,1,.07.77,2.67,2.67,0,0,1-.44,1.45l-.51.86,1.08.88a5.7,5.7,0,0,0,1.23.88q.19,0,1.38,1.32a8.73,8.73,0,0,1,1.28,1.63,1.19,1.19,0,0,1,.05.28,3,3,0,0,1-1.39,2.14,7.52,7.52,0,0,1-3.17,1.47,17.2,17.2,0,0,1-2.64.44,2.16,2.16,0,0,1-.74-.15,1.8,1.8,0,0,1-1.3-1.81,2.73,2.73,0,0,1,.42-1.41c.26-.45.47-.68.63-.68s.16.11.16.33a2.18,2.18,0,0,1-.07.49,3.85,3.85,0,0,0-.06.66c0,.58.14.87.41.87a.28.28,0,0,0,.14,0c.23-.07.35,0,.35.14s.12.15.37.15a4.19,4.19,0,0,0,.68-.07,12.79,12.79,0,0,0,2-.43c.62-.18.93-.31.93-.4s.17-.17.52-.2a2,2,0,0,0,1.05-.61c.43-.38.65-.68.65-.89s-.52-.72-1.54-1.64a31.33,31.33,0,0,0-2.82-2.25c-1-.63-1.45-1.15-1.45-1.56s.22-.42.66-.47a1.14,1.14,0,0,0,.84-.54,2,2,0,0,0,.35-1.13,2.18,2.18,0,0,0-.5-1.25,3.16,3.16,0,0,0-2.1-1.28c-.29,0-.49.19-.59.56a9.93,9.93,0,0,0-.18,2,24.41,24.41,0,0,1-.44,5.59.55.55,0,0,1-.55.41.64.64,0,0,1-.43-.17.9.9,0,0,1-.29-.49,6.05,6.05,0,0,1-.05-.92c0-1.1.05-2.29.16-3.56s.2-2.4.3-3a3.06,3.06,0,0,1,.44-1.28A1.31,1.31,0,0,1,418.56,557.36Z"/><path d="M428.18,559a.69.69,0,0,1,.63-.46.76.76,0,0,1,.58.31c.16.22.25,2,.28,5.21a32.35,32.35,0,0,0,.4,6.45,6.88,6.88,0,0,1,.26,1.45c0,.25-.08.38-.26.38a.54.54,0,0,1-.24-.05q-1-.42-1.3-6.77a43.78,43.78,0,0,0-.37-5,3.61,3.61,0,0,1-.09-.84A1.4,1.4,0,0,1,428.18,559Z"/><path d="M433.41,557.34a1,1,0,0,1,.8-.29c.38,0,.61.1.7.29a.51.51,0,0,1,0,.16,7.08,7.08,0,0,1-.3,1.56,7.43,7.43,0,0,1-.54,1.56,2,2,0,0,0-.26,1.06c0,.42-.09.66-.26.7s-.43.61-.65,1.61a12.44,12.44,0,0,0-.34,2.81,5.75,5.75,0,0,0,.12,1.41,1.79,1.79,0,0,0,.51.79,1.6,1.6,0,0,0,1.06.64l.55,0a10.14,10.14,0,0,0,2.53-.28,7.28,7.28,0,0,1,2-.25c.82,0,1.23.1,1.23.29s-.86.56-2.59,1.12a14.23,14.23,0,0,1-3.5.84,2.53,2.53,0,0,1-1.67-.65,4.47,4.47,0,0,1-1.2-1.77,6,6,0,0,1-.3-2.11,18.35,18.35,0,0,1,.72-4.65c.33-1.17.6-2.26.84-3.27A6.07,6.07,0,0,1,433.41,557.34Z"/><path d="M442,558.46a1.61,1.61,0,0,1,.55,0,.77.77,0,0,1,.75.55,4.54,4.54,0,0,1,.15,1.36,2.52,2.52,0,0,1-.2,1.28,14.92,14.92,0,0,0-.22,3V565c0,1,.07,2.22.21,3.62a9.67,9.67,0,0,0,.39,2.39,1.08,1.08,0,0,1,.18.5c0,.18-.1.27-.29.27a.8.8,0,0,1-.31-.07c-.32-.13-.61-.58-.86-1.36a11.18,11.18,0,0,1-.46-2.77c-.07-1.62-.11-3.1-.11-4.47A26.24,26.24,0,0,1,442,558.46Z"/><path d="M444.88,558.66c.05-.19.22-.28.5-.28a1.83,1.83,0,0,1,.44,0c1.1.22,1.91.37,2.44.46a2.27,2.27,0,0,1,.73.22,22.34,22.34,0,0,0,2.4.42,26.29,26.29,0,0,1,4,.86,15.84,15.84,0,0,0,2.18.59.8.8,0,0,1,.52.13.29.29,0,0,1,.11.2c0,.12-.17.18-.53.18a16.84,16.84,0,0,1-2-.2c-1.4-.22-2.66-.37-3.78-.46l-1.45-.13-.09,3.65c-.06,2.26-.09,4-.09,5.23v.8c0,1.56-.1,2.39-.31,2.46a.33.33,0,0,1-.48-.15,48.41,48.41,0,0,1-.2-6c0-2.76-.06-4.47-.13-5.14s-.29-1-.64-1l-.37.05c-.29.06-.44,0-.44-.16s-.18-.22-.53-.13a.94.94,0,0,1-.26,0,3.08,3.08,0,0,1-1.21-.29c-.44-.2-.71-.41-.79-.63a.93.93,0,0,1-.05-.37A1.07,1.07,0,0,1,444.88,558.66Z"/><path d="M458.49,558.07a.39.39,0,0,1,.38-.18,1.05,1.05,0,0,1,.6.23,1.09,1.09,0,0,1,.41.54,16.69,16.69,0,0,0,1,3.41,1.93,1.93,0,0,1,.24.84,2.15,2.15,0,0,0,.44.9c.3.42.55.64.75.64a.23.23,0,0,0,.18-.07,1,1,0,0,1,.72-.28c.33,0,.49.1.49.3s0,.14.09.14.33-.18.61-.54a5,5,0,0,0,.68-1.16c.55-1.25.9-2.12,1.06-2.62a5.26,5.26,0,0,0,.26-1.51c0-.56.17-.84.4-.84s.34.19.51.57a1.42,1.42,0,0,1,.06.44,7.15,7.15,0,0,1-.75,2.64,16.69,16.69,0,0,1-1.71,3c-.65.89-1.17,1.34-1.56,1.34-.11,0-.23.08-.37.25a2.28,2.28,0,0,0-.34.59,13.42,13.42,0,0,0-1,4.35,1.68,1.68,0,0,0,.38,1.3c.19.18.28.32.28.42s-.1.22-.31.22a1.21,1.21,0,0,1-.72-.29,1.4,1.4,0,0,1-.54-.65,4.54,4.54,0,0,1-.14-1.26,11.84,11.84,0,0,1,.57-3.32l.55-1.9-.57-.5a4,4,0,0,1-.81-1.17q-.31-.68-1.17-3.21a11.26,11.26,0,0,1-.73-2.6l0,0Z"/></g><g id="asset-box"><rect class="cls-2" x="192" y="545" width="175" height="276"/></g><g id="asset-text"><path d="M209.73,557.34a.63.63,0,0,1,.12-.46.78.78,0,0,1,.48-.11c.42,0,.67.13.75.4a4.77,4.77,0,0,0,.3.79,5,5,0,0,1,.38,1.43,14.64,14.64,0,0,0,.48,2.15c.71,2.47,1.09,4,1.17,4.54a13.23,13.23,0,0,0,.77,3.27,3.63,3.63,0,0,1,.31,1.35,1.56,1.56,0,0,1-.22.88c-.11.14-.19.21-.25.21a1.53,1.53,0,0,1-.71-.43l-2.17-1.92a16.62,16.62,0,0,0-3-2.31c-.53-.22-.79-.52-.79-.9a.79.79,0,0,1,.46-.83,7.08,7.08,0,0,1,2-.18l1.94,0-.09-.66c-.06-.43-.15-.64-.28-.64s-.19-.18-.22-.55a9,9,0,0,0-.2-1.56c-.12-.51-.23-.77-.33-.77s-.22-.12-.22-.35a.31.31,0,0,0-.35-.35.63.63,0,0,0-.53.28,17.48,17.48,0,0,0-1.65,3.17,11.35,11.35,0,0,1-1.07,1.77,7.88,7.88,0,0,1-1.18,1.46,4.6,4.6,0,0,0-.52.84,30.12,30.12,0,0,1-1.82,3.09c-.61.89-1,1.38-1.31,1.46a1.25,1.25,0,0,1-.26.05.64.64,0,0,1-.42-.15.42.42,0,0,1-.18-.34.39.39,0,0,1,.09-.26c.15-.18.68-1,1.61-2.35s1.46-2.18,1.6-2.36a6.67,6.67,0,0,0,.8-1.32,9.72,9.72,0,0,1,1.16-1.76,20,20,0,0,0,2.06-3.48A11,11,0,0,0,209.73,557.34Zm2.56,9.26q-.28-.72-.42-.72a6.1,6.1,0,0,0-1,.35,3.93,3.93,0,0,0-.81.39.22.22,0,0,0-.06.14c0,.23.57.82,1.71,1.76l1.17,1-.18-1.08A8.71,8.71,0,0,0,212.29,566.6Z"/><path d="M217.08,558.84a4.19,4.19,0,0,1,.95-.18,1.28,1.28,0,0,1,.77.29.53.53,0,0,1,.26.39c0,.25-.24.38-.72.38a2.3,2.3,0,0,0-1.21.39,1.52,1.52,0,0,0-.75.84.69.69,0,0,0,0,.24,2,2,0,0,0,.5,1.15,23.86,23.86,0,0,0,1.83,2,26,26,0,0,1,2.8,3.12,3.77,3.77,0,0,1,.87,2c0,.68-.45,1.28-1.36,1.81a3.22,3.22,0,0,1-.87.37,5.51,5.51,0,0,1-1.16.09l-1.16,0a11.62,11.62,0,0,1-2.33-.23c-.47-.13-.71-.33-.71-.61s.3-.78.9-1.43a7.16,7.16,0,0,1,1.51-1.19,3.15,3.15,0,0,1,1.35-.57.22.22,0,0,1,.16.05c.07.1,0,.19-.2.26a4.54,4.54,0,0,0-1.3,1.07c-.59.61-.88,1-.88,1.2a.37.37,0,0,0,.28.36,3.79,3.79,0,0,0,1,.1l1.3-.05a3.83,3.83,0,0,0,1.8-.35,1.33,1.33,0,0,0,.55-1.12v-.26a2.23,2.23,0,0,0-.55-1.37c-.5-.61-1-1.17-1.44-1.66s-.73-.74-.82-.74a5.92,5.92,0,0,1-1.32-1.23,15.31,15.31,0,0,1-1.54-1.8,2.06,2.06,0,0,1-.35-1.15,2,2,0,0,1,.49-1.29A2.69,2.69,0,0,1,217.08,558.84Z"/><path d="M226.81,559.19l.81-.15a5.35,5.35,0,0,1,1.08.33q.9.39.9.9a.42.42,0,0,1-.24.44,4.91,4.91,0,0,1-1.21.08H226.7l.15.91c.18,1.08,1.42,2.72,3.74,4.9a13.51,13.51,0,0,1,1.35,1.42,1.58,1.58,0,0,1,.28,1v.13a2.08,2.08,0,0,1-.75,1.59,4,4,0,0,1-1.84.9,19.43,19.43,0,0,1-3.42.22,22.35,22.35,0,0,1-2.28-.08,1.35,1.35,0,0,1-.84-.32c-.28-.25-.42-.42-.42-.53a5,5,0,0,1,.86-1.15c.57-.67.9-1,1-1s.2.28.26.83l.07.84,2.35,0a6.6,6.6,0,0,0,3-.44q.66-.5.66-.66a10.88,10.88,0,0,0-1.74-2,25.33,25.33,0,0,1-3.08-3.72c-.49-.72-.81-1.24-1-1.56a1.87,1.87,0,0,1-.25-.86,1.77,1.77,0,0,1,0-.33,1.9,1.9,0,0,1,.65-1.06A2.75,2.75,0,0,1,226.81,559.19Z"/><path d="M234.48,558.55a4.84,4.84,0,0,1,.84-.06c.54,0,1.81.09,3.81.28,1.11.1,1.67.27,1.67.51a.33.33,0,0,1-.31.37l-.81.11a18,18,0,0,1-2.27.13,4.8,4.8,0,0,0-2.37.41,2,2,0,0,0-.53,1.68v.71a.93.93,0,0,0,.14.47.7.7,0,0,0,.28.32,5.66,5.66,0,0,0,.62.18,6.17,6.17,0,0,0,.92.13l1.45.09c1.05.07,1.74.14,2.07.2s.5.19.5.37-.13.26-.39.36a9.3,9.3,0,0,1-1.48.34,16.48,16.48,0,0,1-2.82.31h-.13l-1-.07.16,1.94c.1,1.41.24,2.11.41,2.11s.14-.07.25-.22a.47.47,0,0,1,.44-.18,2,2,0,0,1,.33.05,28.15,28.15,0,0,0,4.22.26c1.44.06,2.39.12,2.87.18s.72.16.72.31-.06.35-.18.35a16.85,16.85,0,0,0-1.72.26,28.83,28.83,0,0,1-4.15.35l-2.64.09-.07.77a1.73,1.73,0,0,1-.13.6.33.33,0,0,1-.31.15h-.2c-.38-.06-.57-.19-.57-.4a2.4,2.4,0,0,0-.07-.38,3,3,0,0,1-.06-.52v-.2a.66.66,0,0,1,0-.11.86.86,0,0,0,0-.15,16.15,16.15,0,0,0-.29-2.49,5.84,5.84,0,0,0-.46-1.82A2.1,2.1,0,0,1,233,565a11,11,0,0,0-.29-2.16,7.92,7.92,0,0,1-.22-1.69,2.55,2.55,0,0,1,.69-1.87A2.19,2.19,0,0,1,234.48,558.55Z"/><path d="M244.41,558.66c.05-.19.22-.28.5-.28a1.83,1.83,0,0,1,.44,0c1.1.22,1.92.37,2.44.46a2.27,2.27,0,0,1,.73.22,22.34,22.34,0,0,0,2.4.42,26.29,26.29,0,0,1,4,.86,15.84,15.84,0,0,0,2.18.59.78.78,0,0,1,.52.13.29.29,0,0,1,.11.2c0,.12-.17.18-.52.18a16.46,16.46,0,0,1-2-.2c-1.41-.22-2.67-.37-3.79-.46l-1.45-.13-.09,3.65c-.06,2.26-.09,4-.09,5.23v.8c0,1.56-.1,2.39-.3,2.46a.35.35,0,0,1-.49-.15,48.41,48.41,0,0,1-.2-6c0-2.76-.06-4.47-.13-5.14s-.28-1-.64-1l-.37.05c-.29.06-.44,0-.44-.16s-.18-.22-.53-.13a.94.94,0,0,1-.26,0,3.08,3.08,0,0,1-1.21-.29c-.44-.2-.71-.41-.79-.63a.93.93,0,0,1,0-.37A1.07,1.07,0,0,1,244.41,558.66Z"/></g><g id="expense-box"><rect class="cls-2" x="240" y="308" width="276" height="175"/></g><g id="expense-text"><path d="M258.75,320a2.43,2.43,0,0,1,.42,0A16.69,16.69,0,0,1,262.8,321q1.47.56,1.47.84c0,.13-.26.2-.79.2a16.16,16.16,0,0,1-2.11-.2,9.87,9.87,0,0,0-1.17-.11.85.85,0,0,0-.33,0,7.18,7.18,0,0,0-.29,2.53l-.06,2.34,2.57-.09c.25,0,.58,0,1,0,1.16,0,1.74.09,1.74.28s-.34.29-1,.49a20,20,0,0,0-3.41,1.14,1.31,1.31,0,0,0-.35.92c0,1.68.25,2.51.74,2.51a28.46,28.46,0,0,0,5.26-1.3,13,13,0,0,1,1.65-.44c.09,0,.13.06.13.18v.11c0,.19-.28.44-.85.74a3.27,3.27,0,0,1-1.39.45,1,1,0,0,0-.79.39,5.68,5.68,0,0,1-1.63,1,5.59,5.59,0,0,1-1.78.65c-.25,0-.46.21-.64.62a.77.77,0,0,1-.7.57h-.11c-.43-.06-.77-.75-1-2.07a49.76,49.76,0,0,1-.6-6.25c-.1-1.8-.16-3.22-.16-4.26a7.22,7.22,0,0,1,.14-1.73C258.37,320.2,258.53,320,258.75,320Z"/><path d="M274.83,327.9c0,.09.13.28.38.58s.39.5.39.61.12.3.37.46a1.11,1.11,0,0,1,.51.81,6.81,6.81,0,0,0,1.09,1.74,5.69,5.69,0,0,0,1.33,1.48c.15,0,.22.24.22.59s-.12.46-.37.46a2.55,2.55,0,0,1-1.46-.88,5.57,5.57,0,0,0-1.49-1.12,5.83,5.83,0,0,1-1-.48,7.18,7.18,0,0,0-3-1.17,1.16,1.16,0,0,0-.84.29,2.64,2.64,0,0,1-1.82.7c-.5,0-.82-.13-1-.4a.66.66,0,0,1-.11-.35.75.75,0,0,1,.29-.59.94.94,0,0,1,.68-.27c.31,0,.46-.08.46-.24a.29.29,0,0,1,.05-.17.14.14,0,0,1,.15-.05h.13a2.89,2.89,0,0,0,1.22-.39c.51-.27.79-.5.85-.71a1,1,0,0,1,.11-.23.38.38,0,0,1,.12-.13s.06,0,.08,0h0a.89.89,0,0,0,.55-.33,1.06,1.06,0,0,0,.33-.77c0-.34-.13-.51-.4-.51s-.16-.08-.08-.24,0-.34-.25-.42-.26-.13-.27-.17.05-.11.19-.2a.92.92,0,0,0,.16-.13s0-.05,0-.07a1,1,0,0,0-.23,0,.48.48,0,0,1-.34-.19,1.28,1.28,0,0,1-.3-.43,10.83,10.83,0,0,0-2.27-3.1c-.52-.56-.79-1-.79-1.25s.13-.33.38-.42a2.09,2.09,0,0,1,.79-.15c.31,0,.46.05.46.17a.17.17,0,0,1,0,.09s0,0,0,.07a3.64,3.64,0,0,0,.81,1.51,29.41,29.41,0,0,1,1.67,2.45,8.75,8.75,0,0,0,1.19,1.69l.53.57,1.25-1.21a20.23,20.23,0,0,0,2.25-2.59,6.44,6.44,0,0,0,1.25-2.07,1.9,1.9,0,0,1,.55-1c.35-.44.56-.66.62-.66s0,0,0,.09,0,.12,0,.33a10,10,0,0,1-1.35,2.91,22.86,22.86,0,0,1-2.37,3.38A13.25,13.25,0,0,0,274.83,327.9Zm-.24,1.8a1.44,1.44,0,0,0-.31-.63.39.39,0,0,0-.29-.2c-.11,0-.37.22-.77.66s-.61.76-.61.92.54.42,1.61.77a15.17,15.17,0,0,0,1.8.53s.06,0,.06,0a4.36,4.36,0,0,0-.74-1C274.84,330.19,274.59,329.84,274.59,329.7Z"/><path d="M284.49,320.13a.65.65,0,0,1,.48-.3c.35,0,1,.55,2,1.65,1.84,2,2.75,3.75,2.75,5.1a4.28,4.28,0,0,1-.83,2.42,3.59,3.59,0,0,1-2.82,1.85,1.62,1.62,0,0,1-.81-.2.94.94,0,0,0-.38-.15q-.15,0-.18.3a13.36,13.36,0,0,0,0,1.39,8.34,8.34,0,0,1-.14,1.94c-.09.33-.28.5-.56.5h0q-.69,0-.84-1.05-.81-4.14-1-6.21a23.22,23.22,0,0,0-.59-2.86,11.72,11.72,0,0,0-.73-2.29,1.11,1.11,0,0,1-.13-.52.83.83,0,0,1,.18-.55.62.62,0,0,1,.5-.22h.13c.32,0,.59.47.8,1.28s.49,2.46.83,4.92l.37,2.77.16-4c.08-2,.19-3.35.3-4.11A3.66,3.66,0,0,1,284.49,320.13Zm1.91,1.94a6.52,6.52,0,0,0-.67-.63,1.15,1.15,0,0,0-.45-.27c-.34,0-.59,1.41-.77,4.22-.07,1-.11,1.64-.11,1.94a1.85,1.85,0,0,0,.13.83,3.34,3.34,0,0,0,.53.64,2,2,0,0,0,1.08.66,3,3,0,0,0,.86-.24,2.64,2.64,0,0,0,1.26-1.17,3.28,3.28,0,0,0,.58-1.76,4.36,4.36,0,0,0-.72-1.93A12.14,12.14,0,0,0,286.4,322.07Z"/><path d="M291.66,320.88a1.29,1.29,0,0,1,.81-.26.44.44,0,0,1,.18,0,19.7,19.7,0,0,0,2.77.29,10.61,10.61,0,0,1,2.36.22.05.05,0,0,1,0,0c0,.12-.35.26-1,.42a19.07,19.07,0,0,1-2.35.37,12.85,12.85,0,0,0-2.35.38q-.27.15-.27,1.62a11.7,11.7,0,0,0,.2,2.18c.12.46.2.68.24.68s0,0,0-.08q0-.33.6-.33l.64,0c1.34.09,2.28.14,2.81.15a6.29,6.29,0,0,1,2.2.27.36.36,0,0,1,0,.11,1.93,1.93,0,0,1-.83.35,9.93,9.93,0,0,1-1.46.29l-2.07.24A7.81,7.81,0,0,1,293,328a.74.74,0,0,1-.72-.36c-.08-.13-.13-.19-.16-.19s-.11.3-.13.9.05,1.37.16,2.7l.17,1.54h1.37a11.76,11.76,0,0,0,3.8-.9c1-.37,2-.72,3.09-1.07a13.39,13.39,0,0,1,1.93-.53s0,.06,0,.19-1.25.79-3.76,1.83a10,10,0,0,0-1.52.73,5.08,5.08,0,0,1-1.35.59,12.56,12.56,0,0,1-1.9.53l-.44,0a4.16,4.16,0,0,1-1.46-.22l-1-.35-.17-3c-.17-2.78-.29-4.63-.38-5.57a8.31,8.31,0,0,0-.33-1.91,4,4,0,0,1-.24-1.32c0-.36.09-.53.26-.53a1,1,0,0,1,.31,0,.82.82,0,0,0,.24,0A1.46,1.46,0,0,0,291.66,320.88Z"/><path d="M310.71,319.65c.12-.18.24-.26.35-.26.41,0,.82.77,1.21,2.31a19.16,19.16,0,0,1,.6,4.84c0,.08,0,.21,0,.37s0,.28,0,.35a14.87,14.87,0,0,1-.25,2.4,7.2,7.2,0,0,1-.74,1.72,7.32,7.32,0,0,1-1.24,1.82,1.44,1.44,0,0,1-.88.33q-2.08,0-5.19-7.3c-.25-.6-.42-.9-.5-.9a24.79,24.79,0,0,0-.27,4,22.54,22.54,0,0,1-.35,3.68c-.15.55-.43.83-.84.83s-.61-.13-.61-.38a2.64,2.64,0,0,1,.24-.83,6.12,6.12,0,0,0,.45-1.84c.08-.74.19-2.21.32-4.41,0-.77,0-1.32,0-1.67a8.8,8.8,0,0,0-.15-2.12,3.17,3.17,0,0,1-.11-.63.55.55,0,0,1,.22-.49.5.5,0,0,1,.26-.11c.25,0,.51.18.76.55a3.38,3.38,0,0,1,.54,1.3,23.89,23.89,0,0,0,1.7,4.71,16.45,16.45,0,0,0,1.55,2.7c.72,1.09,1.2,1.68,1.44,1.76a.67.67,0,0,0,.31.07c.35,0,.75-.35,1.21-1a6.78,6.78,0,0,0,.84-2.08,13.69,13.69,0,0,0,.26-2.92,15.59,15.59,0,0,0-1.08-5.76,2.1,2.1,0,0,1-.13-.71A.39.39,0,0,1,310.71,319.65Z"/><path d="M317.66,321.19l.82-.15a5.77,5.77,0,0,1,1.08.33q.9.39.9.9a.42.42,0,0,1-.24.44,4.78,4.78,0,0,1-1.21.09h-1.46l.16.9c.17,1.08,1.42,2.72,3.74,4.9A13.51,13.51,0,0,1,322.8,330a1.65,1.65,0,0,1,.28,1v.13a2.08,2.08,0,0,1-.75,1.59,4,4,0,0,1-1.84.9,19.43,19.43,0,0,1-3.42.22,22.35,22.35,0,0,1-2.28-.08,1.32,1.32,0,0,1-.84-.32c-.28-.25-.42-.42-.42-.53a4.63,4.63,0,0,1,.86-1.15c.57-.67.9-1,1-1s.2.28.26.83l.07.84,2.35,0a6.55,6.55,0,0,0,3-.44q.66-.49.66-.66a11,11,0,0,0-1.73-2,24.82,24.82,0,0,1-3.08-3.72,16.24,16.24,0,0,1-1-1.56,1.9,1.9,0,0,1-.26-.86,2,2,0,0,1,.05-.33,1.9,1.9,0,0,1,.65-1.06A2.76,2.76,0,0,1,317.66,321.19Z"/><path d="M324.22,320.62a2.48,2.48,0,0,1,1.25-.24,5.13,5.13,0,0,1,2.4.81c.95.54,1.43,1,1.43,1.36,0,.21-.09.31-.28.31a3.67,3.67,0,0,1-1.06-.31,9.09,9.09,0,0,0-1.74-.52,3.73,3.73,0,0,0-.61-.07c-.15,0-.24,0-.28.1a1,1,0,0,0-.05.43c0,.44.08.69.24.77s.26.66.26,1.78.07,1.63.2,1.65a22,22,0,0,1,3.08.43c1,.21,1.5.4,1.5.56s-.15.3-.44.37a16,16,0,0,1-2.07.25,5.9,5.9,0,0,0-2.36.44,5.19,5.19,0,0,0-.11,1.51v.69a6.72,6.72,0,0,0,.16,1.62c.07.19.25.3.55.33h.15a11.47,11.47,0,0,0,2.22-.28,17.93,17.93,0,0,1,3.46-.53c.39,0,.59.06.59.18s-.19.31-.57.46c-.69.28-1.45.62-2.27,1a5.49,5.49,0,0,0-1.32.76q-.19.24-2.13.24l-.68,0c-.31,0-.46-.18-.46-.53a.44.44,0,0,0-.49-.5c-.34,0-.54-.08-.61-.22a52.63,52.63,0,0,1-.27-6.41c0-1.13,0-2.41,0-3.85a16.63,16.63,0,0,1,.07-2A.93.93,0,0,1,324.22,320.62Z"/></g><g id="income-box"><rect class="cls-2" x="239" y="107.11" width="276" height="175.12"/></g><g id="income-text"><path d="M259,121.1c.06-.1.23-.15.5-.15h.27a.7.7,0,0,1,.61.33,6.41,6.41,0,0,1,.38,1.52,55.31,55.31,0,0,1,.28,7.26,41.27,41.27,0,0,1-.15,4.59c-.09.55-.27.82-.55.82s-.34-.15-.51-.44a5.25,5.25,0,0,1-.24-2c0-.15,0-1.34.05-3.57v-.33a37.48,37.48,0,0,0-.36-5.21,18.59,18.59,0,0,1-.28-2.73Z"/><path d="M270,122.13a.56.56,0,0,1,.48-.28c.49,0,.94.42,1.37,1.27a5.56,5.56,0,0,1,.42,2.42,27.12,27.12,0,0,1-1.35,7.44,17.32,17.32,0,0,1-.91,2.57c-.24.49-.49.73-.76.73a.67.67,0,0,1-.39-.13,3.62,3.62,0,0,1-1.09-1.44c-.36-.73-.86-2-1.51-3.75-.79-2.2-1.22-3.33-1.28-3.39a7.12,7.12,0,0,0-.41,2.24q-.62,4.69-1.13,5.28a1,1,0,0,1-.7.42.53.53,0,0,1-.41-.2.75.75,0,0,1-.16-.5,1.54,1.54,0,0,1,.2-.71,14.83,14.83,0,0,0,.9-3.52,35,35,0,0,0,.53-4.66,7.81,7.81,0,0,1,.37-3,.65.65,0,0,1,.46-.17,1,1,0,0,1,.66.23.65.65,0,0,1,.31.54,2.29,2.29,0,0,0,.29,1.1,4.77,4.77,0,0,1,.39,1.76,23.66,23.66,0,0,0,1,3.89,18.43,18.43,0,0,0,1.4,3.52q.33.51.6.51l.06,0a13.75,13.75,0,0,0,.82-3.24,44,44,0,0,0,.68-4.55c0-.44,0-.74,0-.88a4.5,4.5,0,0,0-.48-2,3.32,3.32,0,0,1-.44-1.34A.33.33,0,0,1,270,122.13Z"/><path d="M278.55,121.65a2.8,2.8,0,0,1,.86-.18.93.93,0,0,1,.88.52,3.89,3.89,0,0,1,.26,1.64,2.71,2.71,0,0,1-.2,1.14c-.13.28-.28.42-.46.42s-.54-.37-.64-1.12c0-.43-.21-.64-.5-.64a6.36,6.36,0,0,0-2.15,1.45,9.18,9.18,0,0,0-2,2A5.87,5.87,0,0,0,274,129a3.19,3.19,0,0,0,.2,1.06,6.82,6.82,0,0,0,1.89,3,4,4,0,0,0,2.71,1.11l.37,0a14.85,14.85,0,0,0,3.53-1.35,13,13,0,0,0,3.16-1.82c.25-.25.43-.37.55-.37s.18.09.18.26a1.54,1.54,0,0,1-.14.53,6.82,6.82,0,0,1-1.77,1.7,5.55,5.55,0,0,1-1.94,1.23,2.59,2.59,0,0,0-1.06.35,8.16,8.16,0,0,1-3.39,1.08,4.08,4.08,0,0,1-2.53-1,10.84,10.84,0,0,1-3.12-5.28,4,4,0,0,1-.05-.7,4.08,4.08,0,0,1,1.41-3.34c.47-.37,1.24-1.08,2.31-2.12A7.1,7.1,0,0,1,278.55,121.65Z"/><path d="M289,123.34a2.49,2.49,0,0,1,1.6-.81,2.71,2.71,0,0,1,1.55.43,1.29,1.29,0,0,1,.68,1c0,.29-.16.44-.47.44a1.09,1.09,0,0,1-.77-.37,1.22,1.22,0,0,0-.74-.46c-.28,0-.74.34-1.37,1a5.49,5.49,0,0,0-1.65,4,7.11,7.11,0,0,0,.4,2.31,6.24,6.24,0,0,0,1.17,2c.6.72,1,1.09,1.34,1.09a.37.37,0,0,1,.39.24c.06.2.4.31,1,.31a4.24,4.24,0,0,0,2.25-.51,4.57,4.57,0,0,0,1.36-1.16,3.11,3.11,0,0,0,.51-1.44,1.9,1.9,0,0,0,0-.3,5.76,5.76,0,0,0-.54-2.23,6.4,6.4,0,0,0-1.29-2,1.43,1.43,0,0,1-.52-.83c0-.17.08-.25.26-.25a1.49,1.49,0,0,1,.75.31,5.32,5.32,0,0,1,1.75,2.11,6.3,6.3,0,0,1,.69,2.78,3.69,3.69,0,0,1-.33,1.58,4.42,4.42,0,0,1-2,2.27,4.67,4.67,0,0,1-2.44.74,4.84,4.84,0,0,1-3.61-1.82,8.9,8.9,0,0,1-1.56-2.32,7.4,7.4,0,0,1-.57-2.65c0-.5-.05-.82-.05-1a5.56,5.56,0,0,1,.62-2.31A8.53,8.53,0,0,1,289,123.34Z"/><path d="M298.06,121.65a.58.58,0,0,1,.62-.37q.38,0,.54.57c.11.38.32,1.57.65,3.56a17.93,17.93,0,0,0,1.44,4.9c.63,1.31,1.24,2,1.81,2a.85.85,0,0,0,.71-.49,18.28,18.28,0,0,0,1.39-3.68,28.62,28.62,0,0,0,1.09-4.48c.12-.87.38-1.3.77-1.3a.56.56,0,0,1,.38.16q.33.29.33,3v.19a33,33,0,0,0,1.38,9.86,4.27,4.27,0,0,1,.24,1.06c0,.17-.05.26-.15.26s-.32-.18-.62-.53a9.44,9.44,0,0,1-1.12-3.2,37.83,37.83,0,0,1-.83-5.22l-.11-1.19-.69,2a24,24,0,0,1-1.32,3.52,2,2,0,0,1-1.16,1,2.51,2.51,0,0,1-.68.13,1.59,1.59,0,0,1-.77-.26,5.74,5.74,0,0,1-1.25-1.74,5.54,5.54,0,0,1-.82-1.94c0-.19-.08-.28-.24-.28s-.24.66-.27,2a11.63,11.63,0,0,1-.3,2.83c-.18.71-.42,1.09-.73,1.15l-.27,0c-.28,0-.41-.13-.41-.37a1.54,1.54,0,0,1,.22-.69,8.25,8.25,0,0,0,.49-2.56c.12-1.33.19-2.75.19-4.26a17.71,17.71,0,0,0-.38-4.53,2.67,2.67,0,0,1-.15-.88A1.1,1.1,0,0,1,298.06,121.65Zm1.59,7.19a.1.1,0,0,0-.11-.11c-.09,0-.14,0-.14.11s.05.11.14.11A.1.1,0,0,0,299.65,128.84Z"/><path d="M313,123.48a10.06,10.06,0,0,1,2.48-.27,4.36,4.36,0,0,1,2.27.38c.18.14.27.23.27.26s-.42.12-1.26.13a13.8,13.8,0,0,0-3.36.49l-1.9.48-.08,1.41-.07,1.41h1.08a15.88,15.88,0,0,0,3.1-.44,9.9,9.9,0,0,1,2-.31q.84,0,.84.42s-.13.14-.39.25a4.47,4.47,0,0,1-.89.27l-1.44.38c-.84.22-1.49.39-1.94.53l-2.12.59.2,1.65a24,24,0,0,0,.33,2.46,4.84,4.84,0,0,1,.13,1.06q0,1.23-.66,1.23a.65.65,0,0,1-.37-.12.33.33,0,0,1-.18-.27c0-.4-.06-.61-.06-.64-.06-.22-.16-1-.29-2.41s-.23-2.58-.29-3.58a12.34,12.34,0,0,0-.5-3.34,4.53,4.53,0,0,1-.22-1.14c0-.58.31-.86.92-.86a5.18,5.18,0,0,1,.53,0,3.56,3.56,0,0,0,.7,0A4.55,4.55,0,0,0,313,123.48Zm5.52,9.17a11.66,11.66,0,0,1,2.29-.81h0q.15,0,.15.06c0,.24-.77.79-2.32,1.65a20.81,20.81,0,0,1-3.86,1.78,3.39,3.39,0,0,1-1,.2c-.51,0-.77-.28-.77-.83a.57.57,0,0,1,.29-.57,8.73,8.73,0,0,1,1.53-.38A15,15,0,0,0,318.52,132.65Z"/></g><path id="arrow-asset-2" class="cls-3" d="M169.88,554.12C19.05,445.94,98.25,237.55,223,178"/><path id="arrow-asset-1" class="cls-3" d="M378.87,213.4c140.52,102.52,59.81,333.07-57.54,387.92"/><g id="income-item-business"><path class="cls-4" d="M260.24,147a2.62,2.62,0,0,1,1.09-.17,5.79,5.79,0,0,1,2.88.65,7.88,7.88,0,0,1,1.64,1.23c.54.52.82.9.82,1.12a4.19,4.19,0,0,1-.91,2.4l-.44.65,1.72.92a13,13,0,0,1,2.64,1.8,3.75,3.75,0,0,1,1.29,1.71,1.26,1.26,0,0,1,.06.38,2.55,2.55,0,0,1-.27,1,6.51,6.51,0,0,1-2.68,2.63,7.17,7.17,0,0,1-3.6,1.19,3.13,3.13,0,0,1-.73-.08c-1-.3-1.56-.67-1.56-1.12a1.31,1.31,0,0,1,.42-.82,2.3,2.3,0,0,1,1.64-.44,5.86,5.86,0,0,0,2.35-.56,4,4,0,0,0,1.72-1.26,1.52,1.52,0,0,0,.28-.59c0-.13-.14-.33-.42-.61a12.78,12.78,0,0,0-2.68-1.61,10.14,10.14,0,0,0-2.7-1.12,1.28,1.28,0,0,1-.89-.42,1.24,1.24,0,0,1-.43-.9c0-.61.54-1.12,1.64-1.56.65-.26,1-.66,1-1.17a.88.88,0,0,0-.35-.68,3.81,3.81,0,0,0-1-.46,3.59,3.59,0,0,0-1-.19.54.54,0,0,0-.38.11c-.15.15-.26,1.92-.31,5.29s-.16,5.19-.34,5.42a1.22,1.22,0,0,1-1,.31,1.38,1.38,0,0,1-.68-.14,1.28,1.28,0,0,1-.38-.75,7.22,7.22,0,0,1-.21-1.52c0-.62-.06-1.53-.08-2.73,0-.67,0-1.38,0-2.12s-.05-1.36-.07-1.86,0-.8,0-.92a3.55,3.55,0,0,1,.66-1.69A3.66,3.66,0,0,1,260.24,147Z"/><path class="cls-4" d="M276.43,146.27a.94.94,0,0,1,.65-.4c.25,0,.61.23,1.07.71a2.1,2.1,0,0,1,.76,1.43,1.76,1.76,0,0,1,0,.27,4.75,4.75,0,0,0,.25.78,13.19,13.19,0,0,1,.64,2.93,29.44,29.44,0,0,1,.24,3.7,7.85,7.85,0,0,1-.4,3.13,3.9,3.9,0,0,1-2.67,1.64,2.85,2.85,0,0,1-.65-.1,4.82,4.82,0,0,1-2-.9,7.25,7.25,0,0,1-1.36-2,18.14,18.14,0,0,1-1.13-2.82,16.1,16.1,0,0,1-.44-2.92q-.09-1.22-.09-1.32a1.44,1.44,0,0,1,.11-.64,1.69,1.69,0,0,1,.4-.45,1.52,1.52,0,0,1,1-.42l.25,0a1.87,1.87,0,0,1,1,.36,1.13,1.13,0,0,1,.26.86,5.91,5.91,0,0,1-.07.86,6.17,6.17,0,0,1-.21,1.57.45.45,0,0,0,0,.17,7.75,7.75,0,0,0,.27,1.57,8.34,8.34,0,0,0,.47,1.54,2.49,2.49,0,0,1,.35.92c0,.17.23.47.68.9s.76.64.94.64.46-.24.57-.71a11.54,11.54,0,0,0,.17-2.36v-.63a18.51,18.51,0,0,0-.95-6.45,3.63,3.63,0,0,1-.33-1.17A1,1,0,0,1,276.43,146.27Z"/><path class="cls-4" d="M284.41,147.11a9.23,9.23,0,0,1,1.09-.07,2.93,2.93,0,0,1,2.14.74c.41.36.61.67.61.92a1.54,1.54,0,0,1-.42.84.88.88,0,0,1-.63.42,3.14,3.14,0,0,1-.65-.15,2.59,2.59,0,0,0-.78-.1,1.92,1.92,0,0,0-1.12.32,1,1,0,0,0-.45.88,1.61,1.61,0,0,0,.41.94,19.51,19.51,0,0,0,1.71,1.77,23.19,23.19,0,0,1,2.84,3,5.18,5.18,0,0,1,1,2.25,4.8,4.8,0,0,1,0,.54,2.07,2.07,0,0,1-1.34,2.1,3.91,3.91,0,0,1-1.47.23,11.83,11.83,0,0,1-4.14-.84,5,5,0,0,1-2.73-1.82,1.8,1.8,0,0,1-.21-.8,1,1,0,0,1,.3-.74,1,1,0,0,1,.75-.27,1.86,1.86,0,0,1,1,.34,14.11,14.11,0,0,0,2.45,1.24,5.94,5.94,0,0,0,1.94.46c.41,0,.65-.11.74-.32a1,1,0,0,0,0-.21c0-.67-.72-1.63-2.17-2.87-2.52-2.13-3.92-3.69-4.22-4.67a6.29,6.29,0,0,1-.27-1.23,1.8,1.8,0,0,1,.65-1.16,7.46,7.46,0,0,1,1.47-1.33A3.6,3.6,0,0,1,284.41,147.11Z"/><path class="cls-4" d="M291.36,148.2a1.22,1.22,0,0,1,.9-.36,1.25,1.25,0,0,1,.95.38,1.6,1.6,0,0,1,.38,1.17,13.87,13.87,0,0,1-.21,1.83,34.13,34.13,0,0,0-.36,5.57,11.62,11.62,0,0,0,.15,2.37,6.33,6.33,0,0,1,.08.67c0,.65-.36,1-1.07,1a1.4,1.4,0,0,1-1.37-.79,7.75,7.75,0,0,1-.37-2.93c0-.64,0-1.41.06-2.29.11-2.36.23-4,.35-4.92A3,3,0,0,1,291.36,148.2Z"/><path class="cls-4" d="M303,146a1,1,0,0,1,.27-.48,1,1,0,0,1,.55-.12,1.62,1.62,0,0,1,1.22.46,3.27,3.27,0,0,1,.71,1.51,30.23,30.23,0,0,1,.77,5.63c0,.85.1,1.28.21,1.28s.11.22.11.67a16.23,16.23,0,0,1-.12,1.82,6.55,6.55,0,0,1-.28,1.48,13.59,13.59,0,0,1-1,2.28c-.37.63-.66.95-.87.95a.74.74,0,0,0-.61.25c-.07.12-.4.17-1,.17l-.86,0a6.72,6.72,0,0,1-1.58-.25,2.84,2.84,0,0,1-.92-.8,10.48,10.48,0,0,1-1.3-2c-.36-.74-.61-1.11-.73-1.11s-.17.2-.17.61a14.77,14.77,0,0,1-.25,2.16,4.47,4.47,0,0,1-.68,1.83,1.29,1.29,0,0,1-1.05.65,1.52,1.52,0,0,1-1.13-.61,1.4,1.4,0,0,1-.42-.73,4.48,4.48,0,0,1,.27-1.12,11.77,11.77,0,0,0,.49-2.46c.08-.91.16-2.63.25-5.18.05-1.61.12-2.75.2-3.41a4,4,0,0,1,.35-1.44,2.13,2.13,0,0,1,.86-.78l.86-.48.56.54a1.66,1.66,0,0,1,.5.84,16.58,16.58,0,0,1,.22,1.94,9.59,9.59,0,0,0,.18,1.55c.09.45.17.69.24.71s.23.26.23.59a8.72,8.72,0,0,0,.5,2.17,12.08,12.08,0,0,0,1.37,3.13c.5.77,1,1.15,1.43,1.15s.64-.23.88-.69a8.4,8.4,0,0,0,.73-3.85,23.08,23.08,0,0,0-.21-3c-.19-1.55-.41-2.91-.65-4.07a5.18,5.18,0,0,1-.15-1.26A2.26,2.26,0,0,1,303,146Z"/><path class="cls-4" d="M309.25,146.16a4.47,4.47,0,0,1,1-.13,7.25,7.25,0,0,1,3.13.89,8.5,8.5,0,0,1,1.39.79.87.87,0,0,1,.4.63.63.63,0,0,1-.07.26.55.55,0,0,1-.59.33,3.63,3.63,0,0,1-1.28-.33,5.26,5.26,0,0,0-2-.36,2.93,2.93,0,0,0-1.28.23c-.3.18-.44.58-.44,1.2,0,.4,0,1,.12,1.78l.15,1.22,1.53-.1c.3,0,.72,0,1.26,0,1.84,0,2.89.26,3.15.76a.94.94,0,0,1,.13.44.32.32,0,0,1-.09.25,6.61,6.61,0,0,1-2,.55,17,17,0,0,1-2.69.33.83.83,0,0,1-.27,0l-.34,0a.17.17,0,0,0-.19.19,3.09,3.09,0,0,0,.19.8l.21.72c.1.35.15.55.17.62.08.39.21.59.38.59l.16,0a20,20,0,0,1,2.88-.29c1.67-.1,3.06-.16,4.18-.17h.42a4,4,0,0,1,1,.08.34.34,0,0,1,.26.34c0,.35-.55.74-1.66,1.17a18.55,18.55,0,0,1-3.9,1,5.68,5.68,0,0,0-1.07.25,4.65,4.65,0,0,1-1.41.15H312c-.5,0-.79.1-.86.29a.35.35,0,0,1-.38.23.93.93,0,0,1-.31,0,2.11,2.11,0,0,1-1.21-.73,8.07,8.07,0,0,1-.66-2.21c-.1-.46-.22-1-.37-1.7s-.23-1.05-.24-1.13a25.3,25.3,0,0,1-.78-5.34,4.47,4.47,0,0,1,.51-2.36A2.39,2.39,0,0,1,309.25,146.16Z"/><path class="cls-4" d="M324.23,148.68a5.8,5.8,0,0,1,2.33-.44,2.62,2.62,0,0,1,1.8.46,1.42,1.42,0,0,1,.51,1,1,1,0,0,1-.41.79,1.71,1.71,0,0,1-1.06.32h-.11l-.84,0a1.61,1.61,0,0,0-.73.1c-.12.06-.17.19-.17.39a4.75,4.75,0,0,0,1.1,1.92,14.11,14.11,0,0,0,2.13,2.28,14.17,14.17,0,0,1,1.87,1.69,1.71,1.71,0,0,1,.38,1.1,1.55,1.55,0,0,1-.22.8,4,4,0,0,1-.85.77,4.14,4.14,0,0,1-1.17.7,7.25,7.25,0,0,1-1.65.12,13.94,13.94,0,0,1-3.89-.65,5.49,5.49,0,0,1-2.62-1.32,1,1,0,0,1-.21-.65.44.44,0,0,1,0-.1.56.56,0,0,1,0-.07,1.07,1.07,0,0,1,.39-.69,1.15,1.15,0,0,1,.74-.26,1.59,1.59,0,0,1,1.07.45,4.45,4.45,0,0,0,1.73.78,8.72,8.72,0,0,0,2.28.33,2.46,2.46,0,0,0,1.24-.23s.06-.06.06-.13c0-.24-.57-.94-1.72-2.1q-3-3-3.44-5.29a2.49,2.49,0,0,1-.07-.53,1.17,1.17,0,0,1,.33-.84A4.06,4.06,0,0,1,324.23,148.68Z"/><path class="cls-4" d="M335.44,147.11a9.23,9.23,0,0,1,1.09-.07,2.93,2.93,0,0,1,2.14.74c.41.36.61.67.61.92a1.54,1.54,0,0,1-.42.84.88.88,0,0,1-.63.42,3.14,3.14,0,0,1-.65-.15,2.59,2.59,0,0,0-.78-.1,1.92,1.92,0,0,0-1.12.32,1,1,0,0,0-.45.88,1.61,1.61,0,0,0,.41.94,19.51,19.51,0,0,0,1.71,1.77,23.19,23.19,0,0,1,2.84,3,5.18,5.18,0,0,1,1,2.25,4.8,4.8,0,0,1,0,.54,2.07,2.07,0,0,1-1.34,2.1,3.91,3.91,0,0,1-1.47.23,11.79,11.79,0,0,1-4.14-.84,5,5,0,0,1-2.73-1.82,1.8,1.8,0,0,1-.21-.8,1,1,0,0,1,.3-.74,1,1,0,0,1,.75-.27,1.86,1.86,0,0,1,1,.34,14.11,14.11,0,0,0,2.45,1.24,5.94,5.94,0,0,0,1.94.46c.41,0,.65-.11.74-.32a1,1,0,0,0,0-.21c0-.67-.72-1.63-2.17-2.87-2.52-2.13-3.92-3.69-4.22-4.67a6.29,6.29,0,0,1-.27-1.23,1.8,1.8,0,0,1,.65-1.16,7.46,7.46,0,0,1,1.47-1.33A3.6,3.6,0,0,1,335.44,147.11Z"/><path class="cls-4" d="M349,148.2a2.07,2.07,0,0,1,1.2-.36,1.63,1.63,0,0,1,1.22.44,1.5,1.5,0,0,1,.38,1.07c0,.39-.09,1.37-.26,2.92-.16,1.82-.26,3.7-.29,5.63l0,3.25-.65.21a1.78,1.78,0,0,1-.55.11q-1.07,0-1.53-1.32a9.75,9.75,0,0,1-.23-2.71c0-1,0-2.19.08-3.53.09-2.56.16-4.11.22-4.65A1.52,1.52,0,0,1,349,148.2Z"/><path class="cls-4" d="M360.18,143.09a.73.73,0,0,1,.54-.27,1.17,1.17,0,0,1,.91.59,2.29,2.29,0,0,1,.42,1.36,11.13,11.13,0,0,0,.46,2.13,22.25,22.25,0,0,1,.88,6.3q0,4.23-1.32,5.88a2.52,2.52,0,0,1-1.66.92l-.57,0a1,1,0,0,1-.58-.16,4.42,4.42,0,0,1-.72-.66,11,11,0,0,1-1.64-2.52,15.85,15.85,0,0,1-1.22-3.23,6.07,6.07,0,0,0-.65-1.91h0a13.13,13.13,0,0,0-.21,3.38c-.06,3.6-.1,5.61-.15,6,0,.19-.4.29-1.13.29s-1.14-.15-1.28-.44-.24-.46-.17-.53a2.79,2.79,0,0,0,.23-1.07c0-.15.05-.39.11-.72s.12-.73.21-1.21.14-.86.19-1.15q.29-1.87.5-5.76c.06-1.37.13-2.35.21-2.93a2.6,2.6,0,0,1,.4-1.21,1.05,1.05,0,0,1,.86-.33,1.31,1.31,0,0,1,1.16.8,19.77,19.77,0,0,1,1.17,3.4c1.18,4.35,2,6.7,2.5,7a.78.78,0,0,0,.34.19c.05,0,.09-.07.12-.23s.16-.4.3-.4.29-.53.46-1.58a18.27,18.27,0,0,0,.25-2.87,39.42,39.42,0,0,0-.57-5.14,34.37,34.37,0,0,1-.42-3.53A.94.94,0,0,1,360.18,143.09Z"/><path class="cls-4" d="M367.57,148.81a6.68,6.68,0,0,1,1.93-.15,3.21,3.21,0,0,1,2,.46,1.37,1.37,0,0,1,.48,1,1.34,1.34,0,0,1-.31.86c-.2.21-.35.32-.47.32a1.09,1.09,0,0,1-.37-.11,2.56,2.56,0,0,0-1.24-.27,3.3,3.3,0,0,0-1.91.54,3.63,3.63,0,0,0-1.19,1.38,4,4,0,0,0-.43,1.84,4.58,4.58,0,0,0,.31,1.64,4,4,0,0,0,3,2.52,5.82,5.82,0,0,0,.94.14,8.32,8.32,0,0,0,2.06-.5,13.19,13.19,0,0,1,2.88-.78c.22,0,.33.06.33.19s-.21.49-.65,1a8.45,8.45,0,0,1-2.5,1.66,6.88,6.88,0,0,1-2.71.77,3.7,3.7,0,0,1-2.35-.48.74.74,0,0,0-.48-.29c-.18,0-.6-.39-1.26-1.15a10.23,10.23,0,0,1-1.39-1.94,8.64,8.64,0,0,1-.65-3.68,4,4,0,0,1,.25-1.66,4.49,4.49,0,0,0,.34-.73c0-.15.28-.51.83-1.06a3.9,3.9,0,0,1,1.19-.94.67.67,0,0,0,.35-.16c.1-.09.15-.16.15-.23s.06-.17.19-.13A.69.69,0,0,0,367.57,148.81Zm-1.51,11.38c0-.09,0-.13.1-.13s.13,0,.13.13,0,.12-.13.12S366.06,160.27,366.06,160.19Z"/><path class="cls-4" d="M381,147.59a1.28,1.28,0,0,1,.48-.09c.87,0,1.6.82,2.19,2.44q.42,1.16,1.26,2.94c.69,1.44,1.15,2.44,1.35,3a4.13,4.13,0,0,1-.33,3.78,5.25,5.25,0,0,1-1.63,1.83,4,4,0,0,1-2.31.82,7.87,7.87,0,0,1-4-1.66,6.52,6.52,0,0,1-1-1.45,7.83,7.83,0,0,1-.77-1.77A17.17,17.17,0,0,1,376,155c0-.69-.06-1.23-.06-1.64a4.37,4.37,0,0,1,.44-2,6.11,6.11,0,0,1,1.39-1.79,4.07,4.07,0,0,1,1.7-1,1.57,1.57,0,0,0,1-.48A1.37,1.37,0,0,1,381,147.59Zm.42,3.93a.69.69,0,0,0-.61-.3,1.84,1.84,0,0,0-1.11.48,1.42,1.42,0,0,0-.52.77,13,13,0,0,0-.09,2,9.43,9.43,0,0,0,.41,3.17,2.76,2.76,0,0,0,1.33,1.59,2.35,2.35,0,0,0,.88.32,1.57,1.57,0,0,0,.67-.21,2,2,0,0,0,1.06-2,4.62,4.62,0,0,0-.07-.73,15,15,0,0,0-.86-2.65A12.81,12.81,0,0,0,381.43,151.52Z"/><path class="cls-4" d="M396,145a2.18,2.18,0,0,1,1.18-.25,1.22,1.22,0,0,1,1.33,1,41.23,41.23,0,0,1,.33,5.76,48.26,48.26,0,0,0,.48,7.56,11.9,11.9,0,0,1,.27,1.73.76.76,0,0,1-.33.61,1.38,1.38,0,0,1-.82.31,1.57,1.57,0,0,1-1.3-1,6.32,6.32,0,0,1-.74-2.58c-.13-1.37-.29-2.06-.5-2.06s-.19.13-.28.38a15.34,15.34,0,0,1-1.1,2.44,1.9,1.9,0,0,1-1.08.71,2.93,2.93,0,0,1-.9.15,1.83,1.83,0,0,1-1.7-1.24,2.38,2.38,0,0,0-.3-.53c-.11-.14-.19-.21-.25-.21h0a7.32,7.32,0,0,0-.34,2.17,5.33,5.33,0,0,1-.5,2.21,1.51,1.51,0,0,1-1.35.54c-.79,0-1.19-.51-1.19-1.51a6.72,6.72,0,0,1,.06-.82c.6-4.19,1-7.6,1.11-10.25.07-1.37.14-2.26.2-2.66a1.5,1.5,0,0,1,.43-.89,1.27,1.27,0,0,1,.91-.38l.42,0a2,2,0,0,1,1.07.36,15.29,15.29,0,0,1,.54,3.36q.45,4.33,1,5.29a.17.17,0,0,0,.13.09c.35,0,.87-1.23,1.57-3.68.51-1.71.79-2.66.87-2.85a8.05,8.05,0,0,0,.33-2.33C395.54,145.62,395.69,145.12,396,145Z"/><path class="cls-4" d="M402.34,147.69a3.73,3.73,0,0,1,1.77-.29l1.55,0a14.86,14.86,0,0,1,2.86.32,1.13,1.13,0,0,1,.86.73.39.39,0,0,1,0,.13c0,.56-1.1.84-3.3.86a6.09,6.09,0,0,0-1.89.23.72.72,0,0,0-.54.69.83.83,0,0,0,0,.25,4.44,4.44,0,0,0,0,.45c0,.23.06.53.1.88s.08.67.11,1,.05.59.06.76a2.85,2.85,0,0,0,.13.57,3.89,3.89,0,0,0,.16.43.76.76,0,0,0,.29.26,1.25,1.25,0,0,0,.41.18l.62.08a6.09,6.09,0,0,0,.82.05h1.12a15.94,15.94,0,0,1,1.89.07c.25,0,.38.15.38.33,0,.33-.41.67-1.23,1a7.6,7.6,0,0,1-2.57.65c-1,.09-1.56.2-1.6.34a.8.8,0,0,0-.06.42,5.77,5.77,0,0,0,.08.73c.09.55.2.82.34.82a1.15,1.15,0,0,0,.23-.08,3.94,3.94,0,0,1,1.58-.19h.29a15.33,15.33,0,0,0,3.35-.55,14.17,14.17,0,0,0,3.2-1.07,2.5,2.5,0,0,1,1-.33c.22,0,.34.1.34.29q0,.57-1.2,1.77a9.25,9.25,0,0,1-3.34,1.79,12.41,12.41,0,0,1-3.95.81,2.19,2.19,0,0,1-1.17-.23c-.4-.24-.59-.44-.59-.61s-.18-.23-.53-.23a2.26,2.26,0,0,1-1.62-.53,2.93,2.93,0,0,1-.64-1.76c-.07-.57-.24-1.49-.49-2.75a22.65,22.65,0,0,0-.52-2.29c0-.08-.12-.29-.28-.63s-.26-.6-.33-.78a2.73,2.73,0,0,1-.27-1.11,1.15,1.15,0,0,1,.33-.88,1.38,1.38,0,0,1,1-.32c.32,0,.48-.08.48-.25a1.43,1.43,0,0,0-.06-.31,2.49,2.49,0,0,1-.07-.51A1.42,1.42,0,0,1,402.34,147.69Z"/></g><g id="income-item-rental"><path class="cls-4" d="M264.69,171.4a3.38,3.38,0,0,1,.93-.12,5.21,5.21,0,0,1,1.86.37,4.57,4.57,0,0,1,1.58,1.37,5.57,5.57,0,0,1,1.15,1.91,4.13,4.13,0,0,1,.17,1.13,3.34,3.34,0,0,1-.79,2.07,16.52,16.52,0,0,1-2.71,2.55c-.87.66-1.31,1.06-1.31,1.2s.34.55,1,1a18.73,18.73,0,0,0,2.55,1.46,14.27,14.27,0,0,1,2.48,1.42,1.47,1.47,0,0,1,.59,1.14c0,.16,0,.26,0,.33a.24.24,0,0,1-.09.15.33.33,0,0,1-.24.07l-.69-.09a20,20,0,0,1-4.66-1.44,11.61,11.61,0,0,1-3.61-2l-.87-.86-.37,1.19a6.57,6.57,0,0,1-.78,1.79c-.22.31-.42.46-.59.46a5.29,5.29,0,0,1-.88-.21l-.28-.08a1.16,1.16,0,0,1-.25-.09l-.16-.09a.38.38,0,0,1-.16-.13l-.09-.17a.91.91,0,0,1-.06-.26c0-.1,0-.21,0-.35,0-.37.09-1.48.27-3.34.06-.84.09-1.51.09-2a17.64,17.64,0,0,0-.42-4.26,1.6,1.6,0,0,1,0-.32,1,1,0,0,1,.31-.71,1.5,1.5,0,0,1,1.11-.4,1.22,1.22,0,0,1,1,.38c.15.17.25.25.3.25s.19-.11.33-.34a12.52,12.52,0,0,1,1.77-1.86A5.19,5.19,0,0,1,264.69,171.4Zm2.33,3a1.92,1.92,0,0,0-.54-.41,1.31,1.31,0,0,0-.57-.18,2.08,2.08,0,0,0-1.32.67,3.21,3.21,0,0,0-1,1.43c-.18.56-.36.84-.52.84s-.21.12-.21.35a4.86,4.86,0,0,1-.51,1.39,4.69,4.69,0,0,0-.48,1.55q0,.36.27.36a2.75,2.75,0,0,0,1.35-.78,26.81,26.81,0,0,1,2.37-1.74,6.64,6.64,0,0,0,1.57-1.2,1,1,0,0,0,.15-.6A2.41,2.41,0,0,0,267,174.41Z"/><path class="cls-4" d="M275,172.89a3.71,3.71,0,0,1,1.76-.29l1.56,0a14.6,14.6,0,0,1,2.85.32,1.13,1.13,0,0,1,.87.73.39.39,0,0,1,0,.13c0,.56-1.1.84-3.3.86a6,6,0,0,0-1.89.23.72.72,0,0,0-.55.69,1.38,1.38,0,0,0,0,.25c0,.06,0,.21.05.45s.06.53.1.88.08.67.11,1,0,.59.06.76a1.92,1.92,0,0,0,.13.57,4.55,4.55,0,0,0,.15.43.91.91,0,0,0,.3.26,1.16,1.16,0,0,0,.41.18l.62.08a6,6,0,0,0,.81.05h1.13a15.94,15.94,0,0,1,1.89.07c.25,0,.38.15.38.33s-.41.67-1.23,1a7.66,7.66,0,0,1-2.58.65c-1,.09-1.55.2-1.59.34a.8.8,0,0,0-.06.42,4.34,4.34,0,0,0,.08.73c.08.55.2.82.34.82a1.15,1.15,0,0,0,.23-.08,3.87,3.87,0,0,1,1.57-.19h.3a15.42,15.42,0,0,0,3.35-.55,14.36,14.36,0,0,0,3.2-1.07,2.46,2.46,0,0,1,1-.33c.22,0,.33.1.33.29q0,.57-1.2,1.77a9.19,9.19,0,0,1-3.33,1.79,12.47,12.47,0,0,1-3.95.81,2.25,2.25,0,0,1-1.18-.23c-.39-.24-.59-.44-.59-.61s-.17-.23-.52-.23a2.28,2.28,0,0,1-1.63-.53,3,3,0,0,1-.64-1.76c-.07-.57-.23-1.49-.48-2.75a21.48,21.48,0,0,0-.53-2.29q0-.12-.27-.63c-.15-.34-.27-.6-.34-.78a2.73,2.73,0,0,1-.27-1.11,1.12,1.12,0,0,1,.34-.88,1.34,1.34,0,0,1,1-.32c.32,0,.49-.08.49-.25a1.11,1.11,0,0,0-.07-.31,2.43,2.43,0,0,1-.06-.51A1.42,1.42,0,0,1,275,172.89Z"/><path class="cls-4" d="M296.84,171.23a.91.91,0,0,1,.28-.48.94.94,0,0,1,.54-.12,1.63,1.63,0,0,1,1.23.46,3.17,3.17,0,0,1,.7,1.51,31.26,31.26,0,0,1,.78,5.63c0,.85.1,1.28.21,1.28s.11.22.11.67a16.23,16.23,0,0,1-.12,1.82,7.17,7.17,0,0,1-.28,1.48,13.59,13.59,0,0,1-1,2.28c-.37.63-.66,1-.87,1a.73.73,0,0,0-.61.25c-.07.12-.41.17-1,.17l-.86,0a7,7,0,0,1-1.59-.25,2.83,2.83,0,0,1-.91-.8,9.62,9.62,0,0,1-1.3-2c-.37-.74-.61-1.11-.74-1.11s-.17.2-.17.61a13.48,13.48,0,0,1-.25,2.16,4.47,4.47,0,0,1-.67,1.83,1.31,1.31,0,0,1-1.05.65,1.52,1.52,0,0,1-1.13-.61,1.4,1.4,0,0,1-.42-.73,4.48,4.48,0,0,1,.27-1.12,11.18,11.18,0,0,0,.48-2.46c.09-.91.17-2.63.25-5.18.06-1.61.13-2.75.2-3.41a4.22,4.22,0,0,1,.36-1.44,2,2,0,0,1,.85-.78L291,172l.57.54a1.65,1.65,0,0,1,.49.84,14.58,14.58,0,0,1,.22,1.94,10.86,10.86,0,0,0,.18,1.55c.09.45.17.69.24.71s.23.26.23.59a8.42,8.42,0,0,0,.51,2.17,12.1,12.1,0,0,0,1.36,3.13c.51.77,1,1.15,1.43,1.15s.64-.23.88-.69a8.39,8.39,0,0,0,.74-3.85,23.08,23.08,0,0,0-.21-3c-.2-1.55-.41-2.91-.65-4.07a5.18,5.18,0,0,1-.15-1.26A2.29,2.29,0,0,1,296.84,171.23Z"/><path class="cls-4" d="M301.55,172.45l.35-.32a.89.89,0,0,1,.29-.17,1,1,0,0,1,.41-.07,14.83,14.83,0,0,1,2.31.44,13.55,13.55,0,0,0,3.23.44l2.33-.09c1.83-.09,3.36-.19,4.58-.27l.5,0a1,1,0,0,1,.52.09.59.59,0,0,1,.2.35,1.47,1.47,0,0,1,0,.25.78.78,0,0,1-.15.53,7.71,7.71,0,0,1-2.3.81,24.86,24.86,0,0,1-3.45.66l-1.66.17.17,2.39c.12,1.81.33,4,.63,6.59a12.19,12.19,0,0,1,.1,1.58,2.09,2.09,0,0,1,0,.38c-.07.12-.3.19-.69.19a1.41,1.41,0,0,1-1-.65,1.93,1.93,0,0,1-.53-1.2,3.37,3.37,0,0,0-.27-1.18,26.38,26.38,0,0,1-.59-4.14c-.22-2.21-.37-3.45-.44-3.71s-.62-.3-1.74-.42a15.37,15.37,0,0,1-2.11-.27,2.08,2.08,0,0,1-.83-.49,1,1,0,0,1-.44-.8A1.6,1.6,0,0,1,301.55,172.45Z"/><path class="cls-4" d="M323.66,171.93a1.06,1.06,0,0,1,.86-.4,2,2,0,0,1,.92.25,1.55,1.55,0,0,1,.7.61,4.23,4.23,0,0,1,.16,1.34,9,9,0,0,0,.36,2.05,5,5,0,0,0,.67,1.59.79.79,0,0,1,.19.54,49.09,49.09,0,0,0,2.23,5.06c0,.06.46.89,1.3,2.48a4,4,0,0,1,.67,1.47.93.93,0,0,1-.17.48.87.87,0,0,1-.79.55,2.19,2.19,0,0,1-1.2-.46c-.32-.2-1-.56-1.93-1.08s-1.6-.87-1.89-1a4.46,4.46,0,0,0-2-.88,1,1,0,0,0-.27,0h-.11a1.67,1.67,0,0,1-1.05-.59c-.35-.32-.59-.48-.73-.48s-.48.4-.86,1.22c-.25.6-.46.9-.61.9s-.21.11-.21.33a2.05,2.05,0,0,1-.57,1,1.76,1.76,0,0,1-1.4.65,1.17,1.17,0,0,1-1-.46,1.39,1.39,0,0,1-.32-.78,1.54,1.54,0,0,1,.59-1,9.82,9.82,0,0,0,1.74-2.41c.62-1.1,1.49-2.88,2.63-5.34a25.53,25.53,0,0,1,1.11-2.35,6.5,6.5,0,0,0,.5-1.79A2.8,2.8,0,0,1,323.66,171.93Zm1.24,5.86c0-.14-.11-.3-.32-.49a.17.17,0,0,0-.12-.06c-.19,0-.51.5-1,1.51a26,26,0,0,0-1.05,2.44,4.33,4.33,0,0,1-.5,1.07c-.1.13-.08.14.06,0l.23-.15a1.77,1.77,0,0,1,1.13-.35c.27,0,.66,0,1.16.06s.78.06,1.07.06c.57,0,.86-.07.86-.21a5.86,5.86,0,0,0-.69-1.91A7.77,7.77,0,0,1,324.9,177.79Zm2.83,6.19a.66.66,0,0,0-.65-.52.56.56,0,0,0-.25.07.23.23,0,0,0-.15.2q0,.17.45.54a1.4,1.4,0,0,0,.67.36.07.07,0,0,0,.06,0C327.91,184.56,327.87,184.35,327.73,184Z"/><path class="cls-4" d="M333.76,172.87a.85.85,0,0,1,.73-.29,1.93,1.93,0,0,1,1.18.4,1.32,1.32,0,0,1,.41.41,1.17,1.17,0,0,1,.12.6c0,.21,0,.49-.07.86a28.15,28.15,0,0,1-.69,3.84,32.82,32.82,0,0,0-.71,4.12c-.06.58-.09.94-.09,1.07a.94.94,0,0,0,.13.58.52.52,0,0,0,.46.17,8.24,8.24,0,0,0,1.51-.27A10.4,10.4,0,0,1,339,184a6.44,6.44,0,0,1,1.68.26,2.62,2.62,0,0,1,.73.27.41.41,0,0,1,.19.38.79.79,0,0,1,0,.17.62.62,0,0,1-.33.5,4,4,0,0,1-1.16.27,8.08,8.08,0,0,0-2.42.67,5.68,5.68,0,0,1-2.6.59,4.32,4.32,0,0,1-1.63-.28,1.67,1.67,0,0,1-.95-.79,4.51,4.51,0,0,1-.44-2.18,8.85,8.85,0,0,1,.23-2.06,62.2,62.2,0,0,0,1.11-6.85A6,6,0,0,1,333.76,172.87Z"/><path class="cls-4" d="M349.32,173.4a2.07,2.07,0,0,1,1.2-.36,1.63,1.63,0,0,1,1.22.44,1.5,1.5,0,0,1,.37,1.07c0,.39-.08,1.37-.25,2.92-.17,1.82-.26,3.7-.29,5.63l0,3.25-.66.21a1.78,1.78,0,0,1-.54.11q-1.08,0-1.53-1.32a9.62,9.62,0,0,1-.24-2.71c0-1,0-2.19.09-3.53.08-2.56.16-4.11.22-4.65A1.44,1.44,0,0,1,349.32,173.4Z"/><path class="cls-4" d="M360.51,168.29a.75.75,0,0,1,.55-.27,1.16,1.16,0,0,1,.9.59,2.29,2.29,0,0,1,.42,1.36,12,12,0,0,0,.46,2.13,22.26,22.26,0,0,1,.89,6.3q0,4.23-1.33,5.88a2.49,2.49,0,0,1-1.66.92l-.56,0a1,1,0,0,1-.58-.16,4.42,4.42,0,0,1-.72-.66,10.66,10.66,0,0,1-1.64-2.52,15.85,15.85,0,0,1-1.22-3.23,6.36,6.36,0,0,0-.65-1.91h0c-.12,0-.18,1.12-.21,3.38q-.09,5.4-.15,6c0,.19-.41.29-1.13.29s-1.15-.15-1.28-.44-.24-.46-.17-.53a2.79,2.79,0,0,0,.23-1.07c0-.15.05-.39.1-.72s.13-.73.21-1.21.15-.86.19-1.15q.3-1.87.51-5.76a28.67,28.67,0,0,1,.21-2.93,2.49,2.49,0,0,1,.4-1.21,1,1,0,0,1,.86-.33,1.29,1.29,0,0,1,1.15.8,18.67,18.67,0,0,1,1.18,3.4c1.17,4.35,2,6.7,2.5,7a.77.77,0,0,0,.33.19c.06,0,.1-.07.13-.23s.15-.4.29-.4.3-.53.46-1.58a18.38,18.38,0,0,0,.26-2.87,39.42,39.42,0,0,0-.57-5.14,34.37,34.37,0,0,1-.42-3.53A1.08,1.08,0,0,1,360.51,168.29Z"/><path class="cls-4" d="M367.91,174a6.68,6.68,0,0,1,1.93-.15,3.18,3.18,0,0,1,2,.46,1.32,1.32,0,0,1,.17,1.89c-.19.21-.35.32-.46.32a1.19,1.19,0,0,1-.38-.11,2.5,2.5,0,0,0-1.24-.27,3.33,3.33,0,0,0-1.91.54,3.6,3.6,0,0,0-1.18,1.38,4,4,0,0,0-.43,1.84,4.58,4.58,0,0,0,.31,1.64,4,4,0,0,0,3,2.52,5.9,5.9,0,0,0,1,.14,8.42,8.42,0,0,0,2.06-.5,13,13,0,0,1,2.87-.78c.23,0,.34.06.34.19s-.22.49-.65,1a8.45,8.45,0,0,1-2.5,1.66,6.92,6.92,0,0,1-2.71.77,3.68,3.68,0,0,1-2.35-.48.79.79,0,0,0-.48-.29c-.19,0-.61-.39-1.26-1.15a10.23,10.23,0,0,1-1.39-1.94A8.64,8.64,0,0,1,364,179a3.81,3.81,0,0,1,.25-1.66,4.49,4.49,0,0,0,.34-.73c0-.15.27-.51.83-1.06a3.9,3.9,0,0,1,1.18-.94.74.74,0,0,0,.36-.16c.1-.09.15-.16.15-.23s.06-.17.19-.13A.69.69,0,0,0,367.91,174Zm-1.52,11.38c0-.09,0-.13.11-.13s.12,0,.12.13a.11.11,0,0,1-.12.12C366.43,185.51,366.39,185.47,366.39,185.39Z"/><path class="cls-4" d="M381.35,172.79a1.28,1.28,0,0,1,.48-.09c.87,0,1.59.82,2.18,2.44q.42,1.16,1.26,2.94c.7,1.44,1.15,2.44,1.36,3a4.22,4.22,0,0,1-.33,3.78,5.28,5.28,0,0,1-1.64,1.83,4,4,0,0,1-2.31.82,5.81,5.81,0,0,1-2.62-.78,5.69,5.69,0,0,1-1.39-.88,6.87,6.87,0,0,1-1-1.45,7.71,7.71,0,0,1-.76-1.77,14.46,14.46,0,0,1-.24-2.45c-.05-.69-.07-1.23-.07-1.64a4.5,4.5,0,0,1,.44-2,6.15,6.15,0,0,1,1.4-1.79,4,4,0,0,1,1.69-1,1.57,1.57,0,0,0,1-.48A1.31,1.31,0,0,1,381.35,172.79Zm.42,3.93a.72.72,0,0,0-.61-.3,1.88,1.88,0,0,0-1.12.48,1.35,1.35,0,0,0-.51.77,12.52,12.52,0,0,0-.1,2,9.69,9.69,0,0,0,.41,3.17,2.81,2.81,0,0,0,1.34,1.59,2.3,2.3,0,0,0,.88.32,1.61,1.61,0,0,0,.67-.21,2,2,0,0,0,1-2,4.59,4.59,0,0,0-.06-.73,15.92,15.92,0,0,0-.86-2.65A13.55,13.55,0,0,0,381.77,176.72Z"/><path class="cls-4" d="M396.32,170.16a2.16,2.16,0,0,1,1.17-.25,1.23,1.23,0,0,1,1.34,1,40.27,40.27,0,0,1,.32,5.76,49.16,49.16,0,0,0,.49,7.56,11.9,11.9,0,0,1,.27,1.73.75.75,0,0,1-.34.61,1.36,1.36,0,0,1-.82.31c-.49,0-.92-.32-1.3-1a6.33,6.33,0,0,1-.73-2.58c-.13-1.37-.3-2.06-.51-2.06s-.19.13-.27.38a15.34,15.34,0,0,1-1.1,2.44,1.9,1.9,0,0,1-1.08.71,2.94,2.94,0,0,1-.91.15,1.84,1.84,0,0,1-1.7-1.24,2,2,0,0,0-.29-.53c-.11-.14-.2-.21-.25-.21h0a7.32,7.32,0,0,0-.34,2.17,5.5,5.5,0,0,1-.5,2.21,1.51,1.51,0,0,1-1.35.54c-.8,0-1.19-.51-1.19-1.51a6.72,6.72,0,0,1,.06-.82c.6-4.19,1-7.6,1.11-10.25.07-1.37.14-2.26.2-2.66a1.44,1.44,0,0,1,.43-.89,1.23,1.23,0,0,1,.9-.38l.42,0a1.89,1.89,0,0,1,1.07.36,14.9,14.9,0,0,1,.55,3.36c.29,2.89.64,4.65,1,5.29,0,.06.08.09.13.09.35,0,.87-1.23,1.57-3.68.5-1.71.79-2.66.86-2.85a7.72,7.72,0,0,0,.34-2.33C395.88,170.82,396,170.32,396.32,170.16Z"/><path class="cls-4" d="M402.68,172.89a3.73,3.73,0,0,1,1.77-.29l1.55,0a14.86,14.86,0,0,1,2.86.32,1.13,1.13,0,0,1,.86.73.39.39,0,0,1,0,.13c0,.56-1.1.84-3.3.86a6,6,0,0,0-1.89.23.73.73,0,0,0-.55.69.77.77,0,0,0,0,.25,4.44,4.44,0,0,0,0,.45c0,.23.06.53.1.88s.08.67.11,1,.05.59.06.76a2.3,2.3,0,0,0,.13.57l.15.43a.91.91,0,0,0,.3.26,1.16,1.16,0,0,0,.41.18l.62.08a6.09,6.09,0,0,0,.82.05h1.12a15.94,15.94,0,0,1,1.89.07c.25,0,.38.15.38.33s-.41.67-1.23,1a7.66,7.66,0,0,1-2.57.65c-1,.09-1.56.2-1.6.34a.8.8,0,0,0-.06.42,4.34,4.34,0,0,0,.08.73c.09.55.2.82.34.82a1.15,1.15,0,0,0,.23-.08,3.87,3.87,0,0,1,1.57-.19h.3a15.33,15.33,0,0,0,3.35-.55,14.36,14.36,0,0,0,3.2-1.07,2.46,2.46,0,0,1,1-.33c.22,0,.33.1.33.29,0,.38-.4,1-1.19,1.77a9.33,9.33,0,0,1-3.34,1.79,12.47,12.47,0,0,1-3.95.81,2.25,2.25,0,0,1-1.18-.23c-.39-.24-.58-.44-.58-.61s-.18-.23-.53-.23a2.28,2.28,0,0,1-1.63-.53,3,3,0,0,1-.64-1.76c-.07-.57-.23-1.49-.48-2.75a21.48,21.48,0,0,0-.53-2.29,5.35,5.35,0,0,0-.27-.63q-.23-.51-.33-.78a2.6,2.6,0,0,1-.28-1.11,1.12,1.12,0,0,1,.34-.88,1.34,1.34,0,0,1,1-.32c.33,0,.49-.08.49-.25a1.11,1.11,0,0,0-.07-.31,2.43,2.43,0,0,1-.06-.51A1.42,1.42,0,0,1,402.68,172.89Z"/></g><g id="income-item-dividends"><path class="cls-4" d="M260.81,198.05a2.81,2.81,0,0,1,1.74-.59,4.93,4.93,0,0,1,2.37.74,11.23,11.23,0,0,0,1.91,1c.35.17.53.38.53.61s.23.55.69.89a2.52,2.52,0,0,1,.65.57,2.74,2.74,0,0,1,.49.75,10.22,10.22,0,0,0,.79,1.3,6.24,6.24,0,0,1,.82,1.91,8.45,8.45,0,0,1,.38,2.29,2.56,2.56,0,0,1,0,.34,5,5,0,0,1-1.2,3.09,4.65,4.65,0,0,1-2.83,1.46,5.05,5.05,0,0,1-.95.07,21.7,21.7,0,0,1-3.63-.35,5.09,5.09,0,0,1-2.33-.72,5.48,5.48,0,0,1-.42-2.57,12.84,12.84,0,0,0-.7-3.86,14.14,14.14,0,0,1-.81-3.07,1.31,1.31,0,0,1,.58-1,2.72,2.72,0,0,0,.6-.65,2.83,2.83,0,0,0,.39-.78,2.11,2.11,0,0,1,.35-.74A3.06,3.06,0,0,1,260.81,198.05Zm4.24,3.07a3.15,3.15,0,0,0-1.58-.86c-.29,0-.54.26-.75.77a7.55,7.55,0,0,0-.17,2.15,21.21,21.21,0,0,0,.46,5.2,1.41,1.41,0,0,0,.78.92,3.25,3.25,0,0,0,1.47.32,2.94,2.94,0,0,0,2.31-.88,2.76,2.76,0,0,0,.54-1.87,5.29,5.29,0,0,0-.54-2.37,16.79,16.79,0,0,0-1.25-2.15A7.53,7.53,0,0,0,265.05,201.12Z"/><path class="cls-4" d="M272.25,198.18a2.13,2.13,0,0,1,.61-.28c.11,0,.33.15.65.45a3.44,3.44,0,0,1,.88,1.32,11.52,11.52,0,0,1,.21,2.94,17.07,17.07,0,0,1-.33,4.39,4.22,4.22,0,0,0-.23,1.68V209c0,.07,0,.16,0,.27s0,.17,0,.22c0,.56-.12.91-.36,1.07a.64.64,0,0,1-.31.12q-.21,0-.63-.42a1.72,1.72,0,0,1-.5-1.09c-.06-.47-.11-1.74-.14-3.8a20.88,20.88,0,0,0-.44-5.21,2.68,2.68,0,0,1-.23-.9C271.45,198.86,271.72,198.5,272.25,198.18Z"/><path class="cls-4" d="M275.34,197.72a1.15,1.15,0,0,1,.84-.4,2.86,2.86,0,0,1,.5.06,1.93,1.93,0,0,1,1.36.82,10.34,10.34,0,0,1,1,2.67c.68,2.42,1.24,4.24,1.7,5.46s.71,1.74.82,1.74.26-.34.47-1a10,10,0,0,0,.4-1.74,17.58,17.58,0,0,1,.79-3,12.62,12.62,0,0,0,.74-3.17,1.74,1.74,0,0,1,.15-.85.55.55,0,0,1,.52-.24,3.45,3.45,0,0,1,.57.06,1.77,1.77,0,0,1,1.11,1,2.57,2.57,0,0,1,.27,1,9,9,0,0,1-.31,1.61c-.17.7-.44,1.64-.8,2.82a9,9,0,0,0-.42,1.78,12.7,12.7,0,0,1-.59,3.22,3.68,3.68,0,0,0-.33,1.15,4.68,4.68,0,0,1-.84,1.81c-.45.6-.84.9-1.16.9-.66,0-1.28-.51-1.88-1.54a28.11,28.11,0,0,1-2-5.29,16.86,16.86,0,0,0-.83-2.28,8.21,8.21,0,0,1-.63-1.56,14.07,14.07,0,0,0-1.1-2.43,5.73,5.73,0,0,1-.77-1.75A1.22,1.22,0,0,1,275.34,197.72Z"/><path class="cls-4" d="M287.64,198.18a2.26,2.26,0,0,1,.61-.28c.11,0,.33.15.65.45a3.57,3.57,0,0,1,.89,1.32,11.52,11.52,0,0,1,.21,2.94,16.89,16.89,0,0,1-.34,4.39,4.42,4.42,0,0,0-.23,1.68V209c0,.07,0,.16,0,.27a2,2,0,0,1,0,.22c0,.56-.12.91-.36,1.07a.61.61,0,0,1-.31.12q-.21,0-.63-.42a1.77,1.77,0,0,1-.5-1.09c-.06-.47-.1-1.74-.13-3.8a21.41,21.41,0,0,0-.44-5.21,2.45,2.45,0,0,1-.23-.9A1.32,1.32,0,0,1,287.64,198.18Z"/><path class="cls-4" d="M290.86,197l.19,0a1.37,1.37,0,0,1,.81.32,2.51,2.51,0,0,1,.68.83c.19.41.39.61.58.61s.19-.12.19-.35a.88.88,0,0,1,.55-.73,2.53,2.53,0,0,1,1.24-.3,1.84,1.84,0,0,1,.36,0,3.8,3.8,0,0,1,2.07,1.22q1.2,1.11,1.5,1.11c.19,0,.25.06.18.19a.1.1,0,0,1,0,.06c0,.18.13.36.38.55l.22.19.18.11s.06,0,.06,0,.05,0,.14.1l.38.32q.24.21.51.48c.65.62,1,1,1,1.16s.11.3.33.48a5.06,5.06,0,0,1,1.14,1.77,8,8,0,0,1,.78,2.29,3,3,0,0,1,0,.5,2.45,2.45,0,0,1-.53,1.34,4.69,4.69,0,0,1-1.4,1.35,5.07,5.07,0,0,0-.93.65q-.18.25-1.41.42a18.78,18.78,0,0,1-2.54.17,4.72,4.72,0,0,1-2-.26,3,3,0,0,0-1.1-.27h-.25c-.36,0-.58.14-.65.42s-.21.4-.38.4a1,1,0,0,1-.31-.06,2.55,2.55,0,0,1-.9-.49,3.39,3.39,0,0,1-.67-1.06,3.11,3.11,0,0,1-.34-1.12q0-.12.06-.15c.18-.05.3-.44.36-1.15a6.41,6.41,0,0,1,.29-1.45,9.77,9.77,0,0,0,.17-2.46c0-1.4-.06-2.1-.17-2.1s-.09,0-.1-.1a.4.4,0,0,1,.06-.28.54.54,0,0,0,0-.18,9.13,9.13,0,0,0-1.09-2.63,2,2,0,0,1-.23-.92C290.27,197.37,290.46,197,290.86,197Zm5.52,3.11a2.56,2.56,0,0,0-.86-.4c-.16,0-.36.46-.62,1.39a23.3,23.3,0,0,0-.62,3,16,16,0,0,1-.46,2.29,3.94,3.94,0,0,0-.17,1.55l0,1.2,2,.17c.5,0,1,.06,1.43.06a7.54,7.54,0,0,0,4.15-1,2.14,2.14,0,0,0,.74-.63,1.49,1.49,0,0,0,.17-.77c0-.56-.08-.84-.23-.84s-.17-.11-.17-.34c0-.42-.65-1.31-1.95-2.69A20.42,20.42,0,0,0,296.38,200.07Z"/><path class="cls-4" d="M307.09,198.09a3.71,3.71,0,0,1,1.76-.29l1.56,0a14.6,14.6,0,0,1,2.85.32,1.1,1.1,0,0,1,.86.73.23.23,0,0,1,0,.13c0,.56-1.1.84-3.3.86a6,6,0,0,0-1.89.23.72.72,0,0,0-.55.69,1.29,1.29,0,0,0,0,.25c0,.06,0,.21.05.45s.06.53.1.88.08.67.11,1,0,.59.06.76a2.24,2.24,0,0,0,.12.57c.07.21.13.35.16.43a.81.81,0,0,0,.3.26,1.16,1.16,0,0,0,.41.18l.61.08a6.29,6.29,0,0,0,.82,0h1.13a15.94,15.94,0,0,1,1.89.07c.25,0,.38.15.38.33,0,.33-.41.67-1.23,1a7.66,7.66,0,0,1-2.58.65c-1,.09-1.55.2-1.59.34a.8.8,0,0,0-.06.42,4.34,4.34,0,0,0,.08.73c.08.55.2.82.34.82a1.15,1.15,0,0,0,.23-.08,3.87,3.87,0,0,1,1.57-.19h.3a15.42,15.42,0,0,0,3.35-.55,14.36,14.36,0,0,0,3.2-1.07,2.46,2.46,0,0,1,1-.33c.22,0,.33.1.33.29q0,.57-1.2,1.77a9.19,9.19,0,0,1-3.33,1.79,12.47,12.47,0,0,1-3.95.81,2.23,2.23,0,0,1-1.18-.23c-.39-.24-.59-.44-.59-.61s-.17-.23-.52-.23a2.24,2.24,0,0,1-1.63-.53,3,3,0,0,1-.64-1.76c-.07-.57-.23-1.49-.48-2.75a21.48,21.48,0,0,0-.53-2.29q0-.12-.27-.63c-.16-.34-.27-.6-.34-.78a2.73,2.73,0,0,1-.27-1.11,1.12,1.12,0,0,1,.34-.88,1.34,1.34,0,0,1,1-.32c.32,0,.49-.08.49-.25a1.67,1.67,0,0,0-.07-.31,2.43,2.43,0,0,1-.06-.51A1.42,1.42,0,0,1,307.09,198.09Z"/><path class="cls-4" d="M329,196.43a1,1,0,0,1,.27-.48,1,1,0,0,1,.55-.12,1.63,1.63,0,0,1,1.23.46,3.27,3.27,0,0,1,.7,1.51,31.26,31.26,0,0,1,.78,5.63c0,.85.1,1.28.21,1.28s.1.22.1.67a16,16,0,0,1-.11,1.82,7.17,7.17,0,0,1-.28,1.48,13.59,13.59,0,0,1-1,2.28c-.37.63-.66.95-.87.95a.73.73,0,0,0-.61.25c-.07.12-.41.17-1,.17l-.86,0a7,7,0,0,1-1.59-.25,2.83,2.83,0,0,1-.91-.8,9.62,9.62,0,0,1-1.3-2c-.37-.74-.61-1.11-.74-1.11s-.17.2-.17.61a13.48,13.48,0,0,1-.25,2.16,4.47,4.47,0,0,1-.67,1.83,1.31,1.31,0,0,1-1.05.65,1.52,1.52,0,0,1-1.13-.61,1.4,1.4,0,0,1-.42-.73,4.48,4.48,0,0,1,.27-1.12,11.18,11.18,0,0,0,.48-2.46c.09-.91.17-2.63.25-5.18.06-1.61.13-2.75.2-3.41a4.22,4.22,0,0,1,.36-1.44,2,2,0,0,1,.85-.78l.86-.48.57.54a1.72,1.72,0,0,1,.49.84,14.58,14.58,0,0,1,.22,1.94,10.86,10.86,0,0,0,.18,1.55c.09.45.17.69.24.71s.23.26.23.59a8.42,8.42,0,0,0,.51,2.17,12.1,12.1,0,0,0,1.36,3.13c.51.77,1,1.15,1.43,1.15s.64-.23.88-.69a8.39,8.39,0,0,0,.74-3.85,23.08,23.08,0,0,0-.21-3c-.2-1.55-.42-2.91-.65-4.07a5.18,5.18,0,0,1-.15-1.26A2.29,2.29,0,0,1,329,196.43Z"/><path class="cls-4" d="M333.68,197l.18,0a1.37,1.37,0,0,1,.82.32,2.51,2.51,0,0,1,.68.83c.19.41.39.61.58.61s.19-.12.19-.35a.86.86,0,0,1,.55-.73,2.53,2.53,0,0,1,1.24-.3,1.68,1.68,0,0,1,.35,0,3.79,3.79,0,0,1,2.08,1.22c.8.74,1.3,1.11,1.49,1.11s.26.06.19.19a.1.1,0,0,1,0,.06c0,.18.13.36.38.55l.22.19.18.11s.06,0,.06,0,0,0,.14.1l.38.32q.24.21.51.48c.65.62,1,1,1,1.16s.11.3.33.48a5.06,5.06,0,0,1,1.14,1.77,7.91,7.91,0,0,1,.77,2.29,2.14,2.14,0,0,1,.05.5,2.45,2.45,0,0,1-.53,1.34,4.59,4.59,0,0,1-1.41,1.35,4.8,4.8,0,0,0-.92.65c-.13.17-.59.31-1.41.42a18.89,18.89,0,0,1-2.54.17,4.72,4.72,0,0,1-2-.26,3,3,0,0,0-1.1-.27H337c-.36,0-.58.14-.65.42s-.21.4-.38.4a1,1,0,0,1-.31-.06,2.69,2.69,0,0,1-.91-.49,3.23,3.23,0,0,1-.66-1.06,3.11,3.11,0,0,1-.34-1.12q0-.12.06-.15c.18-.05.3-.44.36-1.15a6.41,6.41,0,0,1,.29-1.45,9.77,9.77,0,0,0,.17-2.46c0-1.4-.06-2.1-.17-2.1s-.09,0-.1-.1a.4.4,0,0,1,.06-.28.54.54,0,0,0,0-.18,9.13,9.13,0,0,0-1.09-2.63,1.88,1.88,0,0,1-.23-.92C333.09,197.37,333.28,197,333.68,197Zm5.52,3.11a2.56,2.56,0,0,0-.86-.4c-.16,0-.36.46-.62,1.39a23.3,23.3,0,0,0-.62,3,17.78,17.78,0,0,1-.46,2.29,3.74,3.74,0,0,0-.17,1.55l0,1.2,2,.17c.5,0,1,.06,1.42.06a7.55,7.55,0,0,0,4.16-1,2.14,2.14,0,0,0,.74-.63A1.49,1.49,0,0,0,345,207q0-.84-.24-.84c-.11,0-.16-.11-.16-.34,0-.42-.65-1.31-1.95-2.69A20.42,20.42,0,0,0,339.2,200.07Z"/><path class="cls-4" d="M351.55,197.51a9.23,9.23,0,0,1,1.09-.07,2.94,2.94,0,0,1,2.14.74c.41.36.61.67.61.92a1.54,1.54,0,0,1-.42.84.88.88,0,0,1-.63.42,3,3,0,0,1-.65-.15,2.64,2.64,0,0,0-.78-.1,1.84,1.84,0,0,0-1.12.33,1,1,0,0,0-.45.87,1.55,1.55,0,0,0,.41.94,19.51,19.51,0,0,0,1.71,1.77,22.29,22.29,0,0,1,2.83,3,5.09,5.09,0,0,1,1,2.25,4.8,4.8,0,0,1,0,.54A2.08,2.08,0,0,1,356,212a4,4,0,0,1-1.47.23,11.75,11.75,0,0,1-4.14-.84,5,5,0,0,1-2.73-1.82,1.8,1.8,0,0,1-.21-.8,1,1,0,0,1,.29-.74,1.09,1.09,0,0,1,.76-.27,1.86,1.86,0,0,1,1,.34,14,14,0,0,0,2.44,1.24,6,6,0,0,0,1.95.46c.4,0,.65-.11.73-.32a.59.59,0,0,0,0-.21c0-.67-.72-1.63-2.16-2.87q-3.78-3.19-4.22-4.67a6.29,6.29,0,0,1-.27-1.23,1.75,1.75,0,0,1,.65-1.16,7.46,7.46,0,0,1,1.47-1.33A3.55,3.55,0,0,1,351.55,197.51Z"/></g><g id="income-item-royalties"><path class="cls-4" d="M259.8,223.78a5.56,5.56,0,0,1,2.71-.63,4.46,4.46,0,0,1,1.89.35,7.94,7.94,0,0,1,2.55,2,3.68,3.68,0,0,1,1,2.29,4.68,4.68,0,0,1-.74,1.91,11.75,11.75,0,0,1-1.55,2.18c-.54.53-.8.93-.8,1.18s.43.8,1.3,1.61a7.58,7.58,0,0,0,2.06,1.52,2.89,2.89,0,0,1,.91.5.81.81,0,0,1,.35.55c0,.15-.1.26-.29.31a2.11,2.11,0,0,1-.68.09,5.72,5.72,0,0,1-1.74-.31,3.32,3.32,0,0,1-1.34-.72,1.15,1.15,0,0,0-.65-.36c-.33,0-.88-.43-1.65-1.3a5.18,5.18,0,0,1-1.3-2,1.73,1.73,0,0,1,0-.37.7.7,0,0,1,.44-.63,7.4,7.4,0,0,0,1.6-1.3,7.71,7.71,0,0,0,1.28-1.6,3.65,3.65,0,0,0,.44-1.66,2.17,2.17,0,0,0-.53-1.48,2.68,2.68,0,0,0-1.53-.79,3,3,0,0,0-.56-.06,1.69,1.69,0,0,0-1.67,1.3,14.63,14.63,0,0,0-.47,4.49A22.28,22.28,0,0,0,261,235a4.44,4.44,0,0,1,.1.84c0,.95-.38,1.47-1.13,1.55a1.58,1.58,0,0,1-.34,0c-.45,0-.74-.34-.87-1a45.57,45.57,0,0,1-.37-5c-.1-2.13-.14-3.51-.14-4.16a9.17,9.17,0,0,1,.15-1.9,2.16,2.16,0,0,1,.44-1A3.61,3.61,0,0,1,259.8,223.78Z"/><path class="cls-4" d="M274.75,223.8a8.82,8.82,0,0,1,1.2-.15,1.67,1.67,0,0,1,1,.32,11.88,11.88,0,0,1,1.3,1.28,13.46,13.46,0,0,1,2.34,3.44,10.47,10.47,0,0,1,.89,3.7c0,.56.06,1,.06,1.3a2.33,2.33,0,0,1-.13.92,4.16,4.16,0,0,1-.62.86,6.2,6.2,0,0,1-1.8,1.41,4.19,4.19,0,0,1-1.92.63,8.26,8.26,0,0,1-2-.38,7,7,0,0,1-3.7-3,8.55,8.55,0,0,1-1.59-4.78,4.43,4.43,0,0,1,1.38-3.36q.92-1.05,1.29-1.05a2.87,2.87,0,0,0,1-.48A3.94,3.94,0,0,1,274.75,223.8Zm2,3.15a1.24,1.24,0,0,0-1-.65,3.69,3.69,0,0,0-1.43.5,3.5,3.5,0,0,0-1.35,1.09,2.74,2.74,0,0,0-.41,1.54,7.92,7.92,0,0,0,.12,1.28,6.59,6.59,0,0,0,.65,1.93,5.18,5.18,0,0,0,1.27,1.45,3.5,3.5,0,0,0,2.31.84,1.68,1.68,0,0,0,1.26-.42,2.54,2.54,0,0,0,.56-1.85,8.79,8.79,0,0,0-.53-2.79A12,12,0,0,0,276.79,227Z"/><path class="cls-4" d="M282.1,223a1.23,1.23,0,0,1,.94-.29h.17l.74.08.19,1.91a10.63,10.63,0,0,0,.53,2.61c.26.72.52,1.1.79,1.11a.38.38,0,0,0,.26-.13.59.59,0,0,0,.18-.29c.14-.43.53-1.36,1.16-2.77a4,4,0,0,0,.37-1.37.8.8,0,0,1,.44-.67A2.06,2.06,0,0,1,289,223a1.08,1.08,0,0,1,.75.21,1,1,0,0,1,.23.75,14.68,14.68,0,0,1-.59,3,20,20,0,0,1-.6,2,9.86,9.86,0,0,1-.95,1.46,4,4,0,0,0-.58,1,5.16,5.16,0,0,0-.11,1.27c0,.08,0,.24,0,.45s0,.4,0,.54a9.4,9.4,0,0,0,.29,2.66,1.24,1.24,0,0,1,.15.66,1.7,1.7,0,0,1-.16.74c-.1.23-.23.35-.37.35a1.83,1.83,0,0,1-1.62-1.25,9.21,9.21,0,0,1-.69-3.54,11.13,11.13,0,0,0-.14-1.89,1.08,1.08,0,0,0-.46-.67c-.35-.23-.53-.44-.53-.63a1.11,1.11,0,0,0-.36-.67,1.85,1.85,0,0,1-.46-.87c0-.19-.17-.79-.44-1.78a10.63,10.63,0,0,1-.5-2.77A1.32,1.32,0,0,1,282.1,223Z"/><path class="cls-4" d="M297.28,222.33a1.07,1.07,0,0,1,.86-.4,2.1,2.1,0,0,1,.93.25,1.57,1.57,0,0,1,.69.61,4.14,4.14,0,0,1,.17,1.34,8,8,0,0,0,.36,2.05,4.54,4.54,0,0,0,.67,1.59.85.85,0,0,1,.19.54,50.14,50.14,0,0,0,2.22,5.06c0,.06.46.89,1.3,2.48a4.06,4.06,0,0,1,.68,1.47,1,1,0,0,1-.17.48.89.89,0,0,1-.8.55,2.19,2.19,0,0,1-1.2-.46c-.32-.2-1-.56-1.93-1.08l-1.89-1a4.43,4.43,0,0,0-2-.88,1.16,1.16,0,0,0-.28,0H297a1.62,1.62,0,0,1-1.05-.59c-.35-.32-.6-.48-.74-.48s-.48.4-.86,1.22c-.25.6-.45.9-.61.9s-.21.11-.21.33a2.09,2.09,0,0,1-.56,1,1.78,1.78,0,0,1-1.41.65,1.18,1.18,0,0,1-1-.46,1.37,1.37,0,0,1-.31-.78,1.51,1.51,0,0,1,.58-1,10.08,10.08,0,0,0,1.75-2.41c.61-1.1,1.49-2.88,2.62-5.34a25.53,25.53,0,0,1,1.11-2.35,6.44,6.44,0,0,0,.51-1.79A2.89,2.89,0,0,1,297.28,222.33Zm1.24,5.86a.74.74,0,0,0-.31-.49.22.22,0,0,0-.13-.06c-.18,0-.5.5-1,1.51-.4.84-.75,1.65-1.05,2.44a3.71,3.71,0,0,1-.5,1.07c-.1.13-.08.14.06,0a1.45,1.45,0,0,0,.23-.15,1.82,1.82,0,0,1,1.14-.35c.26,0,.65,0,1.15.06s.78.06,1.07.06q.87,0,.87-.21a6,6,0,0,0-.7-1.91A8.19,8.19,0,0,1,298.52,228.19Zm2.84,6.19a.68.68,0,0,0-.65-.52.6.6,0,0,0-.26.07.23.23,0,0,0-.14.2q0,.17.45.54a1.34,1.34,0,0,0,.66.36s.05,0,.06,0S301.5,234.75,301.36,234.38Z"/><path class="cls-4" d="M308.41,223.38c0-.07.09-.11.28-.11a4,4,0,0,1,.6.09,4.3,4.3,0,0,0,.78.08c.16,0,.25,0,.27,0a.08.08,0,0,1,.07,0c.07,0,.1.18.1.54a8.85,8.85,0,0,1-.11,1.28,2.34,2.34,0,0,1-.29,1,2.6,2.6,0,0,0-.46,1.07,2.55,2.55,0,0,1-.36.88,7.57,7.57,0,0,0-.71,2.45,19,19,0,0,0-.36,3.33,3,3,0,0,0,.11.9c.08.2.42.29,1,.29s1-.09,1.09-.27.09-.09.22-.11a.86.86,0,0,1,.39,0,1.34,1.34,0,0,0,.35,0,4.67,4.67,0,0,0,1.18-.17,3.33,3.33,0,0,1,.88-.1,2.54,2.54,0,0,1,1.06.19c.29.12.43.29.43.5s-.3.56-.9.93a5.42,5.42,0,0,1-1.7.73,6.27,6.27,0,0,0-1.58.5,3.16,3.16,0,0,1-1.42.3,4.15,4.15,0,0,1-1.82-.42,3.09,3.09,0,0,1-1.33-1.16,4.82,4.82,0,0,1-.57-2.6,22,22,0,0,1,1-5.8q.11-.33.42-1.47l.42-1.49c.18-.73.38-1.09.61-1.09S308.41,223.53,308.41,223.38Z"/><path class="cls-4" d="M327.71,221.61a13.36,13.36,0,0,1,1.85-.14c.9,0,1.39.12,1.47.35a1.72,1.72,0,0,1,.07.21.67.67,0,0,1,0,.17v.09a8.09,8.09,0,0,1-1.16.63,5.09,5.09,0,0,1-1.1.44c-.21,0-.32.07-.32.21s-.22.26-.65.33a10.36,10.36,0,0,0-3.32.95,1.57,1.57,0,0,1-.94.17c-.54,0-.84.06-.91.18a1.08,1.08,0,0,0,0,.28c0,.66.1,2.05.3,4.18s.37,3.67.52,4.64a10,10,0,0,1,.17,1.26,1,1,0,0,1-.38.75.9.9,0,0,1-.59.36,1.15,1.15,0,0,1-.5-.15,1.75,1.75,0,0,1-.88-.92,19.54,19.54,0,0,1-.52-3.07c-.21-1.72-.4-3.47-.55-5.25l-.13-1.66-1.7,0h-.23a5.36,5.36,0,0,1-2.12-.3,1.68,1.68,0,0,1-.88-1.43,1,1,0,0,1,.14-.54,1.71,1.71,0,0,1,.81-.55,3.25,3.25,0,0,1,1.13-.23,1.51,1.51,0,0,1,.44.06,6,6,0,0,0,1.61.13,42.91,42.91,0,0,0,4.52-.27,8.52,8.52,0,0,0,2.9-.59A2.25,2.25,0,0,1,327.71,221.61Z"/><path class="cls-4" d="M331.2,223.8a1.22,1.22,0,0,1,.9-.36,1.27,1.27,0,0,1,.95.38,1.6,1.6,0,0,1,.37,1.17,13.87,13.87,0,0,1-.21,1.83,35.49,35.49,0,0,0-.35,5.57,12.73,12.73,0,0,0,.14,2.37,4.93,4.93,0,0,1,.09.67c0,.65-.36,1-1.07,1a1.39,1.39,0,0,1-1.37-.79,7.69,7.69,0,0,1-.38-2.93c0-.64,0-1.41.07-2.29.11-2.36.22-4,.34-4.92A3,3,0,0,1,331.2,223.8Z"/><path class="cls-4" d="M335.8,221.76a4.4,4.4,0,0,1,1-.13,7.25,7.25,0,0,1,3.12.89,8.5,8.5,0,0,1,1.39.79.84.84,0,0,1,.4.63.62.62,0,0,1-.06.26.56.56,0,0,1-.59.33,3.58,3.58,0,0,1-1.28-.33,5.31,5.31,0,0,0-2-.36,3,3,0,0,0-1.28.23c-.29.18-.44.58-.44,1.2a16.67,16.67,0,0,0,.13,1.78l.14,1.22,1.54-.1c.29,0,.71,0,1.26,0,1.83,0,2.88.26,3.15.76a1,1,0,0,1,.12.44.36.36,0,0,1-.08.25,6.61,6.61,0,0,1-2,.55,16.88,16.88,0,0,1-2.69.33.83.83,0,0,1-.27,0l-.34,0a.17.17,0,0,0-.19.19,3.6,3.6,0,0,0,.19.8c.05.14.11.38.21.72s.16.55.17.62c.09.39.21.59.38.59l.17,0a19.76,19.76,0,0,1,2.87-.29c1.67-.1,3.06-.16,4.18-.17h.42a4,4,0,0,1,1,.08.34.34,0,0,1,.27.34c0,.35-.56.74-1.66,1.17a18.65,18.65,0,0,1-3.91,1,5.89,5.89,0,0,0-1.07.25,4.65,4.65,0,0,1-1.41.15h-.14c-.51,0-.8.1-.87.29a.34.34,0,0,1-.37.23,1,1,0,0,1-.32,0,2.15,2.15,0,0,1-1.21-.73,8.07,8.07,0,0,1-.66-2.21c-.1-.46-.22-1-.37-1.7s-.22-1.05-.24-1.13a25.83,25.83,0,0,1-.77-5.34,4.48,4.48,0,0,1,.5-2.36A2.44,2.44,0,0,1,335.8,221.76Z"/><path class="cls-4" d="M351.11,222.71a9.23,9.23,0,0,1,1.09-.07,2.94,2.94,0,0,1,2.14.74c.41.36.61.67.61.92a1.54,1.54,0,0,1-.42.84q-.34.42-.63.42a3,3,0,0,1-.65-.15,2.68,2.68,0,0,0-.78-.1,1.9,1.9,0,0,0-1.12.32,1,1,0,0,0-.45.88,1.59,1.59,0,0,0,.4.94,21.72,21.72,0,0,0,1.72,1.77,22.29,22.29,0,0,1,2.83,3,5.09,5.09,0,0,1,1,2.25,4.8,4.8,0,0,1,0,.54,2.08,2.08,0,0,1-1.34,2.1,4,4,0,0,1-1.47.23,11.75,11.75,0,0,1-4.14-.84,4.87,4.87,0,0,1-2.73-1.82,1.8,1.8,0,0,1-.21-.8,1,1,0,0,1,.29-.74,1.09,1.09,0,0,1,.76-.27,1.88,1.88,0,0,1,1,.34,14,14,0,0,0,2.44,1.24,6,6,0,0,0,1.95.46c.4,0,.65-.11.73-.32a.59.59,0,0,0,0-.21c0-.67-.72-1.63-2.16-2.87q-3.78-3.2-4.22-4.67a6.29,6.29,0,0,1-.27-1.23,1.75,1.75,0,0,1,.65-1.16,7.46,7.46,0,0,1,1.47-1.33A3.55,3.55,0,0,1,351.11,222.71Z"/></g><g id="asset-item-business"><path class="cls-4" d="M208.14,590a2.58,2.58,0,0,1,1-.16,5.47,5.47,0,0,1,2.74.62,7.22,7.22,0,0,1,1.56,1.17c.52.5.78.86.78,1.07a4,4,0,0,1-.86,2.28l-.42.62,1.64.88a12.85,12.85,0,0,1,2.51,1.71,3.75,3.75,0,0,1,1.23,1.63,1.13,1.13,0,0,1,.06.36,2.43,2.43,0,0,1-.26,1,6.2,6.2,0,0,1-2.55,2.51,6.75,6.75,0,0,1-3.43,1.13,2.45,2.45,0,0,1-.7-.08c-1-.28-1.48-.63-1.48-1.06a1.26,1.26,0,0,1,.4-.78,2.17,2.17,0,0,1,1.56-.42,5.5,5.5,0,0,0,2.24-.54,3.77,3.77,0,0,0,1.64-1.2,1.51,1.51,0,0,0,.26-.56c0-.12-.13-.31-.4-.58a12.49,12.49,0,0,0-2.55-1.53,9.82,9.82,0,0,0-2.57-1.07,1.2,1.2,0,0,1-.85-.4,1.19,1.19,0,0,1-.41-.86c0-.57.52-1.06,1.56-1.48.63-.25.94-.62.94-1.12a.81.81,0,0,0-.34-.64,3.43,3.43,0,0,0-.92-.44,3.19,3.19,0,0,0-1-.18.55.55,0,0,0-.36.1q-.23.22-.3,5c0,3.23-.15,4.95-.32,5.16a1.17,1.17,0,0,1-.92.3,1.15,1.15,0,0,1-.64-.14,1.18,1.18,0,0,1-.37-.71,7.23,7.23,0,0,1-.2-1.45c0-.58-.06-1.45-.07-2.6,0-.64,0-1.31,0-2s0-1.29-.07-1.77,0-.76,0-.87a3.39,3.39,0,0,1,.63-1.61A3.49,3.49,0,0,1,208.14,590Z"/><path class="cls-4" d="M223.56,589.3a.93.93,0,0,1,.62-.38c.24,0,.58.23,1,.68a2,2,0,0,1,.72,1.36.92.92,0,0,1,0,.26,4.87,4.87,0,0,0,.24.74,12.58,12.58,0,0,1,.61,2.79,28.76,28.76,0,0,1,.23,3.53,7.62,7.62,0,0,1-.38,3,3.69,3.69,0,0,1-2.54,1.56,2.58,2.58,0,0,1-.62-.1,4.51,4.51,0,0,1-1.89-.85,6.86,6.86,0,0,1-1.29-2,17.29,17.29,0,0,1-1.08-2.68,15,15,0,0,1-.42-2.78c-.05-.77-.08-1.19-.08-1.26a1.35,1.35,0,0,1,.1-.61,1.71,1.71,0,0,1,.38-.43,1.5,1.5,0,0,1,1-.4l.24,0a2,2,0,0,1,.92.34,1.1,1.1,0,0,1,.24.82,6.72,6.72,0,0,1-.06.82,5.93,5.93,0,0,1-.2,1.5.42.42,0,0,0,0,.16,7.19,7.19,0,0,0,.25,1.49,8.94,8.94,0,0,0,.45,1.47,2.38,2.38,0,0,1,.34.88c0,.16.21.45.64.85s.73.61.9.61.43-.22.54-.67a10.61,10.61,0,0,0,.16-2.25v-.6a17.69,17.69,0,0,0-.9-6.14,3.55,3.55,0,0,1-.32-1.12A1,1,0,0,1,223.56,589.3Z"/><path class="cls-4" d="M231.16,590.1c.4,0,.75-.06,1-.06a2.83,2.83,0,0,1,2,.7c.39.35.58.64.58.88a1.43,1.43,0,0,1-.4.8.83.83,0,0,1-.6.4,2.64,2.64,0,0,1-.62-.14,2.7,2.7,0,0,0-.74-.1,1.83,1.83,0,0,0-1.07.31,1,1,0,0,0-.43.83,1.51,1.51,0,0,0,.39.9A16.88,16.88,0,0,0,233,596.3a21.63,21.63,0,0,1,2.7,2.9,4.87,4.87,0,0,1,.92,2.14,4.54,4.54,0,0,1,0,.52,2,2,0,0,1-1.28,2,3.77,3.77,0,0,1-1.4.22,11.07,11.07,0,0,1-3.94-.8,4.68,4.68,0,0,1-2.6-1.74,1.73,1.73,0,0,1-.2-.76.91.91,0,0,1,.28-.7,1,1,0,0,1,.72-.26,1.83,1.83,0,0,1,1,.32,12.77,12.77,0,0,0,2.33,1.18,5.35,5.35,0,0,0,1.85.44c.39,0,.62-.1.7-.3a.54.54,0,0,0,0-.2c0-.64-.69-1.55-2.06-2.74q-3.6-3-4-4.44a6.11,6.11,0,0,1-.26-1.18,1.74,1.74,0,0,1,.62-1.1,7.49,7.49,0,0,1,1.4-1.27A3.41,3.41,0,0,1,231.16,590.1Z"/><path class="cls-4" d="M237.78,591.14a1.28,1.28,0,0,1,1.76,0,1.54,1.54,0,0,1,.36,1.12,13.91,13.91,0,0,1-.2,1.74,32.37,32.37,0,0,0-.34,5.3,11.53,11.53,0,0,0,.14,2.26,5.79,5.79,0,0,1,.08.64c0,.62-.34.92-1,.92a1.31,1.31,0,0,1-1.3-.75,7.29,7.29,0,0,1-.36-2.79c0-.61,0-1.34.06-2.18.11-2.25.22-3.81.33-4.69A2.94,2.94,0,0,1,237.78,591.14Z"/><path class="cls-4" d="M248.9,589.08a.9.9,0,0,1,.26-.46.89.89,0,0,1,.52-.12,1.58,1.58,0,0,1,1.17.44,3.12,3.12,0,0,1,.67,1.44,29.65,29.65,0,0,1,.74,5.36c0,.82.09,1.22.2,1.22s.1.22.1.64a16.7,16.7,0,0,1-.11,1.73,6,6,0,0,1-.27,1.41,12.31,12.31,0,0,1-1,2.17c-.36.61-.63.91-.83.91a.67.67,0,0,0-.58.24c-.07.11-.39.16-1,.16-.34,0-.61,0-.82,0a5.88,5.88,0,0,1-1.51-.24,2.47,2.47,0,0,1-.87-.76,9.6,9.6,0,0,1-1.24-1.94c-.35-.7-.58-1.06-.7-1.06s-.16.2-.16.58a13.19,13.19,0,0,1-.24,2.06,4.29,4.29,0,0,1-.64,1.74,1.22,1.22,0,0,1-1,.62,1.47,1.47,0,0,1-1.08-.58,1.27,1.27,0,0,1-.4-.7,4.43,4.43,0,0,1,.26-1.06,10.76,10.76,0,0,0,.46-2.35c.08-.86.16-2.5.24-4.93.05-1.53.11-2.61.19-3.25a4,4,0,0,1,.34-1.37,2,2,0,0,1,.81-.74l.82-.46.54.52a1.61,1.61,0,0,1,.47.8,15.55,15.55,0,0,1,.21,1.84,8.63,8.63,0,0,0,.17,1.48c.08.43.16.66.23.68s.22.24.22.56a8,8,0,0,0,.48,2.06,11.32,11.32,0,0,0,1.3,3c.48.73.93,1.09,1.36,1.09s.61-.22.84-.66a8,8,0,0,0,.7-3.66,22.71,22.71,0,0,0-.2-2.86c-.19-1.48-.39-2.77-.62-3.88a5.06,5.06,0,0,1-.14-1.2A2.06,2.06,0,0,1,248.9,589.08Z"/><path class="cls-4" d="M254.82,589.2a4,4,0,0,1,1-.12,6.92,6.92,0,0,1,3,.84,7.93,7.93,0,0,1,1.32.76.82.82,0,0,1,.38.6.53.53,0,0,1-.06.24.52.52,0,0,1-.56.32,3.23,3.23,0,0,1-1.22-.32,5.22,5.22,0,0,0-1.92-.34,2.86,2.86,0,0,0-1.22.22,1.27,1.27,0,0,0-.42,1.14c0,.39,0,1,.12,1.7l.14,1.16,1.46-.1c.28,0,.68,0,1.2,0q2.63,0,3,.72a1,1,0,0,1,.12.42.33.33,0,0,1-.08.24,5.84,5.84,0,0,1-1.94.52,15.06,15.06,0,0,1-2.56.32.8.8,0,0,1-.26,0l-.32,0a.16.16,0,0,0-.18.18,3,3,0,0,0,.18.76l.2.69c.09.33.15.53.16.59.08.38.2.56.36.56l.16,0a19.47,19.47,0,0,1,2.74-.27c1.59-.1,2.91-.15,4-.17h.4a4.12,4.12,0,0,1,1,.08.32.32,0,0,1,.25.32c0,.34-.53.71-1.58,1.12a17,17,0,0,1-3.72,1,5.5,5.5,0,0,0-1,.24,4.28,4.28,0,0,1-1.34.14h-.14c-.48,0-.75.1-.82.28a.33.33,0,0,1-.36.22.87.87,0,0,1-.3,0,2,2,0,0,1-1.15-.7,7.56,7.56,0,0,1-.63-2.1c-.09-.44-.21-1-.35-1.62s-.22-1-.23-1.08a24.32,24.32,0,0,1-.74-5.08,4.33,4.33,0,0,1,.48-2.25A2.33,2.33,0,0,1,254.82,589.2Z"/><path class="cls-4" d="M269.08,591.6a5.49,5.49,0,0,1,2.22-.42,2.54,2.54,0,0,1,1.72.44,1.37,1.37,0,0,1,.48,1,.91.91,0,0,1-.39.75,1.56,1.56,0,0,1-1,.31H272l-.8,0a1.69,1.69,0,0,0-.7.09.39.39,0,0,0-.16.37,4.42,4.42,0,0,0,1.05,1.83,12.76,12.76,0,0,0,2,2.17,15.76,15.76,0,0,1,1.78,1.61,1.63,1.63,0,0,1,.36,1,1.46,1.46,0,0,1-.21.76,3.61,3.61,0,0,1-.81.74,3.91,3.91,0,0,1-1.11.66,6.71,6.71,0,0,1-1.57.12,13.32,13.32,0,0,1-3.71-.62,5.14,5.14,0,0,1-2.49-1.26.89.89,0,0,1-.2-.62.34.34,0,0,1,0-.09.2.2,0,0,0,0-.07,1.05,1.05,0,0,1,.38-.66,1.08,1.08,0,0,1,.7-.24,1.53,1.53,0,0,1,1,.42,4,4,0,0,0,1.65.75,8.23,8.23,0,0,0,2.17.31,2.27,2.27,0,0,0,1.18-.22s.06,0,.06-.12-.55-.89-1.64-2q-2.87-2.85-3.28-5a2.2,2.2,0,0,1-.06-.5,1.1,1.1,0,0,1,.31-.8A3.63,3.63,0,0,1,269.08,591.6Z"/><path class="cls-4" d="M279.76,590.1c.4,0,.74-.06,1-.06a2.83,2.83,0,0,1,2,.7c.38.35.58.64.58.88a1.51,1.51,0,0,1-.4.8c-.22.27-.42.4-.6.4a2.54,2.54,0,0,1-.62-.14,2.76,2.76,0,0,0-.74-.1,1.81,1.81,0,0,0-1.07.31,1,1,0,0,0-.43.83,1.51,1.51,0,0,0,.39.9,16.88,16.88,0,0,0,1.63,1.68,21.63,21.63,0,0,1,2.7,2.9,5,5,0,0,1,.92,2.14c0,.24,0,.42,0,.52a2,2,0,0,1-1.28,2,3.81,3.81,0,0,1-1.4.22,11,11,0,0,1-3.94-.8,4.64,4.64,0,0,1-2.6-1.74,1.6,1.6,0,0,1-.2-.76.91.91,0,0,1,.28-.7,1,1,0,0,1,.72-.26,1.86,1.86,0,0,1,1,.32,12.46,12.46,0,0,0,2.33,1.18,5.35,5.35,0,0,0,1.85.44c.38,0,.62-.1.7-.3a.88.88,0,0,0,0-.2c0-.64-.69-1.55-2.06-2.74q-3.6-3-4-4.44a5.39,5.39,0,0,1-.26-1.18,1.69,1.69,0,0,1,.62-1.1,7.49,7.49,0,0,1,1.4-1.27A3.41,3.41,0,0,1,279.76,590.1Z"/></g><g id="asset-item-real-estate"><path class="cls-4" d="M212.38,613.24a3.07,3.07,0,0,1,.88-.12,5,5,0,0,1,1.78.36,4.43,4.43,0,0,1,1.5,1.3,5.56,5.56,0,0,1,1.1,1.82,4.09,4.09,0,0,1,.16,1.08,3.18,3.18,0,0,1-.75,2,15.45,15.45,0,0,1-2.59,2.43c-.83.63-1.24,1-1.24,1.14s.32.53.95,1a17,17,0,0,0,2.43,1.39,13.79,13.79,0,0,1,2.36,1.35,1.42,1.42,0,0,1,.56,1.09,2.37,2.37,0,0,1,0,.31.22.22,0,0,1-.08.15.35.35,0,0,1-.23.06s-.26,0-.66-.08a19.07,19.07,0,0,1-4.44-1.37,11.13,11.13,0,0,1-3.44-1.93l-.82-.82-.36,1.14a5.93,5.93,0,0,1-.74,1.7c-.21.3-.4.44-.56.44a4.54,4.54,0,0,1-.84-.2l-.27-.08-.23-.08-.16-.09a.32.32,0,0,1-.15-.12.76.76,0,0,1-.08-.16.83.83,0,0,1-.06-.25,3.33,3.33,0,0,1,0-.34c0-.34.09-1.4.26-3.18.05-.8.08-1.43.08-1.9a16.7,16.7,0,0,0-.4-4.06,1.37,1.37,0,0,1,0-.3.94.94,0,0,1,.3-.68,1.45,1.45,0,0,1,1.06-.38,1.15,1.15,0,0,1,.94.36c.15.16.24.24.28.24s.19-.1.32-.32a12.88,12.88,0,0,1,1.68-1.78A5.26,5.26,0,0,1,212.38,613.24Zm2.22,2.86a2.2,2.2,0,0,0-.52-.39,1.23,1.23,0,0,0-.54-.17,2,2,0,0,0-1.26.64,3.11,3.11,0,0,0-.92,1.36c-.17.54-.34.8-.5.8s-.2.12-.2.34a4.61,4.61,0,0,1-.48,1.32,4.38,4.38,0,0,0-.46,1.48c0,.23.09.34.26.34a2.54,2.54,0,0,0,1.28-.74,25.81,25.81,0,0,1,2.26-1.66,6.42,6.42,0,0,0,1.5-1.14,1,1,0,0,0,.14-.58A2.33,2.33,0,0,0,214.6,616.1Z"/><path class="cls-4" d="M221.78,613.2a4,4,0,0,1,1-.12,6.92,6.92,0,0,1,3,.84,7.93,7.93,0,0,1,1.32.76.82.82,0,0,1,.38.6.53.53,0,0,1-.06.24.52.52,0,0,1-.56.32,3.23,3.23,0,0,1-1.22-.32,5.22,5.22,0,0,0-1.92-.34,2.86,2.86,0,0,0-1.22.22,1.27,1.27,0,0,0-.42,1.14c0,.39,0,1,.12,1.7l.14,1.16,1.46-.1c.28,0,.68,0,1.2,0q2.63,0,3,.72a1,1,0,0,1,.12.42.33.33,0,0,1-.08.24,5.84,5.84,0,0,1-1.94.52,15.06,15.06,0,0,1-2.56.32.8.8,0,0,1-.26,0l-.32,0a.16.16,0,0,0-.18.18,3,3,0,0,0,.18.76l.2.69c.09.33.15.53.16.59.08.38.2.56.36.56l.16,0a19.47,19.47,0,0,1,2.74-.27c1.58-.1,2.91-.15,4-.17h.4a4.12,4.12,0,0,1,1,.08.32.32,0,0,1,.25.32c0,.34-.53.71-1.58,1.12a17,17,0,0,1-3.72,1,5.5,5.5,0,0,0-1,.24,4.32,4.32,0,0,1-1.34.14h-.14c-.48,0-.75.1-.82.28a.33.33,0,0,1-.36.22.87.87,0,0,1-.3,0,2,2,0,0,1-1.15-.7,7.56,7.56,0,0,1-.63-2.1c-.09-.44-.21-1-.35-1.62s-.22-1-.23-1.08a24.32,24.32,0,0,1-.74-5.08,4.33,4.33,0,0,1,.48-2.25A2.33,2.33,0,0,1,221.78,613.2Z"/><path class="cls-4" d="M239.16,613.74a1,1,0,0,1,.82-.38,2,2,0,0,1,.88.24,1.49,1.49,0,0,1,.66.58,3.87,3.87,0,0,1,.16,1.28,7.54,7.54,0,0,0,.34,1.95,4.15,4.15,0,0,0,.64,1.51.8.8,0,0,1,.18.52,46,46,0,0,0,2.12,4.82c0,.06.44.84,1.24,2.36a4.07,4.07,0,0,1,.64,1.4,1.05,1.05,0,0,1-.16.46.84.84,0,0,1-.76.52,2,2,0,0,1-1.14-.44c-.31-.18-.92-.53-1.84-1l-1.8-1a4.28,4.28,0,0,0-1.9-.84,1.51,1.51,0,0,0-.26,0h-.1a1.49,1.49,0,0,1-1-.56c-.34-.3-.57-.46-.7-.46s-.46.39-.82,1.16c-.24.58-.44.86-.58.86s-.2.11-.2.32a2,2,0,0,1-.54,1,1.69,1.69,0,0,1-1.34.62,1.11,1.11,0,0,1-1-.44,1.32,1.32,0,0,1-.3-.74,1.44,1.44,0,0,1,.56-1,9.48,9.48,0,0,0,1.66-2.29q.88-1.56,2.5-5.09a22.9,22.9,0,0,1,1.06-2.24,6.66,6.66,0,0,0,.48-1.7A2.72,2.72,0,0,1,239.16,613.74Zm1.18,5.58c0-.13-.1-.28-.3-.46a.17.17,0,0,0-.12-.06c-.17,0-.48.48-.92,1.44-.39.8-.72,1.58-1,2.32a3.75,3.75,0,0,1-.48,1c-.1.12-.08.14.06,0a1.07,1.07,0,0,0,.22-.14,1.7,1.7,0,0,1,1.08-.34c.25,0,.62,0,1.1.06s.74.06,1,.06c.54,0,.82-.06.82-.2a5.64,5.64,0,0,0-.66-1.82A7.26,7.26,0,0,1,240.34,619.32Zm2.7,5.9a.65.65,0,0,0-.62-.5.64.64,0,0,0-.24.07.21.21,0,0,0-.14.19c0,.11.14.28.43.51a1.18,1.18,0,0,0,.63.35s.05,0,.06,0S243.17,625.57,243,625.22Z"/><path class="cls-4" d="M248.78,614.64a.81.81,0,0,1,.7-.28,1.89,1.89,0,0,1,1.12.38,1.78,1.78,0,0,1,.39.39,1.22,1.22,0,0,1,.11.57,7.47,7.47,0,0,1-.06.82,28.14,28.14,0,0,1-.66,3.66,30,30,0,0,0-.68,3.92c-.06.56-.08.9-.08,1a1,1,0,0,0,.12.56.5.5,0,0,0,.44.16,7.27,7.27,0,0,0,1.44-.26,9.7,9.7,0,0,1,2.1-.3,6.15,6.15,0,0,1,1.6.24,3.08,3.08,0,0,1,.7.26.4.4,0,0,1,.18.36.63.63,0,0,1,0,.16.58.58,0,0,1-.31.48,3.87,3.87,0,0,1-1.11.26,7.57,7.57,0,0,0-2.3.64,5.47,5.47,0,0,1-2.48.56,4.09,4.09,0,0,1-1.55-.27,1.63,1.63,0,0,1-.91-.75,4.39,4.39,0,0,1-.42-2.08,8.6,8.6,0,0,1,.22-2,58.61,58.61,0,0,0,1.06-6.52A5.45,5.45,0,0,1,248.78,614.64Z"/><path class="cls-4" d="M264.88,613.2a4,4,0,0,1,1-.12,7,7,0,0,1,3,.84,8.89,8.89,0,0,1,1.32.76.82.82,0,0,1,.38.6.53.53,0,0,1-.06.24.52.52,0,0,1-.56.32,3.19,3.19,0,0,1-1.22-.32,5.22,5.22,0,0,0-1.92-.34,2.86,2.86,0,0,0-1.22.22,1.27,1.27,0,0,0-.42,1.14c0,.39,0,1,.12,1.7l.14,1.16,1.46-.1c.28,0,.68,0,1.2,0q2.61,0,3,.72a1,1,0,0,1,.12.42.33.33,0,0,1-.08.24,5.93,5.93,0,0,1-1.94.52,15.17,15.17,0,0,1-2.56.32.76.76,0,0,1-.26,0l-.32,0a.16.16,0,0,0-.18.18,3,3,0,0,0,.18.76c0,.14.1.37.2.69s.14.53.16.59c.08.38.2.56.36.56l.16,0a19.47,19.47,0,0,1,2.74-.27c1.58-.1,2.91-.15,4-.17h.4a4.12,4.12,0,0,1,1,.08.33.33,0,0,1,.25.32c0,.34-.53.71-1.58,1.12a17.34,17.34,0,0,1-3.72,1,5.5,5.5,0,0,0-1,.24,4.32,4.32,0,0,1-1.34.14h-.14c-.48,0-.76.1-.82.28a.35.35,0,0,1-.36.22.87.87,0,0,1-.3,0,1.94,1.94,0,0,1-1.15-.7,6.91,6.91,0,0,1-.63-2.1c-.1-.44-.21-1-.35-1.62s-.22-1-.23-1.08a23.66,23.66,0,0,1-.74-5.08,4.33,4.33,0,0,1,.48-2.25A2.3,2.3,0,0,1,264.88,613.2Z"/><path class="cls-4" d="M279.14,615.6a5.49,5.49,0,0,1,2.22-.42,2.54,2.54,0,0,1,1.72.44,1.37,1.37,0,0,1,.48,1,.91.91,0,0,1-.39.75,1.56,1.56,0,0,1-1,.31h-.1l-.8,0a1.69,1.69,0,0,0-.7.09.39.39,0,0,0-.16.37,4.42,4.42,0,0,0,1.05,1.83,12.38,12.38,0,0,0,2,2.17,15.76,15.76,0,0,1,1.78,1.61,1.63,1.63,0,0,1,.36,1,1.56,1.56,0,0,1-.21.76,3.61,3.61,0,0,1-.81.74,3.91,3.91,0,0,1-1.11.66,6.71,6.71,0,0,1-1.57.12,13.26,13.26,0,0,1-3.71-.62,5.14,5.14,0,0,1-2.49-1.26.89.89,0,0,1-.2-.62.34.34,0,0,1,0-.09s0-.05,0-.07a1.05,1.05,0,0,1,.38-.66,1.08,1.08,0,0,1,.7-.24,1.53,1.53,0,0,1,1,.42,4,4,0,0,0,1.65.75,8.17,8.17,0,0,0,2.17.31,2.27,2.27,0,0,0,1.18-.22s.06,0,.06-.12-.55-.89-1.64-2q-2.87-2.85-3.28-5a2.2,2.2,0,0,1-.06-.5,1.1,1.1,0,0,1,.31-.8A3.63,3.63,0,0,1,279.14,615.6Z"/><path class="cls-4" d="M286.44,614.24l.34-.31a.83.83,0,0,1,.27-.16,1.13,1.13,0,0,1,.39-.07,15.15,15.15,0,0,1,2.2.42,12.74,12.74,0,0,0,3.08.42c.22,0,1,0,2.22-.08,1.74-.09,3.2-.18,4.36-.26l.48,0a.94.94,0,0,1,.49.09.58.58,0,0,1,.19.33,1.44,1.44,0,0,1,0,.24.75.75,0,0,1-.14.5,6.78,6.78,0,0,1-2.19.77,22.12,22.12,0,0,1-3.29.63l-1.58.16.16,2.28c.12,1.72.32,3.82.6,6.28a12.88,12.88,0,0,1,.1,1.5,1.71,1.71,0,0,1,0,.36q-.11.18-.66.18a1.32,1.32,0,0,1-1-.61,1.81,1.81,0,0,1-.5-1.15,3.27,3.27,0,0,0-.26-1.12,23.12,23.12,0,0,1-.56-3.94q-.33-3.15-.42-3.54c0-.14-.6-.28-1.66-.4a13.64,13.64,0,0,1-2-.25,2,2,0,0,1-.79-.47,1,1,0,0,1-.42-.76A1.55,1.55,0,0,1,286.44,614.24Z"/><path class="cls-4" d="M305.7,615.16a1.09,1.09,0,0,1,.19-.72.83.83,0,0,1,.65-.22h.18a4.23,4.23,0,0,1,1.1.28c.41.16.62.29.62.38l0,0s0,.05,0,.1a15.07,15.07,0,0,0,.63,2.76,21.39,21.39,0,0,0,1,3,2.34,2.34,0,0,1,.3.84q0,.3.24.3c.17,0,.2.08.1.22s0,.06,0,.12a2.37,2.37,0,0,0,.24.94,4.35,4.35,0,0,1,.36,1.28.51.51,0,0,0,.34.54c.2.11.26.23.2.36s0,0,0,.1a1.36,1.36,0,0,0,.36.8,1.89,1.89,0,0,1,.48.92,1.85,1.85,0,0,0,.48.9,1.81,1.81,0,0,1,.38,1.06c0,.42-.17.65-.5.7h-.14a2.08,2.08,0,0,1-.93-.27,1.81,1.81,0,0,1-.73-.57,7.1,7.1,0,0,0-2.36-1.35,9.31,9.31,0,0,0-2.76-.93H306l-.38,0c-.22,0-.34,0-.36-.1s-.32-.26-.66-.26-.32.06-.32.16a9,9,0,0,1-.53,1.8,15.5,15.5,0,0,1-.79,1.9c-.27.48-.5.72-.7.72a1.91,1.91,0,0,1-.86-.44,1.16,1.16,0,0,1-.62-.9,3.85,3.85,0,0,1,.52-1.48,9,9,0,0,0,.84-2.18,2,2,0,0,1,.28-.56,9.75,9.75,0,0,0,.72-1.94,6.26,6.26,0,0,1,.68-1.84,15.88,15.88,0,0,0,1.11-3.06,17.24,17.24,0,0,0,.79-3.26Zm2.26,6.08c-.56-1.62-.86-2.44-.88-2.46l-.08,0c-.11,0-.24.15-.38.45a3.54,3.54,0,0,0-.32,1.07,7,7,0,0,1-.58,1.8,2.7,2.7,0,0,0-.44,1.18.87.87,0,0,1-.26.64.52.52,0,0,0-.18.28c0,.12.19.18.58.18.09,0,.46,0,1.1-.08l.94-.12a2.61,2.61,0,0,0,.6-.14.66.66,0,0,0,.39-.25.75.75,0,0,0,.09-.39A10.41,10.41,0,0,0,308,621.24Zm1.74,4.62c-.08-.21-.29-.32-.62-.32a.52.52,0,0,0-.48.2s0,0,0,.08.09.22.27.32a1,1,0,0,0,.53.16.44.44,0,0,0,.18,0C309.73,626.24,309.78,626.1,309.7,625.86Z"/><path class="cls-4" d="M314.28,614.24l.34-.31a.83.83,0,0,1,.27-.16,1.13,1.13,0,0,1,.39-.07,15.15,15.15,0,0,1,2.2.42,12.74,12.74,0,0,0,3.08.42c.22,0,1,0,2.22-.08,1.74-.09,3.2-.18,4.36-.26l.48,0a.94.94,0,0,1,.49.09.58.58,0,0,1,.19.33,1.44,1.44,0,0,1,0,.24.75.75,0,0,1-.14.5,6.78,6.78,0,0,1-2.19.77,22.12,22.12,0,0,1-3.29.63l-1.58.16.16,2.28c.12,1.72.32,3.82.6,6.28a12.88,12.88,0,0,1,.1,1.5,1.71,1.71,0,0,1,0,.36q-.1.18-.66.18a1.32,1.32,0,0,1-1-.61,1.81,1.81,0,0,1-.5-1.15,3.27,3.27,0,0,0-.26-1.12,23.12,23.12,0,0,1-.56-3.94q-.33-3.15-.42-3.54c0-.14-.6-.28-1.66-.4a13.64,13.64,0,0,1-2-.25,2,2,0,0,1-.79-.47,1,1,0,0,1-.42-.76A1.55,1.55,0,0,1,314.28,614.24Z"/><path class="cls-4" d="M331,614.66a3.51,3.51,0,0,1,1.68-.28l1.48,0a14.87,14.87,0,0,1,2.72.3,1.1,1.1,0,0,1,.82.7.37.37,0,0,1,0,.12c0,.54-1.05.81-3.14.82a6.12,6.12,0,0,0-1.8.22.7.7,0,0,0-.52.66.76.76,0,0,0,0,.24,3.71,3.71,0,0,0,0,.42c0,.23.06.51.1.84s.07.64.1.92,0,.56.06.72a2,2,0,0,0,.12.54,2.34,2.34,0,0,0,.15.41.58.58,0,0,0,.28.25,1,1,0,0,0,.39.17l.59.08a5.45,5.45,0,0,0,.78,0h1.07a15.41,15.41,0,0,1,1.8.06c.24,0,.36.15.36.32s-.39.64-1.17,1a7.19,7.19,0,0,1-2.45.62c-1,.08-1.48.19-1.52.32a.75.75,0,0,0-.06.4,4,4,0,0,0,.08.7c.08.52.18.78.32.78l.22-.08a3.77,3.77,0,0,1,1.5-.18h.28a14.73,14.73,0,0,0,3.19-.52,13.21,13.21,0,0,0,3.05-1,2.35,2.35,0,0,1,1-.32c.21,0,.32.1.32.28q0,.54-1.14,1.68a8.55,8.55,0,0,1-3.18,1.71,11.71,11.71,0,0,1-3.76.77,2,2,0,0,1-1.12-.22c-.38-.22-.56-.42-.56-.58s-.17-.22-.5-.22a2.14,2.14,0,0,1-1.55-.5,2.81,2.81,0,0,1-.61-1.68c-.07-.54-.22-1.42-.46-2.62s-.41-1.92-.5-2.18c0-.08-.12-.28-.26-.6a7.83,7.83,0,0,1-.32-.74,2.49,2.49,0,0,1-.26-1.06,1.07,1.07,0,0,1,.32-.84,1.29,1.29,0,0,1,.92-.3c.3,0,.46-.08.46-.24a1.49,1.49,0,0,0-.06-.3,2.1,2.1,0,0,1-.06-.48A1.34,1.34,0,0,1,331,614.66Z"/></g><g id="asset-item-intellectual-property"><path class="cls-4" d="M207,639.14a2,2,0,0,1,1.14-.34,1.53,1.53,0,0,1,1.16.42,1.44,1.44,0,0,1,.36,1c0,.38-.08,1.3-.24,2.78-.16,1.74-.25,3.52-.28,5.36l0,3.1-.62.2a1.58,1.58,0,0,1-.52.1c-.68,0-1.17-.42-1.46-1.26a9.29,9.29,0,0,1-.22-2.58c0-1,0-2.08.08-3.36.08-2.44.15-3.91.21-4.43A1.39,1.39,0,0,1,207,639.14Z"/><path class="cls-4" d="M218.66,637.08a.9.9,0,0,1,.26-.46.89.89,0,0,1,.52-.12,1.58,1.58,0,0,1,1.17.44,3.12,3.12,0,0,1,.67,1.44,29.65,29.65,0,0,1,.74,5.36c0,.82.09,1.22.2,1.22s.1.22.1.64a16.7,16.7,0,0,1-.11,1.73,6,6,0,0,1-.27,1.41,12.31,12.31,0,0,1-1,2.17c-.35.61-.63.91-.83.91a.67.67,0,0,0-.58.24c-.07.11-.39.16-1,.16-.33,0-.61,0-.82,0a5.88,5.88,0,0,1-1.51-.24,2.55,2.55,0,0,1-.87-.76,9.6,9.6,0,0,1-1.24-1.94c-.35-.7-.58-1.06-.7-1.06s-.16.2-.16.58a13.19,13.19,0,0,1-.24,2.06,4.29,4.29,0,0,1-.64,1.74,1.22,1.22,0,0,1-1,.62,1.47,1.47,0,0,1-1.08-.58,1.27,1.27,0,0,1-.4-.7,4.43,4.43,0,0,1,.26-1.06,10.76,10.76,0,0,0,.46-2.35c.08-.86.16-2.5.24-4.93,0-1.53.12-2.61.19-3.25a4,4,0,0,1,.34-1.37,2,2,0,0,1,.81-.74l.82-.46.54.52a1.61,1.61,0,0,1,.47.8,15.55,15.55,0,0,1,.21,1.84,9.76,9.76,0,0,0,.17,1.48c.09.43.16.66.23.68s.22.24.22.56a8,8,0,0,0,.48,2.06,11.66,11.66,0,0,0,1.3,3c.48.73.93,1.09,1.36,1.09s.61-.22.84-.66a7.92,7.92,0,0,0,.7-3.66,22.71,22.71,0,0,0-.2-2.86c-.19-1.48-.39-2.77-.62-3.88a5.06,5.06,0,0,1-.14-1.2A2.06,2.06,0,0,1,218.66,637.08Z"/><path class="cls-4" d="M223.14,638.24l.34-.31a1,1,0,0,1,.27-.16,1.13,1.13,0,0,1,.39-.07,14.9,14.9,0,0,1,2.2.42,12.74,12.74,0,0,0,3.08.42c.23,0,1,0,2.22-.08,1.75-.09,3.2-.18,4.36-.26l.48,0a.94.94,0,0,1,.49.09.53.53,0,0,1,.19.33,1.44,1.44,0,0,1,0,.24.75.75,0,0,1-.14.5,6.78,6.78,0,0,1-2.19.77,21.88,21.88,0,0,1-3.29.63l-1.58.16.16,2.28c.12,1.72.32,3.82.6,6.28a11,11,0,0,1,.1,1.5,1.71,1.71,0,0,1,0,.36q-.1.18-.66.18a1.32,1.32,0,0,1-1-.61,1.86,1.86,0,0,1-.5-1.15,3.27,3.27,0,0,0-.26-1.12,23.12,23.12,0,0,1-.56-3.94c-.21-2.1-.36-3.28-.42-3.54s-.59-.28-1.66-.4a13.64,13.64,0,0,1-2-.25A2,2,0,0,1,223,640a1,1,0,0,1-.42-.76A1.59,1.59,0,0,1,223.14,638.24Z"/><path class="cls-4" d="M240.52,640.16a8.73,8.73,0,0,1,1.64-.12,10,10,0,0,1,3.46.4c.34.16.52.36.52.58s-.27.57-.8.83a5.6,5.6,0,0,1-2,.49,6.65,6.65,0,0,0-1.8.34,3.3,3.3,0,0,0-.36,1.3,4,4,0,0,0-.06.66,1,1,0,0,0,1.18,1.18h.36a12.21,12.21,0,0,1,2.3.22c.73.15,1.14.32,1.24.52a.86.86,0,0,1,.12.38c0,.28-.3.52-.91.71a28,28,0,0,1-3.43.71,1.65,1.65,0,0,0-.8.24,1.63,1.63,0,0,0-.12.82v.92l1,0a21.47,21.47,0,0,0,4.54-1.2,25.55,25.55,0,0,1,3.68-1.06h0a.43.43,0,0,1,.2.34,1.31,1.31,0,0,1-.46.81,5,5,0,0,1-1.24.89l-.63.36-.75.42a25.06,25.06,0,0,1-2.82,1.28,14.34,14.34,0,0,1-4.36,1.24c-.94,0-1.4-.49-1.4-1.48a23.34,23.34,0,0,0-.6-3.9,30.67,30.67,0,0,1-.8-5.2,2.36,2.36,0,0,1,.1-.84,2.1,2.1,0,0,1,1-1A6.09,6.09,0,0,1,240.52,640.16Z"/><path class="cls-4" d="M252.28,637.88a2.58,2.58,0,0,1,.7-.26c.14,0,.39.18.74.52a1.91,1.91,0,0,1,.56,1.42,6.86,6.86,0,0,1-.3,1.74,27,27,0,0,0-1,5.9c0,.56-.06,1-.06,1.42a3.37,3.37,0,0,0,.17,1.29.62.62,0,0,0,.63.39,9.34,9.34,0,0,0,2.74-1,9.85,9.85,0,0,1,2.6-1,.21.21,0,0,1,.22.16s0,.14,0,.32a4.54,4.54,0,0,1,0,.46c0,.52-.54,1.17-1.6,1.95a8.37,8.37,0,0,1-3.16,1.51,2.23,2.23,0,0,1-.4,0,3.52,3.52,0,0,1-1.5-.37,3.26,3.26,0,0,1-1.24-.91,4,4,0,0,1-.7-2.64c0-.88.11-2.34.34-4.38.3-2.52.49-4.26.56-5.24a2,2,0,0,1,.16-.85A1,1,0,0,1,252.28,637.88Z"/><path class="cls-4" d="M262.32,638.74c0-.06.08-.1.26-.1a5.07,5.07,0,0,1,.58.08,3.16,3.16,0,0,0,.74.08c.14,0,.23,0,.26,0l.06,0c.06,0,.1.18.1.52a8.1,8.1,0,0,1-.11,1.22,2.52,2.52,0,0,1-.27.9,2.42,2.42,0,0,0-.44,1,2.73,2.73,0,0,1-.34.84,6.78,6.78,0,0,0-.68,2.33,18,18,0,0,0-.34,3.17,2.72,2.72,0,0,0,.1.86c.08.19.4.28,1,.28s.9-.08,1-.26.08-.09.21-.11a.78.78,0,0,1,.37,0,1.22,1.22,0,0,0,.34,0,4.26,4.26,0,0,0,1.12-.16,3.45,3.45,0,0,1,.84-.1,2.53,2.53,0,0,1,1,.18c.27.12.41.28.41.48s-.29.54-.86.89a5,5,0,0,1-1.62.69,6,6,0,0,0-1.5.48,3.06,3.06,0,0,1-1.36.28,3.88,3.88,0,0,1-1.73-.4,2.87,2.87,0,0,1-1.27-1.1,4.61,4.61,0,0,1-.54-2.48,20.86,20.86,0,0,1,1-5.52c.06-.21.2-.68.4-1.4s.33-1.19.4-1.42c.17-.69.36-1,.58-1S262.32,638.89,262.32,638.74Z"/><path class="cls-4" d="M270.32,638.24a3.23,3.23,0,0,1,1.46-.24,15.35,15.35,0,0,1,4.18.7,4.55,4.55,0,0,1,.92.36.49.49,0,0,1,.24.42c0,.3-.2.49-.58.57a16.47,16.47,0,0,1-2.66.17,7.27,7.27,0,0,0-2.36.22c-.11.07-.08.26.08.56a1.2,1.2,0,0,1,.06.46,8.75,8.75,0,0,1-.18,1.59,7.56,7.56,0,0,1-.44,1.55c-.08.22-.09.32,0,.32l.14-.06a5.51,5.51,0,0,1,1.68-.27c1-.07,1.94-.11,2.9-.11a8.15,8.15,0,0,1,1.8.12c.34.1.52.23.52.4,0,.35-.78.78-2.32,1.3a13,13,0,0,1-3.28.82,1.4,1.4,0,0,1-1-.38l-.54-.5.14,1.92a14.51,14.51,0,0,0,.24,2s0,0,0,0a2.68,2.68,0,0,0,.76-.2,2.16,2.16,0,0,1,.64-.16,1.49,1.49,0,0,1,.64.18,2.28,2.28,0,0,0,1.06.2,13,13,0,0,0,3.08-.5,5.39,5.39,0,0,1,1.18-.2c.26,0,.4.08.4.22a.77.77,0,0,1-.12.34.66.66,0,0,1-.56.42.44.44,0,0,0-.27.14.6.6,0,0,0-.19.32.71.71,0,0,1-.26.38,1,1,0,0,1-.48.22,2.67,2.67,0,0,0-.9.38c-.2.15-.3.18-.3.1s0,0-.12,0a2,2,0,0,0-.6.12,9.32,9.32,0,0,1-1.74.36l-.52,0a1.38,1.38,0,0,1-1-.46,1.59,1.59,0,0,0-1.14-.46h-.34a1.39,1.39,0,0,1-1.5-1.24,25.41,25.41,0,0,1-.2-4.42,35.76,35.76,0,0,1,.26-5.82,4.34,4.34,0,0,1,.44-1.21A2.29,2.29,0,0,1,270.32,638.24Z"/><path class="cls-4" d="M284.42,640.6c.05-.13.33-.2.84-.2a1.65,1.65,0,0,1,.92.18c.45.34.68.66.68,1a1.42,1.42,0,0,1-.14.5,1.72,1.72,0,0,1-.76.73,2.15,2.15,0,0,1-1,.37h-.12a2.4,2.4,0,0,0-.86.37,7.13,7.13,0,0,0-1.12.79,3.44,3.44,0,0,0-1.3,2.7,4.53,4.53,0,0,0,.74,2.4,3.48,3.48,0,0,0,3.22,1.9,5.44,5.44,0,0,0,1.8-.32,4.65,4.65,0,0,0,1.65-1,18.83,18.83,0,0,0,2-2.15c.54-.66.92-1,1.14-1h0c.2.07.3.34.3.82a4.12,4.12,0,0,1-.38,1.66,6.36,6.36,0,0,1-1.55,2,8.72,8.72,0,0,1-2.29,1.63,6.45,6.45,0,0,1-2.86.54,7.47,7.47,0,0,1-1.6-.13,3,3,0,0,1-1.06-.57,8.41,8.41,0,0,1-2.82-3.14,7.2,7.2,0,0,1-.06-5.32,4.94,4.94,0,0,1,1.21-1.72,10.64,10.64,0,0,1,2.33-1.38C284,640.94,284.39,640.71,284.42,640.6Z"/><path class="cls-4" d="M293.26,639a1.55,1.55,0,0,1,1-.4,4.7,4.7,0,0,1,.66.06q1,.17,5.88.24c2.44.06,4.05.14,4.83.25s1.17.33,1.17.63-.66.76-2,1l-1.56.3a13,13,0,0,1-1.6.26,4.72,4.72,0,0,0-1.71.42c-.17.15-.25.62-.25,1.42v1a21.44,21.44,0,0,1-.2,3.24,16.14,16.14,0,0,0-.14,2.22c0,.08,0,.2,0,.34s0,.26,0,.32,0,.29,0,.5a3.18,3.18,0,0,1-.19,1.21c-.13.29-.29.43-.49.43s-.61-.32-.94-1a13.56,13.56,0,0,1-.82-5.56,19.09,19.09,0,0,1,.14-2.5v-.16a2,2,0,0,0-.26-1.06,1,1,0,0,0-.51-.41,5.23,5.23,0,0,0-1.21-.09,4.24,4.24,0,0,1-1.22-.11,1.63,1.63,0,0,1-.7-.49,1.61,1.61,0,0,1-.54-1.1A1.32,1.32,0,0,1,293.26,639Z"/><path class="cls-4" d="M311.94,637.3a.91.91,0,0,1,.62-.38c.24,0,.58.23,1,.68a2,2,0,0,1,.72,1.36,1.51,1.51,0,0,1,0,.26,4.87,4.87,0,0,0,.24.74,13.18,13.18,0,0,1,.61,2.79,28.76,28.76,0,0,1,.23,3.53,7.62,7.62,0,0,1-.38,3,3.69,3.69,0,0,1-2.54,1.56,2.51,2.51,0,0,1-.62-.1,4.51,4.51,0,0,1-1.89-.85,6.86,6.86,0,0,1-1.29-2,15.47,15.47,0,0,1-1.08-2.68,15,15,0,0,1-.42-2.78c-.06-.77-.08-1.19-.08-1.26a1.35,1.35,0,0,1,.1-.61,1.53,1.53,0,0,1,.38-.43,1.46,1.46,0,0,1,1-.4l.24,0a2,2,0,0,1,.92.34,1.1,1.1,0,0,1,.24.82,6.72,6.72,0,0,1-.06.82,6.52,6.52,0,0,1-.2,1.5s0,.07,0,.16a7.19,7.19,0,0,0,.25,1.49,7.31,7.31,0,0,0,.45,1.47,2.58,2.58,0,0,1,.34.88c0,.16.21.45.64.85s.72.61.9.61.43-.22.54-.67a11.34,11.34,0,0,0,.16-2.25v-.6a17.69,17.69,0,0,0-.9-6.14,3.29,3.29,0,0,1-.32-1.12A1,1,0,0,1,311.94,637.3Z"/><path class="cls-4" d="M322.34,637.74a1,1,0,0,1,.82-.38,2,2,0,0,1,.88.24,1.55,1.55,0,0,1,.66.58,4.17,4.17,0,0,1,.16,1.28,7.54,7.54,0,0,0,.34,1.95,4.15,4.15,0,0,0,.64,1.51.8.8,0,0,1,.18.52,46,46,0,0,0,2.12,4.82c0,.06.44.84,1.24,2.36A4.07,4.07,0,0,1,330,652a1.05,1.05,0,0,1-.16.46.84.84,0,0,1-.76.52,2,2,0,0,1-1.14-.44c-.31-.18-.92-.53-1.84-1l-1.8-1a4.28,4.28,0,0,0-1.9-.84,1.51,1.51,0,0,0-.26,0h-.1a1.49,1.49,0,0,1-1-.56c-.34-.3-.57-.46-.7-.46s-.46.39-.82,1.16c-.24.58-.44.86-.58.86s-.2.11-.2.32a2,2,0,0,1-.54,1,1.69,1.69,0,0,1-1.34.62,1.11,1.11,0,0,1-1-.44,1.32,1.32,0,0,1-.3-.74,1.44,1.44,0,0,1,.56-1,9.48,9.48,0,0,0,1.66-2.29c.58-1,1.42-2.74,2.5-5.09a22.9,22.9,0,0,1,1.06-2.24,6.66,6.66,0,0,0,.48-1.7A2.64,2.64,0,0,1,322.34,637.74Zm1.18,5.58c0-.13-.1-.28-.3-.46a.17.17,0,0,0-.12-.06c-.18,0-.48.48-.92,1.44-.39.8-.72,1.58-1,2.32a3.75,3.75,0,0,1-.48,1c-.1.12-.08.14.06,0a1.42,1.42,0,0,0,.22-.14,1.7,1.7,0,0,1,1.08-.34c.25,0,.62,0,1.1.06s.74.06,1,.06c.54,0,.82-.06.82-.2a5.64,5.64,0,0,0-.66-1.82A7.26,7.26,0,0,1,323.52,643.32Zm2.7,5.9a.65.65,0,0,0-.62-.5.64.64,0,0,0-.24.07.21.21,0,0,0-.14.19c0,.11.14.28.43.51a1.18,1.18,0,0,0,.63.35.07.07,0,0,0,.06,0Q326.41,649.74,326.22,649.22Z"/><path class="cls-4" d="M332,638.64a.81.81,0,0,1,.7-.28,1.89,1.89,0,0,1,1.12.38,1.78,1.78,0,0,1,.39.39,1.22,1.22,0,0,1,.11.57,7.47,7.47,0,0,1-.06.82,28.14,28.14,0,0,1-.66,3.66,30,30,0,0,0-.68,3.92c-.06.56-.08.9-.08,1a1,1,0,0,0,.12.56.5.5,0,0,0,.44.16,7.27,7.27,0,0,0,1.44-.26,9.7,9.7,0,0,1,2.1-.3,6.15,6.15,0,0,1,1.6.24,3.08,3.08,0,0,1,.7.26.4.4,0,0,1,.18.36.63.63,0,0,1,0,.16.58.58,0,0,1-.31.48,3.87,3.87,0,0,1-1.11.26,7.57,7.57,0,0,0-2.3.64,5.47,5.47,0,0,1-2.48.56,4.09,4.09,0,0,1-1.55-.27,1.63,1.63,0,0,1-.91-.75,4.39,4.39,0,0,1-.42-2.08,8.6,8.6,0,0,1,.22-2,58.61,58.61,0,0,0,1.06-6.52A5.45,5.45,0,0,1,332,638.64Z"/><path class="cls-4" d="M209.46,662.18a1.92,1.92,0,0,1,1.2-.3,2,2,0,0,1,1.43.6,8.41,8.41,0,0,1,1.37,2.14q1.54,3,2.1,3.9l.22.32a3.17,3.17,0,0,1,.62,1.66,1.07,1.07,0,0,1-.6,1,2.45,2.45,0,0,1-1,.14,13.34,13.34,0,0,1-3.72-.56,6.84,6.84,0,0,0-1.4-.26.22.22,0,0,0-.12,0,8.46,8.46,0,0,0-.2,2.14,8.94,8.94,0,0,1-.13,1.76,1.54,1.54,0,0,1-.53.76,1.57,1.57,0,0,1-1,.5,2.05,2.05,0,0,1-1.31-1,2.37,2.37,0,0,1-.09-.79c0-.45,0-1,.08-1.72,0-.49.1-1.42.19-2.79s.15-2.29.19-2.77.06-1,.09-1.52.06-.91.07-1.18l0-.42a6.38,6.38,0,0,1,.82-.22,1.47,1.47,0,0,0,1.08-.64A2.91,2.91,0,0,1,209.46,662.18Zm2.14,3.9q-.56-.78-.72-.78c-.16,0-.36.27-.61.81a5.56,5.56,0,0,0-.47,1.55l-.14,1,1.62.28a8.59,8.59,0,0,0,1.56.16c.15,0,.23,0,.24,0a.13.13,0,0,0,0-.08,4,4,0,0,0-.49-1.3A9.71,9.71,0,0,0,211.6,666.08Z"/><path class="cls-4" d="M218.12,663.12a5.29,5.29,0,0,1,2.58-.6,4.25,4.25,0,0,1,1.8.34,7.46,7.46,0,0,1,2.43,1.88,3.5,3.5,0,0,1,.95,2.18,4.3,4.3,0,0,1-.7,1.82,11,11,0,0,1-1.48,2.08c-.51.51-.76.88-.76,1.12s.41.77,1.24,1.54a6.92,6.92,0,0,0,2,1.44,3.21,3.21,0,0,1,.87.48.76.76,0,0,1,.33.52c0,.15-.09.25-.28.3a1.88,1.88,0,0,1-.64.08,5.14,5.14,0,0,1-1.66-.29,3.16,3.16,0,0,1-1.28-.69,1.1,1.1,0,0,0-.62-.34c-.31,0-.83-.41-1.57-1.24a4.77,4.77,0,0,1-1.23-1.88,1.19,1.19,0,0,1,0-.36.67.67,0,0,1,.42-.6,6.92,6.92,0,0,0,1.52-1.23,7.4,7.4,0,0,0,1.22-1.53,3.53,3.53,0,0,0,.42-1.58,2,2,0,0,0-.51-1.41,2.5,2.5,0,0,0-1.45-.75,2.78,2.78,0,0,0-.54-.06,1.63,1.63,0,0,0-1.59,1.24,14.1,14.1,0,0,0-.45,4.28,21.31,21.31,0,0,0,.24,3.94,4.09,4.09,0,0,1,.1.8c0,.91-.36,1.4-1.08,1.48a1.47,1.47,0,0,1-.32,0c-.43,0-.7-.31-.83-1a43,43,0,0,1-.35-4.75c-.09-2-.14-3.34-.14-4a8.35,8.35,0,0,1,.15-1.81,2,2,0,0,1,.42-.91A4,4,0,0,1,218.12,663.12Z"/><path class="cls-4" d="M232.46,662.56a1.44,1.44,0,0,1,.46-.08c.83,0,1.52.78,2.08,2.32.27.74.67,1.67,1.2,2.8.67,1.38,1.1,2.32,1.29,2.84a4,4,0,0,1-.31,3.6,5,5,0,0,1-1.56,1.74,3.79,3.79,0,0,1-2.2.78,5.49,5.49,0,0,1-2.5-.74,5.39,5.39,0,0,1-1.32-.84,5.81,5.81,0,0,1-1-1.38,7.14,7.14,0,0,1-.73-1.69,14.4,14.4,0,0,1-.23-2.33q-.06-1-.06-1.56a4.3,4.3,0,0,1,.42-1.9,5.84,5.84,0,0,1,1.33-1.7,3.76,3.76,0,0,1,1.61-.94,1.52,1.52,0,0,0,.92-.46A1.39,1.39,0,0,1,232.46,662.56Zm.4,3.74a.68.68,0,0,0-.58-.28,1.82,1.82,0,0,0-1.06.46,1.31,1.31,0,0,0-.49.73,11.85,11.85,0,0,0-.09,1.89,9.08,9.08,0,0,0,.39,3,2.63,2.63,0,0,0,1.27,1.52,2.22,2.22,0,0,0,.84.3,1.47,1.47,0,0,0,.64-.2,1.9,1.9,0,0,0,1-1.94,4.32,4.32,0,0,0-.06-.7,15.44,15.44,0,0,0-.82-2.52A12.55,12.55,0,0,0,232.86,666.3Z"/><path class="cls-4" d="M241.22,662.18a1.92,1.92,0,0,1,1.2-.3,2,2,0,0,1,1.43.6,8.41,8.41,0,0,1,1.37,2.14q1.54,3,2.1,3.9l.22.32a3.17,3.17,0,0,1,.62,1.66,1.07,1.07,0,0,1-.6,1,2.45,2.45,0,0,1-1,.14,13.34,13.34,0,0,1-3.72-.56,6.84,6.84,0,0,0-1.4-.26.22.22,0,0,0-.12,0,8.46,8.46,0,0,0-.2,2.14,8.94,8.94,0,0,1-.13,1.76,1.54,1.54,0,0,1-.53.76,1.57,1.57,0,0,1-1,.5,2.05,2.05,0,0,1-1.31-1,2.37,2.37,0,0,1-.09-.79c0-.45,0-1,.08-1.72,0-.49.1-1.42.19-2.79s.15-2.29.19-2.77.06-1,.09-1.52.06-.91.07-1.18l0-.42a6.38,6.38,0,0,1,.82-.22,1.47,1.47,0,0,0,1.08-.64A2.91,2.91,0,0,1,241.22,662.18Zm2.14,3.9q-.56-.78-.72-.78c-.16,0-.36.27-.61.81a5.56,5.56,0,0,0-.47,1.55l-.14,1L243,669a8.59,8.59,0,0,0,1.56.16c.15,0,.23,0,.24,0a.13.13,0,0,0,0-.08,4,4,0,0,0-.49-1.3A9.71,9.71,0,0,0,243.36,666.08Z"/><path class="cls-4" d="M250.44,661.2a4,4,0,0,1,1-.12,6.92,6.92,0,0,1,3,.84,7.93,7.93,0,0,1,1.32.76.82.82,0,0,1,.38.6.53.53,0,0,1-.06.24.52.52,0,0,1-.56.32,3.23,3.23,0,0,1-1.22-.32,5.22,5.22,0,0,0-1.92-.34,2.86,2.86,0,0,0-1.22.22,1.27,1.27,0,0,0-.42,1.14c0,.39,0,1,.12,1.7l.14,1.16,1.46-.1c.28,0,.68,0,1.2,0q2.63,0,3,.72a1,1,0,0,1,.12.42.33.33,0,0,1-.08.24,5.84,5.84,0,0,1-1.94.52,15.06,15.06,0,0,1-2.56.32.8.8,0,0,1-.26,0l-.32,0a.16.16,0,0,0-.18.18,3,3,0,0,0,.18.76l.2.69c.09.33.15.53.16.59.08.38.2.56.36.56l.16,0a19.47,19.47,0,0,1,2.74-.27c1.59-.1,2.91-.15,4-.17h.4a4.12,4.12,0,0,1,1,.08.32.32,0,0,1,.25.32c0,.34-.53.71-1.58,1.12a17,17,0,0,1-3.72,1,5.5,5.5,0,0,0-1,.24,4.28,4.28,0,0,1-1.34.14H253c-.48,0-.75.1-.82.28a.33.33,0,0,1-.36.22.87.87,0,0,1-.3,0,2,2,0,0,1-1.15-.7,7.56,7.56,0,0,1-.63-2.1c-.09-.44-.21-1-.35-1.62s-.22-1-.23-1.08a24.32,24.32,0,0,1-.74-5.08,4.33,4.33,0,0,1,.48-2.25A2.33,2.33,0,0,1,250.44,661.2Z"/><path class="cls-4" d="M267.18,661.24a3,3,0,0,1,.88-.12,5,5,0,0,1,1.78.36,4.43,4.43,0,0,1,1.5,1.3,5.75,5.75,0,0,1,1.1,1.82,4.55,4.55,0,0,1,.16,1.08,3.18,3.18,0,0,1-.75,2,15.87,15.87,0,0,1-2.59,2.43c-.83.63-1.24,1-1.24,1.14s.31.53,1,1a17,17,0,0,0,2.43,1.39,13.79,13.79,0,0,1,2.36,1.35,1.42,1.42,0,0,1,.56,1.09c0,.15,0,.25,0,.31a.28.28,0,0,1-.08.15.37.37,0,0,1-.23.06s-.26,0-.66-.08a19.07,19.07,0,0,1-4.44-1.37,11,11,0,0,1-3.44-1.93l-.82-.82-.36,1.14a5.93,5.93,0,0,1-.74,1.7c-.21.3-.4.44-.56.44a4.36,4.36,0,0,1-.84-.2l-.27-.08-.23-.08-.16-.09a.32.32,0,0,1-.15-.12.76.76,0,0,1-.08-.16.49.49,0,0,1-.06-.25,3.33,3.33,0,0,1,0-.34c0-.34.09-1.4.26-3.18.05-.8.08-1.43.08-1.9a16.7,16.7,0,0,0-.4-4.06,1.37,1.37,0,0,1,0-.3.94.94,0,0,1,.3-.68,1.43,1.43,0,0,1,1.06-.38,1.15,1.15,0,0,1,.94.36c.14.16.24.24.28.24s.19-.1.32-.32a12.3,12.3,0,0,1,1.68-1.78A5.26,5.26,0,0,1,267.18,661.24Zm2.22,2.86a2.2,2.2,0,0,0-.52-.39,1.27,1.27,0,0,0-.54-.17,2,2,0,0,0-1.26.64,3.11,3.11,0,0,0-.92,1.36c-.18.54-.34.8-.5.8s-.2.12-.2.34A4.61,4.61,0,0,1,265,668a4.38,4.38,0,0,0-.46,1.48c0,.23.08.34.26.34a2.58,2.58,0,0,0,1.28-.74,25.81,25.81,0,0,1,2.26-1.66,6.42,6.42,0,0,0,1.5-1.14,1,1,0,0,0,.14-.58A2.33,2.33,0,0,0,269.4,664.1Z"/><path class="cls-4" d="M275.2,663a1.57,1.57,0,0,1,1-.4,4.7,4.7,0,0,1,.66.06q1,.17,5.88.24c2.44.06,4,.14,4.83.25s1.17.33,1.17.63-.66.76-2,1l-1.56.3a12.69,12.69,0,0,1-1.6.26,4.79,4.79,0,0,0-1.71.42c-.17.15-.25.62-.25,1.42v1a21.44,21.44,0,0,1-.2,3.24,17.88,17.88,0,0,0-.14,2.22c0,.08,0,.2,0,.34s0,.26,0,.32,0,.29,0,.5a3.18,3.18,0,0,1-.19,1.21c-.13.29-.29.43-.49.43s-.61-.32-.94-1a13.56,13.56,0,0,1-.82-5.56,19.09,19.09,0,0,1,.14-2.5v-.16a2,2,0,0,0-.26-1.06.92.92,0,0,0-.51-.41,5.23,5.23,0,0,0-1.21-.09,4.24,4.24,0,0,1-1.22-.11,1.63,1.63,0,0,1-.7-.49,1.61,1.61,0,0,1-.54-1.1A1.35,1.35,0,0,1,275.2,663Z"/><path class="cls-4" d="M295.56,662.6c.13-.17.46-.26,1-.26a1.88,1.88,0,0,1,1,.2.57.57,0,0,1,.2.48,9.34,9.34,0,0,1-.76,2.56,7.71,7.71,0,0,0-.56,1.8.46.46,0,0,1-.32.5q-.3.12-.42.78a2.81,2.81,0,0,1-.86,1.38,3.57,3.57,0,0,0-.7.9,4.55,4.55,0,0,1-.22.7,5.45,5.45,0,0,0-.22,1.44v1.86a3.82,3.82,0,0,1-.22,1.28c-.13.35-.29.52-.48.52s-.44-.18-.77-.56a4.91,4.91,0,0,1-.81-1.24A4.56,4.56,0,0,1,291,673c0-.3,0-.54,0-.72s0-.24,0-.42,0-.28,0-.34a3.16,3.16,0,0,0-.07-.84.5.5,0,0,0-.27-.3,1.65,1.65,0,0,1-.64-.5q-.18-.24-.3-.24a.92.92,0,0,0-.34.2c-.15.12-.24.18-.28.18s-.08-.11-.08-.34a.85.85,0,0,1,.32-.72.45.45,0,0,0,.18-.38,2.83,2.83,0,0,0-.16-.74,10.16,10.16,0,0,1-.36-2.9l-.1-2.06.76-.06.3,0a1.1,1.1,0,0,1,1,.49,4.24,4.24,0,0,1,.38,1.75,7.05,7.05,0,0,0,.49,2.27c.27.69.55,1.07.85,1.13h0c.21,0,.51-.37.91-1.13a19.8,19.8,0,0,0,1.15-2.83A9.08,9.08,0,0,1,295.56,662.6Z"/></g></svg>